<svg xmlns="http://www.w3.org/2000/svg" width="129.356" height="153.795" fill="none" viewBox="0 0 129.356 153.795"><path fill="#A8E42E" d="M96.19 31.59c-7.98-2.91-14.92-7.27-23.77-6.08-8.17 1.09-15.9 5.49-22.44 10.26-4.08 2.97.88 9.05 4.94 6.1 5.48-3.99 11.96-7.71 18.79-8.63 7.15-.96 13.34 3.34 19.78 5.7 4.74 1.73 7.46-5.61 2.7-7.35Z"/><path fill="#A8E42E" d="M48.71 36.15c-6.37 9.08-16.13 17.5-17.88 29-.89 5.85 1.38 11.58 5.26 15.92 2.95 3.29 6.55 5.86 10.25 8.24 4.17 2.68 8.94 5.2 12.2 9.03 5.63 6.61 5.25 16.74 6.39 24.84.7 5.01 8.44 3.75 7.74-1.25-1.05-7.49-1.27-15.28-4.29-22.34-3.67-8.58-11.83-12.84-19.24-17.78-4.68-3.11-10.51-7.47-10.69-13.67-.13-4.48 2.54-8.74 5.01-12.28 3.65-5.22 7.98-9.92 11.63-15.13 2.89-4.11-3.48-8.71-6.38-4.58Z"/><path fill="#000" d="M39.05 40.47C25.58 51.45 22.51 77 36.44 88.91c5.02 4.28 10.55 5.57 16.08 8.56 1.63.87 6 3.28 7.01 4.49.19.22 2.01 4.79 2.17 5.36 1.64 5.75.93 13.33 2.17 19.3l.88 1.3c1.48-.18 3.16-.51 3.82-2.04l-1.93-22.57c-1.87-1.33-2.48-5.38-3.89-6.45-9.28-7.06-21.54-7.31-27.5-19.19-3.54-7.06-2.04-21.1 1.89-27.8 3.53-6.01 18.75-15.58 25.45-18.25 16.62-6.64 33.91-1.44 38.95 17.13 1.62 5.96.53 16.35-3.21 21.26C93.37 76.51 85.9 80.74 81 87.24c-1.15-4.13-2.11-8.35-2.66-12.6-.71-5.54-.4-12.13-1.48-17.63-.46-2.33-3.14-1.55-4.33-.02-1.7 2.17-2.06 8.44-4.17 11.78-1.09 1.74-2.46 2.76-4.07 3.97-4-2.98-4.92-8.7-10.63-9.05-6.94-.43-10.33 9.62-4.55 13.56 2.85 1.94 7.82 2.93 11.09 1.85 2.09.8 4.98 12.13 5.66 14.7 1.53 5.82 3.15 13.07 3.89 19.01.18 1.41-.55 4.29.62 5.13 3.52 1.12 4.69-2.74 4.68-5.63-.02-6.03-4.76-22.51-6.7-28.91-.55-1.81-1.68-4.08-2.42-5.86 2.21-2.34 4.91-3.7 6.81-6.64.2 2.45.27 5.37.66 7.75 1.58 9.84 2.28 17.94 3.47 27.65.2 1.71.76 6.72 1.95 7.58 1.73 1.19 3.64-.14 4.59-1.66l1.66 6.72c1.78 1.14 3.87.17 4.55-1.83l-4.04-29.02c2.88-3.28 6.55-5.82 9.64-8.87 7.15-7.03 9.92-10.95 11.77-20.99 1.33-7.27-2.47-21.72-8.24-26.44-19.51-16.02-42.79-5.06-59.69 8.7l-.01-.02ZM58 74.7c-3.71-.01-9.47-2.18-6.29-6.62C53 67.64 57.5 73.22 58 74.7Zm25.05 35.41-.97-2.52-.14-6.23c.52-.1 1.23 7.95 1.11 8.75ZM76.35 133.16c1.91-.61 7.63-.57 8.41-1.01 2.35-1.32 1.69-3.87-.78-4.72-2.69-.92-15.44 2.24-16.4 6.08 1.18 4.65 6.17.49 8.77-.35ZM84.45 140.75c-.66-1.56-11.66-.3-13.18.46-.96.47-1.65.94-2.03 2-1.06 2.92 5.04 2.29 6.65 2.17 2.2-.16 10.09-.96 8.55-4.64l.01.01ZM84.73 151.29c.77-1.83-.01-2.89-1.92-3.04-.53-.04-7.83.82-8.42.97-1.14.32-2.31 1.41-2.68 2.53-.61 1.86 4.07 2.07 5.23 2.04 1.64-.04 7.14-.96 7.79-2.5Z"/><path fill="#FD9741" d="M10.37 52.6C14.59 49.02.01 43.21 0 51.05c.78 1.91 8.61 3.05 10.37 1.55ZM39.01 7.23c-.69 1.28.42 7.73 2.3 8.44 7.4 1.29 1.19-14.84-2.3-8.44ZM91.32 8.97c2.87 2.04 10.74-6.63 6.2-8.97-1.12-.02-8.93 6.95-6.2 8.97ZM120.12 49.99c-.95 2.55 5.44 4.4 7.29 3.82 6.48-2.03-5.16-9.56-7.29-3.82Z"/></svg>