<svg xmlns="http://www.w3.org/2000/svg" width="53.2" height="53.2" fill="none" viewBox="0 0 53.196 53.196"><circle cx="26.598" cy="26.598" r="26.598" fill="currentColor"/><path fill="#fff" d="M28.11 17.77v16.74h-3V17.77c0-.84.66-1.5 1.5-1.5s1.5.66 1.5 1.5Z"/><path fill="#fff" d="m35.69 30.37-8.17 6.24-1.82-2.38 8.16-6.24 1.83 2.38Zm-1.83-2.36v-.02c.67-.51 1.6-.39 2.11.28.51.66.38 1.59-.28 2.1h-.03l-1.8-2.36Zm-6.33 8.57-.01.03c-.66.51-1.59.39-2.1-.28a1.48 1.48 0 0 1 .28-2.1h.03l1.8 2.35Z"/><path fill="#fff" d="m25.71 36.58-8.21-6.16 1.81-2.4 8.2 6.16-1.8 2.4Zm1.77-2.39.03-.01c.67.51.81 1.43.3 2.1-.5.67-1.43.81-2.1.3v-.03l1.77-2.36Zm-9.95-3.78-.03.01c-.67-.51-.8-1.43-.29-2.11.5-.67 1.42-.8 2.1-.29v.02l-1.78 2.37Z"/></svg>