<svg xmlns="http://www.w3.org/2000/svg" width="47.007" height="47.007" viewBox="0 0 47.007 47.007"><path fill="#FF9841" fill-rule="evenodd" d="M47 23.5C47 36.48 36.48 47 23.5 47S0 36.48 0 23.5 10.52 0 23.5 0 47 10.52 47 23.5Z"/><path d="M23.5 14.42c2.95 0 3.3.01 4.47.07 1.08.05 1.67.23 2.06.38.51.2.88.44 1.27.83.39.38.63.75.83 1.27.15.39.33.98.38 2.06.05 1.16.07 1.51.07 4.47 0 2.95-.02 3.3-.07 4.47-.05 1.08-.23 1.67-.38 2.06-.21.51-.44.88-.83 1.27a3.3 3.3 0 0 1-1.27.83c-.39.15-.98.33-2.06.38-1.17.05-1.52.07-4.47.07-2.96 0-3.31-.02-4.47-.07-1.08-.05-1.67-.23-2.06-.38-.51-.21-.88-.44-1.27-.83a3.3 3.3 0 0 1-.83-1.27c-.15-.39-.33-.98-.38-2.06-.06-1.17-.07-1.52-.07-4.47 0-2.96.01-3.31.07-4.47.05-1.08.23-1.67.38-2.06.2-.51.44-.88.83-1.27a3.3 3.3 0 0 1 1.27-.83c.39-.15.98-.33 2.06-.38 1.16-.06 1.51-.07 4.47-.07Zm0-1.99c-3.01 0-3.38.01-4.57.06-1.18.05-1.98.24-2.68.52-.73.28-1.35.66-1.97 1.27a5.41 5.41 0 0 0-1.27 1.97c-.28.7-.47 1.5-.52 2.68-.05 1.19-.06 1.56-.06 4.57 0 3.01.01 3.38.06 4.56.05 1.18.24 1.99.52 2.69.28.73.66 1.35 1.27 1.96.62.62 1.23 1 1.97 1.28.7.28 1.5.46 2.68.51 1.19.05 1.56.07 4.57.07 3.01 0 3.38-.02 4.56-.07 1.18-.05 1.99-.23 2.69-.51.73-.28 1.35-.66 1.96-1.28.62-.61 1-1.23 1.28-1.96.28-.7.46-1.51.51-2.69.05-1.18.07-1.55.07-4.56s-.02-3.38-.07-4.57c-.05-1.18-.23-1.98-.51-2.68-.28-.73-.66-1.35-1.28-1.97-.61-.61-1.23-.99-1.96-1.27-.7-.28-1.51-.47-2.69-.52-1.18-.05-1.55-.06-4.56-.06Z"/><path d="M23.5 17.81c-3.14 0-5.69 2.54-5.69 5.69 0 3.14 2.54 5.69 5.69 5.69 3.14 0 5.69-2.55 5.69-5.69 0-3.15-2.55-5.69-5.69-5.69Zm0 9.38c-2.04 0-3.69-1.66-3.69-3.69 0-2.04 1.65-3.69 3.69-3.69 2.03 0 3.69 1.65 3.69 3.69a3.7 3.7 0 0 1-3.69 3.69ZM30.74 17.59c0 .73-.6 1.32-1.33 1.32-.73 0-1.33-.59-1.33-1.32a1.33 1.33 0 1 1 2.66 0Z"/></svg>