<svg xmlns="http://www.w3.org/2000/svg" class="wave-icon" viewBox="0 0 169.133 136.837"><defs><clipPath id="a"><rect width="145.41" height="93.398" fill="#fff" fill-opacity="0" rx="0" transform="scale(-1 1) rotate(-18.956 59.12 532.083)"/></clipPath></defs><rect width="145.41" height="93.398" fill="none" rx="0" transform="scale(-1 1) rotate(-18.956 59.12 532.083)"/><g clip-path="url(#a)"><path d="M168.41 49.39c-2.72 10.7-12.19 17.99-21.77 22.45-11.03 5.14-23.44 7.54-35.57 7.65-9.94.08-21.72-1.22-29.35-8.29-6.48-6-9.83-15.83-8.65-24.54.53-3.87 1.96-7.77 4.94-10.42 3.16-2.82 7.45-3.4 11.49-2.56 9.88 2.03 17.91 9.93 19.56 19.88 1.65 9.96-1.84 20.07-6.88 28.41s-12.06 14.91-21.33 18.3c-11.78 4.31-24.93 4.74-37.23 2.7-12.3-2.04-24.86-6.66-34.31-15.13-2.1-1.88-4.02-3.95-5.7-6.22-1.57-2.12 1.54-4.82 3.12-2.68 6.72 9.1 17.2 14.61 27.87 17.77 11.34 3.36 23.68 4.31 35.33 2.23 9.22-1.64 17.74-5.25 23.91-12.45 5.72-6.67 10.07-15.14 11.22-23.9 1.15-8.76-1.39-16.92-8.94-21.76-3.37-2.15-7.83-4.11-11.91-3.25-2.9.6-4.93 2.79-6.01 5.47-2.77 6.9-.84 15.68 3.3 21.65 5.2 7.49 14.29 9.7 22.92 10.42 11.08.92 22.51-.59 33.05-4.06 9.4-3.09 19.35-8.26 24.59-17 1.12-1.87 1.91-3.89 2.45-6.01.65-2.55 4.54-1.2 3.9 1.34Z"/></g></svg>