<svg xmlns="http://www.w3.org/2000/svg" width="163.661" height="124.439" viewBox="0 0 163.661 124.439"><defs><clipPath id="a"><rect width="145.41" height="93.398" fill="#fff" fill-opacity="0" rx="0" transform="rotate(-12.777 147.08 14.207)"/></clipPath></defs><rect width="145.41" height="93.398" fill="none" rx="0" transform="rotate(-12.777 147.08 14.207)"/><g clip-path="url(#a)"><path d="M.51 34.28c1.55 10.93 10.19 19.2 19.23 24.66 10.42 6.3 22.49 10.02 34.54 11.43 9.87 1.15 21.73 1.13 30.07-5.07 7.09-5.28 11.47-14.69 11.24-23.47-.11-3.91-1.11-7.94-3.79-10.9-2.84-3.14-7.04-4.18-11.14-3.78-10.04.95-18.88 7.95-21.59 17.66-2.72 9.72-.34 20.15 3.78 28.99 4.11 8.83 10.39 16.11 19.24 20.48 11.25 5.56 24.27 7.4 36.72 6.69 12.45-.7 25.44-3.94 35.74-11.35a41.34 41.34 0 0 0 6.33-5.56c1.79-1.94-1.01-4.96-2.8-3-7.67 8.32-18.68 12.67-29.63 14.67-11.63 2.11-24 1.73-35.36-1.59-9-2.63-17.07-7.13-22.44-14.95-4.97-7.25-8.38-16.14-8.58-24.97-.2-8.83 3.21-16.67 11.23-20.67 3.59-1.78 8.23-3.24 12.2-1.95 2.81.91 4.59 3.3 5.38 6.08 2.02 7.16-.86 15.68-5.61 21.17-5.98 6.89-15.25 8.11-23.91 7.89-11.12-.27-22.32-3-32.42-7.59-9.01-4.09-18.35-10.3-22.61-19.54-.92-1.99-1.49-4.08-1.8-6.24-.37-2.62-4.38-1.69-4.02.91Z"/></g></svg>