<svg width="229.001709" height="209.995605" viewBox="0 0 229.002 209.996" fill="none" xmlns="http://www.w3.org/2000/svg" xmlns:xlink="http://www.w3.org/1999/xlink">
	<desc>
			Created with Pixso.
	</desc>
	<defs/>
	<path id="Vector" d="M185.38 110.87C181.62 97.46 180.78 84.06 170.7 73.41C161.39 63.59 148.09 57.5 135.43 53.33C127.54 50.74 124.16 63.17 132 65.75C142.61 69.24 153.81 74.29 161.6 82.52C169.74 91.12 169.93 103.47 172.96 114.3C175.2 122.26 187.62 118.88 185.38 110.87Z" fill="#A8E42E" fill-opacity="1.000000" fill-rule="nonzero"/>
	<path id="Vector" d="M133.71 52.02C115.43 52.2 94.8 47.26 77.72 55.92C69.05 60.31 63.56 68.8 61.48 78.13C59.91 85.19 59.92 92.44 60.29 99.63C60.72 107.76 61.92 116.51 59.93 124.51C56.48 138.32 42.57 147.49 32.82 156.75C26.79 162.46 35.91 171.56 41.92 165.86C50.93 157.3 61.15 149.58 67.7 138.81C75.65 125.73 73.52 110.78 73.01 96.21C72.69 87.01 72.92 75.09 81.05 68.91C86.92 64.46 95.18 63.95 102.29 63.86C112.78 63.73 123.21 65 133.7 64.89C141.97 64.8 142 51.93 133.7 52.01L133.71 52.02Z" fill="#A8E42E" fill-opacity="1.000000" fill-rule="nonzero"/>
	<path id="Vector" d="M118.64 43.29C91.03 35.84 53.88 56.17 51.33 86.08C50.41 96.86 53.99 105.44 55.31 115.66C55.7 118.66 56.68 126.78 56.03 129.29C55.91 129.75 51.56 136.53 50.94 137.3C44.83 144.97 33.99 151.26 27.2 158.62L26.31 161.03C27.96 162.83 30.02 164.75 32.7 164.17L61.06 140.04C61.03 136.29 65.86 131.6 65.94 128.7C66.47 109.6 55.04 93.04 65.21 73.76C71.26 62.29 91.5 50.88 104.22 49.72C115.65 48.68 143.08 59.79 153.09 66.16C177.92 81.95 187.57 109.94 167.57 134.38C161.14 142.24 146.19 150.71 136.03 150.41C122.58 150.03 109.75 144.12 96.34 143.81C100.76 138.33 105.48 133.03 110.65 128.23C117.37 121.98 126.5 116.11 132.81 109.42C135.49 106.57 131.88 103.76 128.68 103.64C124.14 103.44 115.41 108.95 108.92 109.34C105.54 109.54 102.86 108.69 99.69 107.71C99.85 99.54 106.61 92.85 101.6 84.92C95.51 75.26 78.82 80.35 79.09 91.81C79.23 97.45 82.67 105.02 87.26 108.34C88.2 111.9 75.81 126.57 73.03 129.91C66.7 137.52 58.57 146.59 51.33 153.26C49.61 154.85 45.06 156.61 45.05 158.98C46.94 164.74 53.22 162.61 57.08 159.83C65.13 154.05 82.63 131.98 89.34 123.29C91.22 120.84 93.17 117.17 94.85 114.48C100.1 115.18 104.52 117.49 110.27 117.2C107.19 119.81 103.35 122.68 100.53 125.48C88.88 137 78.71 145.66 66.86 156.51C64.78 158.42 58.61 163.94 58.6 166.35C58.67 169.79 62.28 171.07 65.23 170.87L57.82 179.51C58.01 182.97 61.31 184.82 64.65 183.81L99.61 150.72C106.75 151.41 113.67 153.87 120.72 155.09C137 157.88 144.9 157.83 160.11 150.69C171.12 145.52 186.8 126.67 187.59 114.47C190.28 73.2 153.27 52.66 118.63 43.32L118.64 43.29ZM91.04 101.21C87.49 96.26 84.86 86.52 93.85 86.52C95.67 87.81 92.54 99.12 91.04 101.21ZM67.71 168.38L70.14 164.68L78.35 158.55C78.98 159.14 68.88 167.78 67.71 168.38Z" fill="#000000" fill-opacity="1.000000" fill-rule="nonzero"/>
	<path id="Vector" d="M30.43 181.48C33.08 183.43 38.52 191.1 39.86 191.71C43.88 193.58 46.66 190.26 45.41 186.17C44.06 181.7 27.6 167.75 21.54 170.13C16.45 176.16 26.81 178.82 30.43 181.48Z" fill="#000000" fill-opacity="1.000000" fill-rule="nonzero"/>
	<path id="Vector" d="M28.05 199.51C29.51 197.16 17.27 183.71 14.78 182.4C13.23 181.59 11.94 181.12 10.16 181.61C5.24 182.99 11.92 190.52 13.63 192.55C15.97 195.32 24.61 205.06 28.05 199.5L28.05 199.51Z" fill="#000000" fill-opacity="1.000000" fill-rule="nonzero"/>
	<path id="Vector" d="M14.21 209.96C17.4 209.23 18.08 207.17 16.45 204.5C15.99 203.74 7.83 194.85 7.06 194.22C5.54 193 2.96 192.48 1.09 193.06C-1.97 194.02 2.24 200.45 3.4 201.98C5.03 204.12 11.54 210.56 14.21 209.95L14.21 209.96Z" fill="#000000" fill-opacity="1.000000" fill-rule="nonzero"/>
	<path id="Vector" d="M74.87 16.69C83.73 18.89 77.49 -6.07 66.99 1.39C65.2 4.26 71.18 15.78 74.87 16.69Z" fill="#FD9741" fill-opacity="1.000000" fill-rule="nonzero"/>
	<path id="Vector" d="M163.08 11.48C160.71 11.78 153.14 19.42 154 22.6C159.37 33.69 175 10 163.08 11.48Z" fill="#FD9741" fill-opacity="1.000000" fill-rule="nonzero"/>
	<path id="Vector" d="M210.97 82.78C211.01 88.55 230.16 90.75 228.94 82.46C227.87 80.95 211.06 77.22 210.97 82.78Z" fill="#FD9741" fill-opacity="1.000000" fill-rule="nonzero"/>
	<path id="Vector" d="M183.74 160.3C179.41 161.48 183.07 171.75 185.63 173.67C194.56 180.34 193.47 157.65 183.74 160.3Z" fill="#FD9741" fill-opacity="1.000000" fill-rule="nonzero"/>
</svg>
