<svg xmlns="http://www.w3.org/2000/svg" id="Layer_2" data-name="Layer 2" viewBox="0 0 229.39 152.63"><defs><style>.cls-2{fill:#a8e42e}</style></defs><g id="Layer_2-2" data-name="Layer 2"><path d="M207.91 17.79c-12.22 38.91-8.89 80.99-3.53 120.78.58 4.29 6.08 6.62 9.84 5.59 4.63-1.27 6.17-5.54 5.59-9.84-4.97-36.91-7.79-76.23 3.53-112.27 3.09-9.85-12.35-14.06-15.43-4.25ZM122.83 67.56c-6.65-6.41-14.34-11.22-21.72-16.7-8.55-6.35-17.05-12.55-26.54-17.46-16.43-8.5-33.6-17.41-46.5-30.95-7.12-7.47-18.42 3.86-11.31 11.31 13.14 13.8 30.37 23.38 47.12 32.09 9.06 4.71 17.44 10.06 25.63 16.17 7.42 5.53 15.34 10.41 22.02 16.86 7.42 7.15 18.74-4.15 11.31-11.31Z" class="cls-2"/><path d="M224.6 2.89c-17.72-1.02-36.53 2.36-54.38 3.23-46.5 2.25-92.88-1.38-139.19-4.06-6.63.6-13.48.59-20.16.43-2.57-.06-4.83-1.6-6.6 1.45 1.57 2.48.26 1.35-.47 2.32-.75 1-.3 5.33-.35 6.91-.7 21.19-.31 42.79-1.25 64.06 2.01 18.5-1.54 39.93.42 58.07.2 1.88 1.15 2.62 1.58 4.07.75 2.58-.14 10.44 3.07 11.04 14.03.97 27.94-1.52 41.92-2.02 32.38-1.17 64.69-1.37 96.84.04l8.82-.43 2.43.42h44c6.32-.91 13.85.28 20.16-.41.59-.06 1.93-.45 2.34-.79.16-.14 1.37-3.65 1.41-3.95.56-4.71-1.66-11.74-1.95-16.82-2.01-34.36-.31-69.2 2.44-103.21.13-1.57.42-6.85.81-7.98.11-.32.5-.32.78-.3-2.09-2.8 3.02-11.73-2.66-12.06Zm-210.07 4c4.4.26 8.82.12 13.31.03 26.98-.51 53.32 3.43 80.24 4.02 19.54.43 40.95.73 60.52.01 13.69-.5 27.47-2.62 41.13-3.24 2.34-.11 4.71.06 7.05 0l-16 7.98c-22.54 13.43-45.07 27.17-65.26 44.02-7.03 5.86-13.37 12.53-20.98 17.74-10.64-6.9-20.06-15.56-30.32-22.92-15.62-11.2-33.17-21.48-49.3-32.16-5.76-3.81-10.69-8.04-17.03-11.2L12.7 7.09c.09-.37 1.37-.25 1.83-.22Zm173 135.85c-48.2.27-96.82-1.92-145.18.42-7.86.38-16.04 1.72-23.78 2.03-3.06.12-6.06-.22-9.09-.42.04-3.32-1.02-6.58-1.22-9.86-.92-14.71-.39-32.22-.41-47.16-.02-22.88 1.72-46.26.83-68.95-.11-2.75.07-5.51 0-8.26l68.69 44.82c9.93 7.11 19.37 14.78 29.28 21.93 1.56 1.13 5.17 4.59 6.5 5.2.83.38 3.58.38 4.42 0 .84-.38 4.64-4.55 6.09-5.6 1.38-1.01 3.27-1.62 4.29-2.37 3.87-2.82 7.98-7.42 12.01-10.77 6.08-5.06 14.99-12.6 21.75-16.54 5.57-3.24 11.76-8.31 17.77-12.09 5.93-3.74 12.54-7.74 18.63-11.21 6.54-3.74 14.86-7.02 20.85-11 1.08-.72 1.3-1.69 2.27-2.36-.49 3.94-.52 7.93-.8 11.89-1.49 20.5-3.55 41.11-3.64 61.66-.05 12.03.68 23.65 1.15 35.49.25 6.25-.37 13.08 1.41 19.23.51 1.76 1.35 2.04 1.9 3.54-11.22.51-22.44.33-33.69.39Z" style="stroke:#000;stroke-linecap:round;stroke-linejoin:round;stroke-width:4px"/></g></svg>