<svg xmlns="http://www.w3.org/2000/svg" width="188.36" height="19.6" fill="none" viewBox="0 0 188.36 19.6"><defs><clipPath id="a"><rect width="187.36" height="18.6" fill="#fff" fill-opacity="0" rx="0" transform="translate(.5 .5)"/></clipPath></defs><rect width="187.36" height="18.6" rx="0" transform="translate(.5 .5)"/><g clip-path="url(#a)"><path fill="#B5E800" d="m173.54 11.67-.48 3.57 3.6-.48c5.84-.77 10.44-5.37 11.22-11.2l.48-3.58-3.6.48a13.05 13.05 0 0 0-11.22 11.21Z"/><path fill="#16535E" d="M3.64 14.62c-1.1-.57-1.98-1.42-2.64-2.55-.67-1.13-1-2.49-1-4.1 0-1.61.33-2.98 1.03-4.1.68-1.13 1.6-1.98 2.73-2.55C4.89.75 6.12.46 7.44.46c1.23 0 2.32.21 3.28.67.96.45 1.74 1.07 2.31 1.88.57.81.89 1.73.94 2.76h-3.13c-.11-.8-.48-1.43-1.09-1.9-.62-.47-1.4-.7-2.33-.7-.85 0-1.61.19-2.27.58-.68.39-1.21.94-1.59 1.66-.38.72-.58 1.58-.58 2.57 0 .99.2 1.87.58 2.61.38.75.91 1.33 1.58 1.73.66.41 1.4.61 2.2.61.6 0 1.19-.13 1.74-.39.57-.26 1.02-.59 1.37-1.01.35-.41.52-.84.52-1.29 0-.18-.05-.33-.16-.43a.573.573 0 0 0-.43-.16H7.55V7.28h3.99c.67 0 1.23.23 1.69.7.45.47.68 1.03.68 1.67v5.67h-2.79v-2.25c-.24.73-.72 1.31-1.44 1.75-.73.44-1.55.66-2.5.66a7.69 7.69 0 0 1-3.58-.86h.04Zm15.47-6.66c-.35.54-.51 1.27-.51 2.21v5.14h-2.93V4.72h2.93v1.76c.27-.64.63-1.1 1.03-1.35.41-.28.97-.41 1.63-.41h1.19v2.44h-1.74c-.71 0-1.22.28-1.58.8h-.02Zm6.07 6.82a5.085 5.085 0 0 1-1.98-1.95c-.48-.83-.71-1.77-.71-2.8 0-1.03.24-1.97.71-2.8.47-.83 1.14-1.48 1.98-1.95.86-.47 1.82-.7 2.88-.7 1.08 0 2.03.23 2.89.7.85.47 1.52 1.12 1.98 1.95.48.83.72 1.77.72 2.8 0 1.03-.24 1.97-.72 2.8-.47.83-1.13 1.48-1.98 1.95-.85.47-1.81.7-2.89.7-1.06 0-2.01-.23-2.88-.7Zm4.8-2.64c.49-.55.73-1.25.73-2.12 0-.87-.24-1.6-.73-2.14s-1.13-.82-1.92-.82c-.77 0-1.41.27-1.9.82-.49.54-.74 1.26-.74 2.14 0 .88.25 1.57.74 2.12s1.13.82 1.9.82c.79 0 1.43-.27 1.92-.82Zm6.95 2.55a5.138 5.138 0 0 1-1.85-2.05c-.43-.84-.63-1.72-.63-2.66 0-.92.18-1.82.57-2.65.38-.83.98-1.5 1.76-2.01.8-.53 1.75-.79 2.89-.79 1.14 0 2.16.25 2.95.76.77.5 1.36 1.15 1.73 1.93.37.78.55 1.61.55 2.48 0 .33-.01.65-.03.95h-7.61c.12.76.4 1.35.86 1.77.44.43 1.04.64 1.76.64.6 0 1.08-.12 1.46-.35.38-.23.62-.57.72-1.02h2.85c-.2 1.13-.78 2.04-1.69 2.73-.93.69-2.05 1.03-3.34 1.03-1.15 0-2.13-.26-2.96-.79l.01.03Zm5.05-5.87c-.05-.62-.27-1.12-.68-1.51-.41-.41-.94-.61-1.64-.61-.68 0-1.19.18-1.6.51-.39.35-.65.88-.78 1.61h4.7ZM49.37.14v3.09h-3.11V.14h3.11Zm-3.02 4.59h2.92v10.58h-2.92V4.73ZM58.27.14v3.09h-3.11V.14h3.11Zm-3.02 4.59h2.92v10.58h-2.92V4.73Zm4.89-.01h2.92V6.2c.29-.53.72-.93 1.29-1.22.57-.28 1.21-.42 1.94-.42.78 0 1.47.16 2.07.52.59.34 1.05.83 1.38 1.46.32.63.48 1.36.48 2.17v6.59h-2.94V9.35c0-.64-.2-1.17-.57-1.58-.38-.42-.88-.62-1.47-.62-.64 0-1.17.22-1.57.66-.41.44-.61 1-.61 1.69v5.79h-2.92V4.72Zm18.05 10.06a5.085 5.085 0 0 1-1.98-1.95c-.48-.83-.71-1.77-.71-2.8 0-1.03.24-1.97.71-2.8.47-.83 1.14-1.48 1.98-1.95.86-.47 1.82-.7 2.89-.7s2.02.23 2.88.7c.85.47 1.52 1.12 1.99 1.95.48.83.71 1.77.71 2.8 0 1.03-.24 1.97-.71 2.8a5.11 5.11 0 0 1-1.99 1.95c-.85.47-1.81.7-2.88.7-1.07 0-2.03-.23-2.89-.7Zm4.79-2.64c.49-.55.73-1.25.73-2.12 0-.87-.24-1.6-.73-2.14-.49-.55-1.13-.82-1.92-.82-.77 0-1.41.27-1.9.82-.49.54-.73 1.26-.73 2.14 0 .88.24 1.57.73 2.12s1.13.82 1.9.82c.79 0 1.43-.27 1.92-.82Zm5.06-7.42h2.92V6.2c.29-.53.72-.93 1.29-1.22.57-.28 1.21-.42 1.94-.42.78 0 1.47.16 2.07.52.59.34 1.05.83 1.38 1.46.32.63.48 1.36.48 2.17v6.59h-2.94V9.35c0-.64-.19-1.17-.57-1.58-.38-.42-.87-.62-1.47-.62-.64 0-1.17.22-1.57.66-.41.44-.61 1-.61 1.69v5.79h-2.92V4.72ZM100.75 14c-.9-.99-1.34-2.31-1.34-3.98 0-1.1.2-2.05.61-2.88.4-.83.97-1.47 1.71-1.91.74-.45 1.62-.67 2.65-.67.64 0 1.22.11 1.72.35.5.23.91.54 1.22.93V.14h2.92v15.18h-2.92v-1.15c-.29.41-.7.73-1.22.97s-1.08.36-1.68.36c-1.55 0-2.77-.49-3.66-1.48l-.01-.02Zm6.02-1.85c.48-.54.71-1.25.71-2.13 0-.88-.24-1.61-.71-2.15-.48-.54-1.11-.81-1.89-.81-.78 0-1.39.27-1.87.81-.48.54-.71 1.26-.71 2.15 0 .89.24 1.59.71 2.13.48.54 1.1.81 1.87.81s1.41-.27 1.89-.81Zm7.33 2.54a5.091 5.091 0 0 1-1.86-2.05 5.85 5.85 0 0 1-.63-2.66c0-.92.19-1.82.58-2.65.38-.83.97-1.5 1.76-2.01.79-.53 1.75-.79 2.89-.79 1.14 0 2.15.25 2.94.76.78.5 1.36 1.15 1.73 1.93.37.78.56 1.61.56 2.48 0 .33-.01.65-.04.95h-7.6c.11.76.4 1.35.85 1.77.45.43 1.05.64 1.77.64.59 0 1.07-.12 1.45-.35.38-.23.62-.57.73-1.02h2.85c-.21 1.13-.78 2.04-1.7 2.73-.92.69-2.04 1.03-3.34 1.03-1.15 0-2.13-.26-2.95-.79l.01.03Zm5.05-5.87c-.04-.62-.27-1.12-.67-1.51-.41-.41-.95-.61-1.64-.61s-1.2.18-1.6.51c-.39.35-.65.88-.78 1.61h4.69Zm7.81-.86c-.35.54-.52 1.27-.52 2.21v5.14h-2.92V4.72h2.92v1.76c.28-.64.63-1.1 1.04-1.35.41-.26.96-.41 1.63-.41h1.17v2.44h-1.73c-.7 0-1.22.28-1.57.8h-.02Z"/><path fill="#16535E" d="M130.25 4.72h2.95l1.8 6.54 1.88-6.54h2.67l1.87 6.54 1.78-6.54h2.94l-3.44 10.59h-2.56l-1.91-6.6-1.95 6.6h-2.56l-3.44-10.59h-.03ZM150.07.14v3.09h-3.11V.14h3.11Zm-3.02 4.59h2.92v10.58h-2.92V4.73Zm2.92 12.58h.69c.39 0 .7-.14.93-.41.23-.28.35-.65.35-1.12V4.73h2.92v11.36c0 1.09-.33 1.95-1 2.57-.66.62-1.58.93-2.72.93h-1.18v-2.3l.01.02ZM154.98.14v3.09h-3.11V.14h3.11Zm2.5 14.33c-.81-.67-1.25-1.58-1.31-2.73h2.53c.07.48.28.85.62 1.12.34.27.78.41 1.31.41.46 0 .83-.1 1.11-.29.28-.2.42-.44.42-.73 0-.39-.17-.66-.5-.82-.34-.15-.88-.29-1.6-.42-.76-.14-1.37-.29-1.85-.46-.48-.17-.89-.47-1.23-.91-.34-.44-.51-1.07-.51-1.88 0-.62.16-1.17.49-1.66.32-.47.78-.85 1.36-1.13.57-.26 1.23-.4 1.93-.4 1.28 0 2.32.31 3.11.94.79.63 1.21 1.46 1.25 2.5h-2.52c-.06-.43-.26-.78-.6-1.03-.35-.23-.72-.36-1.14-.36-.43 0-.77.09-1.02.26-.24.18-.37.43-.37.77 0 .38.16.64.49.78.33.14.85.25 1.55.35.78.12 1.41.25 1.91.42.5.15.92.46 1.28.93.36.46.54 1.13.54 2.02 0 1.01-.37 1.82-1.12 2.42-.75.61-1.75.91-2.99.91-1.24 0-2.34-.34-3.15-1.01h.01Z"/></g></svg>