<svg xmlns="http://www.w3.org/2000/svg" width="110" height="109" fill="none" viewBox="0 0 110 109"><defs><clipPath id="a"><rect width="59" height="58" fill="#fff" fill-opacity="0" rx="0" transform="translate(25.5 25.5)"/></clipPath></defs><path fill="#004953" d="M109.92 0h.08v79c0 16.56-13.44 30-30 30H0L109.92 0Z"/><rect width="59" height="58" rx="0" transform="translate(25.5 25.5)"/><g fill="#A9E52F" clip-path="url(#a)"><path d="M42.6 25H25v59l17.6-17.29V25Zm0 41.71 16.49 16.35c.6.6 1.41.94 2.26.94H85L55.02 54.43 42.6 66.7v.01Zm13.36-19.2L55 54.43l7.01-.9c11.39-1.46 20.38-10.3 21.95-21.59l.96-6.92-7.02.9c-11.39 1.46-20.38 10.3-21.94 21.59Z"/></g></svg>