<svg xmlns="http://www.w3.org/2000/svg" width="218.043" height="216" fill="none" viewBox="0 0 218.043 216"><defs><clipPath id="a"><rect width="117" height="116" fill="#fff" fill-opacity="0" rx="0" transform="translate(50.521 49.5)"/></clipPath></defs><path fill="#004953" d="M217.89 0h.15v216H0L217.89 0Z"/><rect width="117" height="116" fill="none" rx="0" transform="translate(50.521 49.5)"/><g fill="#A9E52F" clip-path="url(#a)"><path d="M84.64 49H50.02v117l34.62-34.29V49Z"/><path d="m84.64 131.71 32.43 32.44a6.275 6.275 0 0 0 4.44 1.85h46.51l-58.95-58.64-24.44 24.34.01.01ZM110.91 93.65l-1.89 13.71 13.79-1.78c22.4-2.89 40.08-20.43 43.16-42.82l1.89-13.71-13.79 1.78c-22.4 2.89-40.08 20.43-43.16 42.82Z"/></g></svg>