<svg xmlns="http://www.w3.org/2000/svg" width="189" height="20" fill="none" viewBox="0 0 189 20"><g clip-path="url(#a)"><path fill="#B5E800" d="m173.54 11.924-.48 3.57 3.6-.48c5.84-.77 10.44-5.36 11.22-11.2l.48-3.57-3.6.48c-5.84.77-10.44 5.36-11.22 11.2Z"/><path fill="#16535E" d="M3.64 14.874c-1.1-.57-1.98-1.42-2.64-2.55-.66-1.13-1-2.49-1-4.1 0-1.61.34-2.98 1.03-4.1.69-1.13 1.6-1.98 2.73-2.55a8.08 8.08 0 0 1 3.69-.86c1.22 0 2.31.22 3.27.67.97.45 1.74 1.07 2.31 1.88.57.81.89 1.73.94 2.76h-3.13c-.11-.8-.48-1.43-1.09-1.9-.62-.47-1.39-.7-2.33-.7-.84 0-1.6.19-2.27.58-.67.39-1.2.94-1.58 1.66-.39.72-.58 1.58-.58 2.57 0 .99.19 1.87.58 2.61.38.75.91 1.33 1.57 1.73.66.41 1.4.61 2.21.61.6 0 1.18-.13 1.74-.39s1.01-.59 1.36-1.01c.35-.41.52-.84.52-1.29 0-.18-.05-.33-.16-.43a.573.573 0 0 0-.43-.16H7.55v-2.37h3.99c.67 0 1.23.23 1.69.7.45.47.68 1.03.68 1.67v5.67h-2.79v-2.25c-.24.73-.72 1.31-1.44 1.75-.72.44-1.55.66-2.49.66a7.66 7.66 0 0 1-3.58-.86h.03ZM19.12 8.224c-.35.53-.52 1.27-.52 2.2v5.14h-2.92V4.984h2.92v1.76c.28-.64.63-1.1 1.04-1.36.41-.27.96-.4 1.63-.4h1.18v2.44h-1.74c-.7 0-1.22.27-1.57.8h-.02ZM25.19 15.034a5.045 5.045 0 0 1-1.99-1.95c-.48-.83-.71-1.77-.71-2.8 0-1.03.24-1.97.71-2.8a5.11 5.11 0 0 1 1.99-1.95c.85-.47 1.81-.7 2.88-.7 1.07 0 2.02.23 2.88.7.85.47 1.52 1.12 1.99 1.95.48.83.71 1.77.71 2.8 0 1.03-.24 1.97-.71 2.8a5.11 5.11 0 0 1-1.99 1.95c-.85.47-1.81.7-2.88.7-1.07 0-2.02-.23-2.88-.7Zm4.79-2.64c.49-.55.73-1.25.73-2.12 0-.87-.24-1.6-.73-2.14s-1.13-.82-1.91-.82-1.42.27-1.91.82c-.49.55-.73 1.26-.73 2.14 0 .88.24 1.57.73 2.12s1.13.82 1.91.82 1.42-.27 1.91-.82ZM36.94 14.944a5.09 5.09 0 0 1-1.86-2.05 5.84 5.84 0 0 1-.63-2.65c0-.93.19-1.82.58-2.65.38-.83.97-1.5 1.76-2.02s1.75-.78 2.89-.78c1.14 0 2.15.25 2.94.76.78.5 1.36 1.15 1.73 1.93.37.78.56 1.61.56 2.48 0 .32-.01.64-.04.94h-7.6c.11.76.4 1.35.85 1.77.45.43 1.05.64 1.77.64.59 0 1.07-.12 1.45-.35.38-.23.62-.57.73-1.02h2.85c-.21 1.13-.78 2.04-1.7 2.73-.92.69-2.04 1.03-3.34 1.03-1.15 0-2.13-.26-2.95-.79l.01.03Zm5.04-5.86c-.04-.62-.27-1.12-.67-1.52-.41-.4-.95-.6-1.64-.6s-1.2.17-1.6.51c-.39.34-.65.88-.78 1.61H41.98ZM49.37.394v3.09h-3.11V.394h3.11Zm-3.02 4.59h2.92v10.58h-2.92V4.984ZM58.27.394v3.09h-3.11V.394h3.11Zm-3.02 4.59h2.92v10.58h-2.92V4.984ZM60.14 4.984h2.92v1.47c.29-.52.72-.92 1.29-1.21.57-.29 1.21-.43 1.94-.43.78 0 1.47.17 2.07.52.59.35 1.05.84 1.38 1.47.32.63.48 1.35.48 2.16v6.59h-2.94v-5.94c0-.64-.19-1.17-.57-1.59-.38-.41-.87-.62-1.47-.62-.64 0-1.17.22-1.57.66-.41.44-.61 1-.61 1.69v5.79h-2.92V4.983ZM78.2 15.034a5.045 5.045 0 0 1-1.99-1.95c-.48-.83-.71-1.77-.71-2.8 0-1.03.24-1.97.71-2.8a5.11 5.11 0 0 1 1.99-1.95c.85-.47 1.81-.7 2.88-.7 1.07 0 2.02.23 2.88.7a4.98 4.98 0 0 1 1.99 1.95c.48.83.71 1.77.71 2.8 0 1.03-.24 1.97-.71 2.8a5.11 5.11 0 0 1-1.99 1.95c-.85.47-1.81.7-2.88.7-1.07 0-2.02-.23-2.88-.7Zm4.78-2.64c.49-.55.73-1.25.73-2.12 0-.87-.24-1.6-.73-2.14-.49-.55-1.13-.82-1.91-.82s-1.42.27-1.91.82c-.49.55-.73 1.26-.73 2.14 0 .88.24 1.57.73 2.12s1.13.82 1.91.82 1.42-.27 1.91-.82ZM88.04 4.984h2.92v1.47c.29-.52.72-.92 1.29-1.21.57-.29 1.21-.43 1.94-.43.78 0 1.47.17 2.07.52.59.35 1.05.84 1.38 1.47.32.63.48 1.35.48 2.16v6.59h-2.94v-5.94c0-.64-.19-1.17-.57-1.59-.38-.41-.87-.62-1.47-.62-.64 0-1.17.22-1.57.66-.41.44-.61 1-.61 1.69v5.79h-2.92V4.983ZM100.75 14.254c-.89-.99-1.33-2.31-1.33-3.98 0-1.09.2-2.05.6-2.88.4-.83.97-1.46 1.71-1.91.74-.45 1.62-.67 2.65-.67.64 0 1.22.12 1.72.35.5.23.91.54 1.22.93v-5.7h2.92v15.18h-2.92v-1.15c-.29.41-.7.73-1.22.97s-1.08.36-1.68.36c-1.55 0-2.77-.49-3.66-1.48l-.01-.02Zm6.02-1.85c.48-.54.71-1.25.71-2.13 0-.88-.24-1.61-.71-2.15-.48-.54-1.11-.81-1.89-.81-.78 0-1.39.27-1.87.81-.48.54-.71 1.26-.71 2.15 0 .89.24 1.59.71 2.13.48.54 1.1.81 1.87.81s1.41-.27 1.89-.81ZM114.1 14.944a5.091 5.091 0 0 1-1.86-2.05 5.84 5.84 0 0 1-.63-2.65c0-.93.19-1.82.58-2.65.38-.83.97-1.5 1.76-2.02s1.75-.78 2.89-.78c1.14 0 2.15.25 2.94.76.78.5 1.36 1.15 1.73 1.93.37.78.56 1.61.56 2.48 0 .32-.01.64-.04.94h-7.6c.11.76.4 1.35.85 1.77.45.43 1.05.64 1.77.64.59 0 1.07-.12 1.45-.35.38-.23.62-.57.73-1.02h2.85c-.21 1.13-.78 2.04-1.7 2.73-.92.69-2.04 1.03-3.34 1.03-1.15 0-2.13-.26-2.95-.79l.01.03Zm5.05-5.86c-.04-.62-.27-1.12-.67-1.52-.41-.4-.95-.6-1.64-.6s-1.2.17-1.6.51c-.39.34-.65.88-.78 1.61H119.15ZM126.96 8.224c-.35.53-.52 1.27-.52 2.2v5.14h-2.92V4.984h2.92v1.76c.28-.64.63-1.1 1.04-1.36.41-.26.96-.4 1.63-.4h1.18v2.44h-1.74c-.7 0-1.22.27-1.57.8h-.02Z"/><path fill="#16535E" d="M130.26 4.984h2.94l1.81 6.53 1.87-6.53h2.67l1.87 6.53 1.78-6.53h2.94l-3.44 10.58h-2.56l-1.91-6.59-1.95 6.59h-2.56l-3.44-10.58h-.02ZM150.07.394v3.09h-3.11V.394h3.11Zm-3.02 4.59h2.92v10.58h-2.92V4.984ZM149.97 17.564h.69c.39 0 .7-.14.93-.41.23-.27.35-.65.35-1.12V4.984h2.92v11.36c0 1.09-.33 1.95-1 2.57-.66.62-1.57.93-2.72.93h-1.18v-2.29l.01.01Zm5.01-17.17v3.09h-3.11V.394h3.11ZM157.48 14.723c-.81-.67-1.25-1.58-1.3-2.73h2.52c.07.48.28.85.62 1.12.34.27.78.41 1.31.41.46 0 .83-.1 1.11-.29.28-.2.42-.44.42-.73 0-.39-.17-.66-.5-.82-.34-.15-.87-.29-1.6-.42-.76-.14-1.37-.29-1.85-.46-.48-.17-.89-.47-1.23-.91-.34-.44-.51-1.07-.51-1.88 0-.62.16-1.17.49-1.65.33-.48.78-.86 1.36-1.13.58-.27 1.23-.41 1.94-.41 1.27 0 2.31.31 3.1.94.79.63 1.21 1.46 1.25 2.5h-2.52c-.06-.43-.26-.77-.6-1.02a1.94 1.94 0 0 0-1.14-.37c-.42 0-.77.09-1.02.26-.24.18-.37.43-.37.77 0 .39.16.65.49.79.33.13.85.25 1.56.35.77.11 1.4.25 1.9.41.5.16.92.47 1.28.93.36.46.54 1.13.54 2.02 0 1.01-.37 1.82-1.12 2.42-.75.61-1.75.91-2.99.91-1.24 0-2.34-.34-3.15-1.01h.01Z"/></g><defs><clipPath id="a"><path fill="#fff" d="M0 .254h188.36v19.6H0z"/></clipPath></defs></svg>