<svg xmlns="http://www.w3.org/2000/svg" width="35.411" height="33.065" viewBox="0 0 35.411 33.065"><path fill-rule="evenodd" d="M33.91 18.07H1.8v-3h32.11c.84 0 1.5.66 1.5 1.5s-.66 1.5-1.5 1.5Z"/><path fill-rule="evenodd" d="M11.77 32.47.31 17.48l2.38-1.82 11.46 14.98-2.38 1.83Zm2.35-1.83h.03c.51.67.39 1.6-.28 2.11-.67.51-1.59.38-2.1-.28v-.03l2.35-1.8ZM.34 17.48H.31a1.48 1.48 0 0 1 .28-2.1 1.48 1.48 0 0 1 2.1.28v.02l-2.35 1.8Z"/><path fill-rule="evenodd" d="M.37 15.67 11.69.6l2.4 1.8L2.77 17.47l-2.4-1.8Zm2.39 1.77.01.03c-.51.67-1.43.8-2.1.3-.67-.51-.8-1.43-.3-2.1l.03-.01 2.36 1.78ZM11.69.63V.6c.5-.67 1.43-.8 2.1-.3.67.51.8 1.43.3 2.1l-.03.01L11.69.63Z"/></svg>