<svg xmlns="http://www.w3.org/2000/svg" width="15.942" height="16.948" viewBox="0 0 15.942 16.948"><path fill-rule="evenodd" d="M6.45 15.44V.78h3v14.66c0 .84-.66 1.5-1.5 1.5s-1.5-.66-1.5-1.5Z"/><path fill-rule="evenodd" d="M.59 5.24 7.04.31l1.82 2.38-6.45 4.93L.59 5.24Zm1.83 2.35-.01.03c-.67.51-1.59.39-2.1-.28a1.48 1.48 0 0 1 .28-2.1h.03l1.8 2.35ZM7.03.34l.01-.03a1.48 1.48 0 0 1 2.1.28c.51.67.39 1.59-.28 2.1h-.03L7.03.34Z"/><path fill-rule="evenodd" d="m8.85.33 6.48 4.87-1.8 2.4-6.48-4.87 1.8-2.4Zm-1.77 2.4h-.03c-.67-.51-.8-1.43-.3-2.1.5-.67 1.43-.8 2.1-.3v.03L7.08 2.73ZM15.3 5.2h.03c.67.51.8 1.43.3 2.1-.5.67-1.43.8-2.1.3v-.03L15.3 5.2Z"/></svg>