<svg xmlns="http://www.w3.org/2000/svg" width="33.065" height="35.411" fill="none" viewBox="0 0 33.065 35.41"><path fill="currentColor" fill-rule="evenodd" d="M14.99 33.91V1.8h3v32.11c0 .84-.66 1.5-1.5 1.5s-1.5-.66-1.5-1.5Z"/><path fill="currentColor" fill-rule="evenodd" d="M.59 11.77 15.58.31l1.82 2.38L2.41 14.15.59 11.77Zm1.83 2.35-.01.03c-.67.51-1.59.39-2.1-.28a1.48 1.48 0 0 1 .28-2.1h.03l1.8 2.35ZM15.57.34l.01-.03a1.48 1.48 0 0 1 2.1.28c.51.67.39 1.59-.28 2.1h-.03L15.57.34Z"/><path fill="currentColor" fill-rule="evenodd" d="m17.39.37 15.07 11.32-1.81 2.4L15.59 2.77l1.8-2.4Zm-1.77 2.39-.03.01c-.67-.51-.81-1.43-.3-2.1.5-.67 1.43-.8 2.1-.3V.4l-1.77 2.36Zm16.81 8.93h.03c.67.5.8 1.43.29 2.1-.5.67-1.42.8-2.1.3v-.03l1.78-2.37Z"/></svg>