<svg xmlns="http://www.w3.org/2000/svg" width="33.065" height="35.411" viewBox="0 0 33.065 35.41"><path fill="currentColor" fill-rule="evenodd" d="M18.07 1.5v32.1h-3V1.5c0-.84.66-1.5 1.5-1.5s1.5.66 1.5 1.5Z"/><path fill="currentColor" fill-rule="evenodd" d="M32.47 23.64 17.48 35.09l-1.82-2.38 14.98-11.46 1.83 2.39Zm-1.83-2.36v-.03a1.5 1.5 0 0 1 2.11.28c.51.67.38 1.6-.28 2.11l-.03-.01-1.8-2.35ZM17.48 35.06v.03c-.67.51-1.59.39-2.1-.28a1.48 1.48 0 0 1 .28-2.1h.02l1.8 2.35Z"/><path fill="currentColor" fill-rule="evenodd" d="M15.67 35.03.6 23.71l1.8-2.4 15.07 11.32-1.8 2.4Zm1.77-2.39.03-.01c.67.51.8 1.43.3 2.1-.51.67-1.43.81-2.1.3l-.01-.03 1.78-2.36ZM.63 23.71H.6c-.67-.5-.8-1.43-.3-2.1.51-.67 1.43-.8 2.1-.3l.01.03-1.78 2.37Z"/></svg>