<svg xmlns="http://www.w3.org/2000/svg" width="35.411" height="33.065" viewBox="0 0 35.411 33.065"><path fill-rule="evenodd" d="M1.5 14.99h32.1v3H1.5c-.85 0-1.5-.66-1.5-1.5s.65-1.5 1.5-1.5Z"/><path fill-rule="evenodd" d="m23.64.59 11.45 14.99-2.38 1.82L21.25 2.41 23.64.59Zm-2.36 1.83-.03-.01c-.51-.67-.38-1.59.28-2.1.67-.51 1.6-.39 2.11.28l-.01.03-2.35 1.8Zm13.78 13.15.03.01c.51.66.39 1.59-.28 2.1s-1.59.39-2.1-.28v-.03l2.35-1.8Z"/><path fill-rule="evenodd" d="M35.03 17.39 23.71 32.46l-2.4-1.81 11.32-15.06 2.4 1.8Zm-2.39-1.77-.01-.03c.51-.67 1.43-.81 2.1-.3.67.5.81 1.43.3 2.1H35l-2.36-1.77Zm-8.93 16.81v.03c-.5.67-1.43.8-2.1.29-.67-.5-.8-1.42-.3-2.1h.03l2.37 1.78Z"/></svg>