<svg xmlns="http://www.w3.org/2000/svg" width="15.368" height="14.476" viewBox="0 0 15.368 14.476"><path fill-rule="evenodd" d="M1.5 5.72h12.17v3H1.5c-.84 0-1.5-.66-1.5-1.5s.66-1.5 1.5-1.5Z"/><path fill-rule="evenodd" d="m10.68.59 4.37 5.72-2.38 1.82-4.38-5.72L10.68.59ZM8.32 2.42l-.03-.01c-.51-.67-.38-1.59.29-2.1a1.48 1.48 0 0 1 2.1.28l-.01.03-2.35 1.8Zm6.7 3.88.03.01c.51.66.39 1.59-.28 2.1s-1.59.39-2.1-.28V8.1l2.35-1.8Z"/><path fill-rule="evenodd" d="m15.03 8.12-4.32 5.75-2.4-1.81 4.32-5.74 2.4 1.8Zm-2.39-1.77-.01-.03c.51-.67 1.43-.81 2.1-.3.67.5.8 1.43.3 2.1H15l-2.36-1.77Zm-1.93 7.49v.03c-.5.67-1.43.8-2.1.29-.67-.5-.8-1.42-.3-2.1h.03l2.37 1.78Z"/></svg>