<svg xmlns="http://www.w3.org/2000/svg" width="47.007" height="47.007" viewBox="0 0 47.007 47.007"><path fill="#FF9841" fill-rule="evenodd" d="M47 23.5C47 36.48 36.48 47 23.5 47S0 36.48 0 23.5 10.52 0 23.5 0 47 10.52 47 23.5Z"/><path d="M34.22 25.82v7.93h-4.6v-7.4c0-1.87-.67-3.13-2.33-3.13-1.27 0-2.03.85-2.36 1.68-.13.29-.16.7-.16 1.12v7.72h-4.6s.07-12.53 0-13.83h4.6v1.97s-.02.02-.03.04h.03v-.04c.61-.95 1.71-2.29 4.15-2.29 3.03 0 5.29 1.98 5.29 6.23h.01ZM15.37 13.25c-1.57 0-2.6 1.03-2.6 2.39 0 1.35 1 2.39 2.54 2.39h.03c1.6 0 2.6-1.07 2.6-2.39-.03-1.36-1-2.39-2.57-2.39Zm-2.33 20.5h4.6V19.91h-4.6v13.84Z"/></svg>