<svg xmlns="http://www.w3.org/2000/svg" width="308.992" height="57.586" viewBox="0 0 308.992 57.586"><path d="M2.58 22.99C8.79 16.88 15.83 11.65 23.8 8.06c6.89-3.1 14.39-4.79 21.93-5.04 15.99-.51 31.51 5.17 45.34 12.77 3.58 1.96 7.1 3.9 10.97 5.22a43.97 43.97 0 0 0 10.52 2.19c6.78.58 13.6-.52 20.12-2.37 13.65-3.86 26.34-10.64 40.32-13.44 6.46-1.3 13.17-1.74 19.69-.64 5.95 1 11.8 2.93 17.19 5.65 8.52 4.3 19.66 12.66 16.78 23.66-1.6 6.13-6.87 11.44-12.08 14.74-4.33 2.74-9.95 4.67-15.1 3.48-5.52-1.28-7.97-6.18-8.13-11.53-.17-6.07 3.13-11.15 7.91-14.66 5.02-3.68 10.98-5.92 16.93-7.58 3.41-.95 6.9-1.81 10.42-2.2 4.64-.52 9.31-.39 13.96-.09 9.39.6 18.73 1.6 28.06-.28 9.33-1.88 17.28-5.38 26.11-7.38 4.21-.96 8.48-1.5 12.8-1.26 1.93.11 1.92-2.89 0-3-9.41-.52-18.49 2.56-27.34 5.35-4.48 1.42-8.99 2.8-13.62 3.64-4.63.84-9.74.93-14.62.7-9.85-.45-19.69-1.92-29.49-.06-6.43 1.22-12.88 3.16-18.77 6.03-5.51 2.69-11 6.64-13.63 12.37-2.63 5.73-2.53 13.12 1.25 18.14 3.43 4.55 9.19 5.68 14.56 4.86 6.54-1 12.25-4.74 16.82-9.38 4.28-4.35 7.81-10.08 7.36-16.4-.39-5.52-3.52-10.32-7.44-14.04-4.56-4.33-10.16-7.46-15.95-9.84-5.79-2.38-11.74-3.92-17.88-4.4-15.09-1.19-29.43 4.67-43.23 9.95-6.69 2.56-13.48 5.05-20.56 6.33-7.08 1.28-14.28 1.06-21.14-1.1-4.02-1.26-7.61-3.24-11.29-5.26-3.68-2.02-7.76-4.04-11.78-5.76C73.12 4.16 65.12 1.7 56.84.6c-7.74-1.03-15.62-.79-23.23.99-8.13 1.89-15.79 5.53-22.59 10.35-3.77 2.67-7.28 5.68-10.58 8.92-1.38 1.36.74 3.48 2.12 2.12l.02.01Z"/></svg>