<svg xmlns="http://www.w3.org/2000/svg" width="294.849" height="56.934" viewBox="0 0 294.849 56.934"><path d="M2.83 52.68C7.39 45.4 13.5 39.19 20.84 34.7c6.94-4.24 14.78-6.9 22.83-7.99 16.16-2.19 33.08 1.71 46.87 10.34 8.81 5.52 17.64 10.99 27.35 14.84 8.54 3.39 17.63 5.28 26.84 5.01 5.04-.14 10.07-.89 14.97-2.06 3.72-.89 7.52-1.92 11.05-3.41 3.04-1.29 5.97-2.87 8.87-4.44 9.57-5.19 18.93-10.88 27.78-17.24 4.34-3.12 8.63-6.41 12.46-10.15 2.67-2.61 5.51-5.64 6.7-9.26C229.63.9 214.93-.55 209 .14c-5.93.69-11.18 3.9-14.07 9.18-2.71 4.96-3.18 10.98-1.76 16.4 1.54 5.87 5.37 11.03 10.66 14.03 3.33 1.88 7.09 2.89 10.89 3.13 5.33.34 10.59-.99 15.7-2.35 5.11-1.36 10.02-2.77 15.23-2.52 3.75.18 7.5.72 11.2 1.36 8.91 1.53 17.83 3.75 26.22 7.15 3.36 1.36 6.68 2.98 9.61 5.14 1.56 1.14 3.06-1.46 1.51-2.59-6.5-4.78-14.74-7.36-22.43-9.46-7.69-2.1-16.16-3.82-24.38-4.48-4.85-.39-9.52.37-14.21 1.57-4.99 1.27-9.97 2.91-15.15 3.19-6.96.38-14-2.01-18.38-7.63-6.23-7.99-6.01-21.87 3.57-27.25 4.76-2.67 10.87-2.44 16-1.02.97.27 1.65.51 2.33.86.32.16.62.35.92.54.21.13.29.22.18.12.14.12.29.24.42.38.1.1.2.21.3.32.23.26-.13-.24.08.11.07.12.14.24.21.35.04.06.07.13.1.2.13.25-.11-.32-.01-.03.09.25.15.5.2.77.04.23-.01-.34 0 .05v.55c0 .13-.02.25-.03.38.05-.48-.02.08-.04.18-.08.32-.17.64-.27.95-.05.16-.11.31-.18.46.15-.36-.06.14-.11.22-.18.37-.37.73-.58 1.08-.97 1.66-1.9 2.75-3.21 4.17-3.3 3.57-7.12 6.67-11 9.58-8.74 6.54-18.08 12.31-27.61 17.63-3.26 1.82-6.56 3.62-9.94 5.21-.5.23-1 .46-1.5.68.49-.21-.12.05-.26.1-.8.31-1.61.57-2.42.84-4.99 1.66-10.13 2.97-15.35 3.68-9.02 1.21-18.11.42-26.8-2.26-9.34-2.87-18-7.61-26.31-12.69-3.97-2.43-7.81-5.06-11.97-7.16a75.499 75.499 0 0 0-11.14-4.56c-7.65-2.45-15.73-3.68-23.77-3.55-16.16.26-32.08 6.28-43.42 18-2.95 3.05-5.55 6.43-7.8 10.03-1.03 1.64 1.57 3.15 2.59 1.51l.01-.01Z"/></svg>