<svg width="330.030762" height="161.978760" viewBox="0 0 330.031 161.979" fill="none" xmlns="http://www.w3.org/2000/svg" xmlns:xlink="http://www.w3.org/1999/xlink">
	<desc>
			Created with Pixso.
	</desc>
	<defs/>
	<path id="Vector" d="M12.91 123.24C23.58 118.16 35.04 117.54 46.65 118.47C58.14 119.39 70.07 121.88 81.32 118.14C88.13 115.87 85.21 105.03 78.34 107.31C66.98 111.1 54.45 107.51 42.83 107C30.34 106.45 18.61 108.14 7.26 113.54C0.75 116.64 6.42 126.33 12.92 123.24L12.91 123.24Z" fill="#A8E42E" fill-opacity="1.000000" fill-rule="nonzero"/>
	<path id="Vector" d="M48.72 158.47C55.12 154.89 65.4 151.39 65.39 142.45C65.38 129.11 48.22 131.98 39.81 132.92C34.51 133.51 29.06 134.41 24.45 137.3C19.84 140.18 17.13 146.23 21.7 150.48C25.08 153.62 32.19 154.05 36.47 154.09C43 154.14 48.86 151.24 54.62 148.5C52.36 145.56 50.09 142.62 47.83 139.69C44.69 142.63 40.29 144.12 36.25 145.35C33.38 146.23 31.49 149.26 32.34 152.25C33.71 157.09 38.66 159.54 43.07 156.59C49.04 152.6 43.44 142.87 37.41 146.89L38.63 146.66L42.59 148.31L43.15 149.27L39.23 156.17C45.17 154.36 51.16 151.93 55.76 147.62C60.66 143.03 54.45 136.2 48.97 138.81C45.69 140.38 42.27 142.24 38.61 142.77C35.85 143.17 32.72 142.6 29.99 142.08C29.73 142.03 28.61 141.61 28.41 141.71L29.9 147.14C30.09 147 30.3 146.87 30.51 146.76C31.54 146.57 32.79 145.64 33.83 145.32C37.37 144.22 41.08 144.02 44.73 143.69C47.49 143.44 50.39 142.88 53.16 143.12C54.3 143.21 55.41 143.66 54.17 142.68C53.43 142.12 55.06 142.08 54.05 142.27C53.64 142.34 52.33 143.78 51.81 144.14C50.77 144.83 49.66 145.44 48.55 146.02C46.74 146.98 44.84 147.78 43.06 148.79C36.76 152.32 42.41 162.01 48.72 158.48L48.72 158.47Z" fill="#FD9741" fill-opacity="1.000000" fill-rule="nonzero"/>
	<path id="Vector" d="M140.46 158.61C146.77 158.25 153.08 157.38 158.44 153.76C163.26 150.5 168.07 144.34 163.15 138.82C160.07 135.37 153.93 134.79 149.63 134.29C143.39 133.56 136.97 134.5 130.92 136.06C126.43 137.22 120.48 138.15 117 141.47C112.74 145.53 113.7 151.83 118.86 154.46C123.15 156.64 129.03 156.47 133.68 156.11C139.45 155.66 145.5 154.48 150.2 150.91C152.63 149.07 153.84 146.09 152.21 143.23C150.85 140.83 146.95 139.39 144.54 141.22C139.62 144.95 133 145.28 127.04 144.94C126.51 144.91 124.78 144.4 124.29 144.55C123.09 144.92 123.38 139.8 124.15 147.14C124.66 151.93 123.74 149.51 125.46 149.32C128.18 149.01 131.22 147.57 133.89 146.88C140.17 145.26 146.49 144.71 152.85 146.17C154.99 146.65 155.73 147.83 154.72 144.93C153.76 142.23 154.25 142.99 152.77 144.06C152.09 144.55 151.34 144.99 150.59 145.37C147.45 146.93 143.89 147.18 140.45 147.38C133.27 147.78 133.22 159.01 140.45 158.6L140.46 158.61Z" fill="#FD9741" fill-opacity="1.000000" fill-rule="nonzero"/>
	<path id="Vector" d="M247.04 147.09C248.04 147.46 249.05 147.64 250.08 147.87C250.64 147.99 251.2 148.12 251.75 148.28C252.12 148.43 251.95 148.33 251.23 147.98L253.24 140.3C249.1 143.41 242.31 142.59 237.39 143.37L240.37 154.19C240.93 153.99 241.5 153.85 242.09 153.74L237.77 143.49C235.04 145.07 229.96 143.77 226.95 143.55C228.27 146.74 229.59 149.94 230.91 153.13C232.8 151.55 234.14 149.65 235.74 147.81C237.16 146.18 238.79 145.1 239.54 142.97C241.05 138.67 237.84 135.68 235.26 132.77C232.53 129.68 226.75 131.23 225.89 135.24C225.42 136.56 225.58 136.65 226.35 135.51L225.68 135.9C224.98 136.09 223.95 136.69 223.31 137.02C221.56 137.92 220.02 139.11 218.79 140.66C215.45 144.89 216.22 150.03 220.88 152.83C227.08 156.55 232.73 146.85 226.54 143.13C225.94 147.74 226.4 149.11 227.91 147.25C228.27 147.09 228.63 146.91 228.97 146.71C229.96 146.16 231.05 145.82 232.01 145.2C234.56 143.58 236.07 141.14 236.7 138.23L227.33 140.71C227.67 141.11 228.67 142.47 229.1 142.62C230.61 138.52 230.67 137.12 229.25 138.43C228.88 138.72 228.55 139.03 228.23 139.37C226.37 141.29 225.05 143.47 222.97 145.21C218.93 148.59 222.54 154.48 226.94 154.79C232.43 155.19 238.42 156.09 243.42 153.19C249.06 149.92 245.19 141.61 239.1 142.93C238.52 143.04 237.94 143.19 237.38 143.38C230.32 145.53 233.37 155.31 240.36 154.21C246.5 153.24 253.63 153.97 258.9 150.01C261.53 148.02 262.26 145.39 260.91 142.32C258.86 137.71 254.07 137.77 250.02 136.28C243.23 133.78 240.31 144.63 247.04 147.1L247.04 147.09Z" fill="#FD9741" fill-opacity="1.000000" fill-rule="nonzero"/>
	<path id="Vector" d="M268.61 63.04C272.57 61.09 275.17 46.53 277.87 42.7C264.73 37.8 253.47 41.02 250.73 55.77C255.31 57.72 263.68 65.45 268.61 63.04Z" fill="#A8E42E" fill-opacity="1.000000" fill-rule="nonzero"/>
	<path id="Vector" d="M327.38 108.44C322.29 108.37 315.45 109.78 310.34 109.85C302.99 109.94 292.6 109.71 285.36 109.09C276.94 108.38 269.58 102 261.81 101.26C255.88 100.69 251.26 102.36 245.78 104.11C246.5 89.95 253.83 77.23 249.34 62.69C255.76 65.71 259.59 70.77 267.46 69.77C279.37 68.25 280.33 54.56 284.14 46.49C286.65 41.16 290.49 40.43 284.51 34.2C282.56 33.56 280.32 35.82 278.23 35.92C275.75 36.03 273.26 34.45 271.03 34.19C261.3 33.03 250.01 37.43 246.48 46.99C240.86 43.08 243.67 37.21 245.43 32.01C248.6 22.68 253.78 17.81 251.87 6.95C250.98 1.88 247.08 -2.57 242.26 1.73C244.59 9.03 244.79 15.69 241.49 22.7L239.51 15.05C236.43 9.22 229.82 11.95 224.35 10.96C219.16 10.01 214.03 4.05 211.18 4.08C209.51 4.1 204.7 8.91 204.57 10.32C204.39 12.26 209.1 16.1 210.25 18.65C212.94 24.6 210.8 31 216.9 35.56C221.48 38.98 230.74 40.67 235.79 37.71C234.35 43.69 238.05 46.5 239.99 51C241.17 53.72 242.02 68.14 242.24 72.31C242.92 85 237.65 95.89 236.47 108.36C225.64 110.55 215.4 104.48 204.68 103.5C189.27 102.08 187.23 104.4 174.26 109.25C168.31 111.47 168.68 107.55 163.66 106.02C160.83 105.16 156.8 105.09 153.8 104.83C152.56 103.71 159.54 87.77 163.12 87.27C161.7 81.45 155.3 85.26 152.72 88.4C151.36 90.04 148.5 96.57 147.73 96.98C146.78 97.47 145.55 94.05 144.56 93.03C142.33 90.72 135.21 86.42 132.06 86.41C130.87 86.41 125.99 87.74 127.04 89.13C132.78 93.68 139.89 97.14 140.98 105.19C136.35 105.18 132.66 108 128.41 109.05C119.35 111.27 103.65 102.49 92.82 101.99C86.09 101.68 80.14 104.92 73.99 106.97L67.53 107.69C54.97 107.22 45.18 100.28 32.25 101.28C23.76 101.94 10.36 108.06 3.73 113.43C1.45 115.28 -2.34 118.8 1.93 120.92C5.22 122.56 8.54 118.29 11.27 116.69C18.96 112.18 25.83 108.19 35.07 107.67C48.65 106.92 63.95 117.83 77.84 114.09C80.81 113.29 83.36 111.07 86.08 110.21C100.67 105.58 111.04 115.77 124.26 116.28C130.13 116.5 135.35 113.57 140.98 112.7L138.71 129C130.77 130.25 122.19 132.97 115.5 137.52C111.05 140.53 109.82 141.59 110.29 147.38C110.79 153.37 115.27 157.02 120.54 159.25C127.88 162.36 151.95 162.49 159.31 159.25C160.61 158.67 167.56 154.27 168.46 153.42C171.91 150.14 170.31 144.1 168.83 140.16C165.86 132.23 154.84 130.38 147.4 128.4L150.95 112.32C153.44 111.75 155.64 111.15 158.26 111.43C165.55 112.21 165.7 118.41 175.96 116.66C182.91 115.46 186.52 110.44 196.23 109.81C210.89 108.86 222.61 117.22 236.84 114.92C238.3 115.28 239.58 127.52 239.38 129.82C234.16 130.33 228.86 130.8 223.86 132.48C220.6 133.58 211.08 137.7 210.31 141.05C207.05 155.37 225.82 161.75 236.88 161.92C248.16 162.11 271.53 157.07 263.48 141.06C259.77 133.69 248.69 134.2 246.86 131.27C246.33 128.24 247.38 125.52 247.26 122.3C247.17 119.94 245 113.28 246.27 111.9C246.8 111.31 253.03 108.88 254.2 108.6C265.38 105.87 271.2 113.37 281.17 115.48C286.75 116.66 294.53 116.27 300.33 116.29C304.95 116.31 331.4 117.62 329.97 109.51C329.63 108.88 328.02 108.47 327.41 108.46L327.38 108.44ZM277.87 42.7C275.17 46.54 272.57 61.1 268.61 63.04C263.68 65.45 255.31 57.72 250.73 55.77C253.47 41.02 264.74 37.8 277.87 42.7ZM221.23 31.22C217.97 27.65 218.98 20.03 217.27 15.55C220.36 18.49 231.75 16.83 233.33 18.39C235.53 20.57 233.62 31.2 235.09 34.83C231.65 35.39 223.61 33.83 221.22 31.22L221.23 31.22ZM161.67 147.34C153.4 155.85 134.03 155.26 123.1 153.06C119.28 152.29 115.58 150.07 118.11 145.83C119.18 144.04 135.96 136.21 136.68 136.95L136.05 141.48C143.32 148.36 144.23 136.18 145.94 135.16C149.72 132.9 169.37 139.39 161.66 147.33L161.67 147.34ZM247.52 137.65C248.79 137.77 257.67 142.69 258.29 144.08C260.26 148.51 244.11 153.51 240.97 153.9C233.08 154.91 223.97 153.25 217.6 148.38C216.3 145.77 218.52 144.47 220.34 143.24C222.56 141.74 236.31 136.2 237.94 137.66C238.32 140.9 231.28 145.75 233.66 148.02C237.84 152.02 242.38 144.41 244.24 141.47C245.3 139.79 244.73 137.37 247.52 137.64L247.52 137.65Z" fill="#000000" fill-opacity="1.000000" fill-rule="nonzero"/>
	<path id="Vector" d="M233.33 18.39C231.75 16.83 220.36 18.5 217.27 15.55C218.97 20.03 217.97 27.65 221.23 31.22C223.61 33.83 231.65 35.39 235.1 34.83C233.62 31.19 235.53 20.57 233.34 18.39L233.33 18.39Z" fill="#A8E42E" fill-opacity="1.000000" fill-rule="nonzero"/>
	<path id="Vector" d="M62.08 132.42C60.84 131.36 61.07 130.05 58.67 129.04C44.14 122.91 0.75 130.74 17.64 152.28C28.35 165.93 59.5 165.02 69.27 150.46C74.17 143.17 67.27 136.89 62.08 132.41L62.08 132.42ZM60.04 147.66C53.55 154.31 41.12 156.05 32.43 153.89C18.79 150.51 17.96 141.85 31.18 136.61C39.58 133.27 47.7 131.74 56.69 133.53C60.23 139.47 66.8 140.72 60.04 147.66Z" fill="#000000" fill-opacity="1.000000" fill-rule="nonzero"/>
</svg>
