<svg xmlns="http://www.w3.org/2000/svg" width="86.248" height="75.95" fill="none" viewBox="0 0 86.248 75.95"><path fill="#000" d="m79.15 65.08.14-12.86 6.93-2.73c.45-2.7-6.39-14.91-7-18.97-1.41-9.29 5.87-21.38-7.91-19.6L66.53 0 38.65 11.08H7.15l-.14 12.85-6.94 2.78c-.83 4.04 5.34 12.66 6.02 16.93.53 3.35-.67 19.72.07 20.42 1.69.12 7.95.47 8.79 1.22 1.02.9 2.24 10.08 4.8 10.66l27.9-10.86h31.5ZM64.55 3.16c1.66.37 3.41 6.09 3.6 7.92h-22l18.4-7.92Zm-53.4 58.9 15-11.97c-6.49.09-11.14 6.66-17 8.99v-42c2.36-.63 1.69.6 2.29 1.28 3.24 3.66 7.08 8.99 11.71 10.72 2.29-2.5-11.05-12.22-11.99-15h63c-3.53 5.29-9.6 9.21-13.76 13.7-3.16 3.42-1.39 4.26 2.26 1.3 5.03-4.06 9.37-9.02 14.49-13.02l-1 45c-1.29 1.53-15.16-12.59-17.48-13.01-1.5-.27-1.77.01-1.5 1.5.57 1.32 10.53 8.56 12.48 10.53.95.96 1.91 1.29 1.51 2.98l-59.99-1.01-.02.01Zm9.53 11.05-3.53-8.03h22l-18.47 8.03Z"/><path fill="#FFF" d="M69.63 60.1c-1.94-1.97-11.91-9.21-12.48-10.54-.26-1.48 0-1.76 1.5-1.5 2.32.43 16.19 14.55 17.48 13.02l1-44.99c-5.11 3.97-9.46 8.94-14.49 13.01-3.66 2.96-5.42 2.12-2.26-1.3 4.16-4.49 10.22-8.41 13.76-13.7H11.15c.94 2.77 14.29 12.5 11.99 15-4.63-1.73-8.47-7.05-11.71-10.73-.6-.67.07-1.89-2.29-1.27v42c5.86-2.33 10.51-8.9 17-8.99l-15 11.98 59.99 1.01c.41-1.7-.55-2.02-1.51-2.98l.01-.02ZM50.2 50.66c-5.27.85-5.03-2.73-6.12-3.52-.97-.71-5.09 4.88-9.41-1.08-2.49-3.43-2.35-12.28.45-15.5 3.22-3.71 7.78-.79 11.99-2.47 2.03 2.42-.24 17.05 2.54 16.96 7.29-11.14-.64-25.56-14.74-19.71-8.33 3.45-7.24 23.71 1.19 26.28 3.46 1.06 7.49.18 11.06.44l.04 3.37c-19.14 8.92-27.48-14.04-20.94-28.77 4.12-9.29 23.28-10.54 28.1-1.3 3.31 6.35 5.55 23.72-4.15 25.28l-.01.02ZM64.55 3.16l-18.4 7.92h22c-.2-1.85-1.94-7.55-3.6-7.92ZM20.68 73.11l18.47-8.03h-22l3.53 8.03Z"/><path fill="#000" d="M54.35 25.38c-4.81-9.24-23.97-7.99-28.1 1.3-6.54 14.73 1.8 37.69 20.94 28.77l-.04-3.36c-3.57-.28-7.6.61-11.06-.45-8.43-2.58-9.51-22.83-1.19-26.28 14.1-5.85 22.02 8.57 14.74 19.7-2.78.09-.51-14.54-2.54-16.95-4.21 1.67-8.77-1.24-11.99 2.47-2.8 3.22-2.94 12.06-.45 15.5 4.32 5.95 8.44.37 9.41 1.08 1.09.79.85 4.37 6.12 3.52 9.7-1.56 7.46-18.93 4.15-25.28l.01-.02ZM41.64 44.06c-5.23 1.22-4.14-10.29-1.98-10.97 4.98-1.58 4.31 10.25 1.98 10.97Z"/><path fill="#FFF" d="M39.66 33.09c-2.16.68-3.25 12.2 1.98 10.97 2.33-.73 3-12.55-1.98-10.97Z"/></svg>