<svg width="209.300049" height="213.530029" viewBox="0 0 209.3 213.53" fill="none" xmlns="http://www.w3.org/2000/svg" xmlns:xlink="http://www.w3.org/1999/xlink">
	<desc>
			Created with Pixso.
	</desc>
	<defs/>
	<path id="Vector" d="M84.81 194.43C80.85 193.28 77.03 195.34 75.18 198.76L76.13 203.83C80.87 205.24 86.41 198.69 84.82 194.43L84.81 194.43Z" fill="#FFFFFF" fill-opacity="1.000000" fill-rule="nonzero"/>
	<path id="Vector" d="M127.53 197.73C126.63 199.8 128.3 200.54 130.07 201.19C135.39 203.15 136.89 201.39 137.77 196.15C133.53 196.19 129.86 192.35 127.53 197.73Z" fill="#FFFFFF" fill-opacity="1.000000" fill-rule="nonzero"/>
	<path id="Vector" d="M4.92 61.12C10.43 59.95 14.54 56.16 18.79 52.84L21.66 49.22C20.84 54.66 16.5 59.15 12 61.94C9.78 63.32 8.02 64.04 5.3 63.67C6.72 67.33 10.52 67.33 13.75 66.09C15.29 65.5 19.63 62.4 20.96 61.25C22.83 59.62 23.43 58.03 24.83 56.45C25.79 55.36 27.38 59.35 27.43 60.07C27.65 63.33 21.05 70.67 18.53 72.8C17.58 73.61 16.46 74 15.56 74.63C15.13 74.92 14.66 74.55 14.92 75.7C21.43 79.06 28.06 70.79 30.83 65.59C31.38 65.2 33.32 66.97 33.18 67.68C30.2 70.51 27.85 76.74 23.12 76.18C22.86 77.47 23.4 76.89 24.08 77.38C23.43 79.14 17.57 80.72 18.51 82.45C20.83 86.72 29.62 78.92 31.83 77.43C32.67 76.85 33.88 76.85 34.91 76.19C36 75.49 38.14 73.11 38.54 71.85L41.37 73.61L35.87 88.71C34.7 89.91 32.9 89.02 31.68 89.31C30.47 89.59 23.76 95.83 22.12 97.12C20.27 98.58 11.73 104.02 11.55 105.84C11.46 106.69 12.07 108 12.43 108.8C15.05 114.6 18.49 120.25 21.15 126.04C18.74 133.36 16.62 141.4 16.36 149.16C16.02 159.16 21.09 168.32 30.38 172.36C29.1 179.45 14.87 199.02 15.88 205.04C16.77 210.28 31.77 214.63 36.14 213.28C38.62 212.52 41.08 206.87 40.61 204.44C40.09 201.74 35.1 198.03 32.5 197.6C30.17 197.21 27 197.88 24.56 197.6L36.18 174.06C45.92 174.9 55.36 176.78 65.01 173.99L66.69 185.57L71.09 205.27C74.41 210.06 82.72 208.86 86.53 205.14C89.45 202.28 91.63 198.77 89.78 194.76C86.95 188.63 78.62 189.05 73.69 192.3C73.03 191.82 70.82 177.85 70.76 176.17C70.75 175.33 70.61 174.4 71.29 173.76C77.46 169.61 84.85 167.02 88.34 159.98C92.23 152.13 89.24 146.77 87.41 139.32C85.85 132.91 84.51 126.43 82.85 120.05C84.92 119.87 86.87 119 88.91 118.65C91.76 118.16 97.61 119.24 97.79 115.23C100.99 116.45 103.63 114.59 105.27 111.86C108.37 114.54 110.5 113.96 114.17 113.07C115.16 112.83 116.6 111.86 117.3 111.88C118.23 111.91 118.96 113.21 120.2 113.29C121.04 113.35 122.05 112.81 123.05 112.8C127.95 112.75 132.87 112.89 137.75 112.82C136.2 124.36 130.39 136.6 130.05 148.24C129.77 157.59 136.7 166.93 146.42 167.26L139.64 191.78C133.35 192.74 129.19 187.47 124.03 193.27C117.29 200.84 128.2 205.58 134.67 206.23C139.14 206.68 140.97 204.59 142.59 200.75C146.86 190.64 148.61 178.33 151.78 167.78L179.14 166.34L183.52 189.89C180.07 187.5 169.91 188.19 167.69 191.64C165.46 195.12 166.44 201.42 170.65 203C172.85 203.83 180.61 203.27 183.23 202.84C184.41 202.65 190.48 200.9 191.1 200.36C192.72 198.96 189.54 191.51 189.05 189.4C187.24 181.56 185.97 173.53 184.52 165.61C184.62 165.17 184.91 165.05 185.29 164.91C187.73 164.01 190.44 164.09 193.25 162.75C195.73 161.57 198.95 159.26 199.37 156.34C200.69 146.96 195.46 140.56 192.65 132.31C190.8 126.88 189.86 120.99 187.37 115.68C190.45 115.72 191.49 112.13 193.16 110.14C194.5 108.54 199.51 103.76 199.42 101.98C199.36 100.74 194.52 95.25 193.4 93.98C189.34 89.39 183.25 84.4 179.64 79.78C179.26 79.3 179.23 78.68 179.13 78.11L175.39 78.02L172.91 70.63C174.43 68.83 176.18 72.44 177.87 73.37C182.46 75.88 192.02 75.74 195.33 71.35C195.74 70.99 195.07 70.53 194.76 70.45C190.98 69.39 184.59 72.87 180.78 69.26C179.96 68.48 178.07 65.26 178.75 64.18C180.92 62.84 181.67 65.37 183.34 66.45C190 70.74 197.88 65 200.47 58.68C202.12 54.66 202.54 54.37 204.61 50.77C206.82 46.92 209.07 42.6 209.3 38.1L208.09 37.62L202.29 47.73L201.05 46.25C199.18 45.98 196.82 50.57 193.84 45.35C189.3 37.38 193.53 26.1 185.68 17.38C184.74 16.34 182.15 14.86 182.02 14.66C181.48 13.78 181.56 11.67 181.13 10.37C177.73 0.03 160.38 1.63 152.1 3.56C147.72 4.58 145.06 8.25 143.66 8.64C142.5 8.96 141.58 8.25 140.5 8.33C135.64 8.7 127.34 17.57 130.02 22.37C130.39 23.05 131.45 22.39 131.49 22.93C124.16 39.75 127.03 66.47 146.89 72.8C145.03 84.69 143.27 96.6 139.19 107.96L122.81 107.96C124.6 105.31 121.5 100.6 118.75 101.24C117.3 101.58 118.48 103.61 118.36 104.29C118.09 105.87 110.88 109.83 108.84 109.4L116.51 105.01C116.33 103.75 116.36 102.77 116.56 101.5C117.43 96.11 120.12 87.25 119.93 82.21C119.86 80.25 118.98 78.16 117.2 77.19C114.98 75.98 109.16 75.91 107.99 75.08C107.52 74.75 106.55 71.39 106.53 70.62C106.41 65.58 110.83 59.39 110.81 53.75C110.81 51.07 108.78 48.26 107.88 45.8C110.96 46.51 113.82 47.83 116.56 45.57C121.19 41.75 116.87 37.37 120.87 33.51C118.04 30.93 117.15 34.49 115.62 34.99C113.7 35.62 110.48 35.21 108.36 36.16C108.96 32.2 111.13 21.79 104.99 22.19C105.43 25.31 106.25 27.84 105.95 31.1C105.39 37.08 100.99 40.81 104.09 47.43C104.79 48.93 106.63 50.41 106.9 51.85C107.09 52.87 107 57.78 106.43 58.33L102.94 54.84C101.14 54.17 98.53 54.56 96.83 53.73C95.01 52.85 94.39 48.7 91.52 51.35C95.09 57.12 93.91 65.88 103.55 64.61C101.27 68.37 102.13 71.84 103.55 75.68C100.13 75.43 96.68 76.3 94.38 78.86L98.73 100.73C90.53 97.72 90.61 108.67 93.9 113.26L81.6 115.06C75.37 101.53 71.87 86.9 70.98 72.05C75.03 68.27 80.33 63.07 82.91 58.19C86.84 50.79 88.18 39.95 87.12 31.66C86.84 29.51 84.27 24.12 84.3 23.41C84.32 22.83 85.12 21.93 85.28 20.56C86.05 13.48 82.33 8.44 76.09 5.59C71.71 3.59 68.39 4.94 64.54 7.28C64.47 5.65 61.89 3.56 60.54 2.84C37.37 -9.4 26.47 20.86 20.23 37.4C16.5 47.28 17.82 48.28 8.63 55.2C5.95 57.22 2.98 59.02 0 60.54C1.51 61.8 3.12 61.51 4.92 61.13L4.92 61.12ZM35.09 202.49C35.56 204.94 34.37 207.33 32.91 209.19C28.87 208.58 24.89 208.2 21.66 205.45L22.5 202.4C26.79 202.42 30.99 200.04 35.1 202.5L35.09 202.49ZM84.81 194.43C86.41 198.69 80.87 205.24 76.12 203.83L75.17 198.76C77.03 195.34 80.84 193.28 84.8 194.43L84.81 194.43ZM130.08 201.2C128.31 200.55 126.64 199.8 127.54 197.74C129.87 192.36 133.53 196.2 137.78 196.16C136.91 201.4 135.39 203.16 130.08 201.2ZM186.91 42.95L189.12 47.25C191.53 51.26 195.06 52.32 199.44 50.91C198.13 52.82 193.72 58 191.46 57.86C189.47 57.29 186.91 53.17 186.91 51.38L186.91 42.95ZM183.93 23.58L185.6 30.38L184.99 30.53L183.32 23.73L183.93 23.58ZM187.87 61.02C189.79 61.88 191.59 61.81 193.65 61.74L190.4 64.04C186.72 65.02 183.8 60.49 183.06 57.41C185.16 57.92 185.86 60.12 187.87 61.02ZM185.33 195.31C187.5 197.56 184.03 198.51 182.11 198.83C180.26 199.13 175.4 199.67 173.65 199.56C170.53 199.38 171.27 196.54 172.51 194.52C173.79 192.44 178.19 192.45 180.29 192.89C180.72 192.98 185.14 195.11 185.33 195.31ZM193.57 100.99L186.19 109.9L178.25 84.86L193.58 100.99L193.57 100.99ZM176.37 57.47L175.69 53.57L176.33 53.46L177.01 57.36L176.37 57.47ZM178.96 29.94C180.02 33.57 181.08 43.3 180.52 46.93C180.46 47.35 180.31 48.38 179.68 48.25C178.78 46.02 177.62 43.86 177.03 41.5C176.59 39.74 175.82 36.17 175.82 34.52C175.82 31.71 176.01 28.61 175.82 25.85C175.79 25.39 175 24.5 175.34 23.68C175.83 23.03 178.74 29.22 178.95 29.94L178.96 29.94ZM154.03 7.42C159.23 6.25 167.27 5.37 172.23 7.27C176.39 8.87 176.09 12.53 176.3 16.45C174.08 14.98 171.19 12.25 168.94 11.05C167.68 10.38 161.44 8.74 160.17 8.74L151.74 8.74C152 7.8 153.23 7.6 154.03 7.42ZM167.64 18.37L164.27 15.97C166.25 15.54 166.81 16.94 167.64 18.37ZM138.83 22.08C140.72 19.26 145.87 15.25 149.21 14.63C154.75 13.6 162.67 18.74 165.1 23.57C170.8 34.91 167.79 51.77 172.36 63.84C169.27 67.92 161.75 70.37 156.82 70.3C133.62 69.96 128.14 38.05 138.85 22.07L138.83 22.08ZM145.96 109.19C148.1 106.3 153.36 100.94 156.06 98.1C159.36 94.63 163.23 91.59 166.22 87.97C166.36 86.61 163.73 84.56 162.36 85.1C161.44 85.47 154.63 91.43 153.42 92.57C151.72 94.2 150.41 96.55 148.37 97.87L152.22 74.75C156.03 74.68 160.16 74.97 163.89 74.14C165.36 73.81 166.84 72.45 168.55 72.87C171.17 80.23 172.91 87.89 175.21 95.36C179.03 107.76 182.97 121.17 187.37 133.3C188.94 137.63 191.64 141.8 192.8 146.17C195.51 156.39 192.45 159.17 182.74 160.93C173.42 162.62 156.64 163.76 147.16 162.91C133.07 161.65 135.94 147.22 138 137.38C139.09 132.18 143.53 112.47 145.95 109.2L145.96 109.19ZM116.57 36.69C118.68 43.73 113.87 47.57 107.49 43.84C107.37 37.77 111.41 36.66 116.57 36.69ZM103.85 106.09L102.13 103.17L106.94 103.65C107.67 104.23 104.51 106.27 103.85 106.09ZM113.59 100.18C110.98 101.44 104.22 101.59 102.13 99.55C101.31 98.75 98.75 85.43 99.24 84.86C104.69 85.85 110.95 85.83 116.09 83.9L113.59 100.18ZM101.88 63.21C97.38 63.51 96.27 58.43 95.38 54.99L102.4 56.41C104.17 58.87 106.65 62.89 101.89 63.21L101.88 63.21ZM97.79 79.08C100.38 78.42 104.49 77.04 106.66 79.11C107.21 79.63 107.79 81.29 107.98 81.4C108.41 81.65 109.03 81.55 109.47 81.4C111.97 80.54 109.26 78.64 109.82 78.12L116.56 79.09C115.99 80.02 114.73 81.43 113.7 81.76C111.16 82.56 104.39 82.33 101.72 81.65C101.07 81.49 97.28 79.74 97.78 79.09L97.79 79.08ZM97.31 103.65C101.18 105.11 102.84 111.61 97.27 111.15C96.21 110.39 97 105.12 97.31 103.65ZM36.61 64.14C31.51 60.17 35.24 57.78 37.17 53.38C38.59 50.18 39.67 46.88 40.88 43.6C41.12 42.99 41 42.12 41.9 41.97C40.7 49.49 39.29 57 36.61 64.13L36.61 64.14ZM17.41 107.81L32.28 95.45L23.13 120.02L17.41 107.81ZM75.9 116.68L71.85 117.55C70.8 115.14 69.34 112.87 67.84 110.72C64.25 105.57 58.43 96.76 54.22 92.55C52.8 91.14 50.73 89.84 48.65 90.16C48.65 90.7 48.58 91.27 48.67 91.82C48.9 93.05 60.68 108.09 62.54 110.73C64.82 114 68.63 122.45 72.55 122.91C74.49 123.14 75.73 121.99 77.54 121.97C78.84 127.08 79.91 132.25 81.16 137.38C83.46 146.82 87.78 154.52 79.24 162.91C78.5 163.63 70.53 168.97 69.98 169.09C69.12 169.26 67.92 168.6 66.75 168.68C63.18 168.94 59.29 170.7 55.58 171.04C50.53 171.51 36.74 170.03 32.02 168.23C26.96 166.3 22.71 159.15 22.23 153.94C20.64 137.06 34.68 107.7 41.17 91.6C42.2 89.07 45.86 77.17 46.97 76.19C48.15 75.14 53.46 76.32 55.63 76.19C58.85 75.99 62.32 74.7 65.51 74.27L67.66 90.67L75.9 116.69L75.9 116.68ZM78.54 12.34C79.5 13.57 79.55 15.43 79.49 16.93L71.54 9.71C71.78 7.02 77.82 11.42 78.55 12.34L78.54 12.34ZM64.98 10.9C65.62 10.7 65.87 11.08 66.29 11.33C82.62 20.95 84.92 35.98 78.64 53.43C73.99 66.39 60.3 74.46 46.62 70.74C45.52 70.44 41.41 68.86 41.39 67.77C43.22 61.07 45.54 54.78 46.6 47.86C47.23 43.74 47.17 39.56 47.71 35.48C49 25.45 55.08 14.44 64.99 10.9L64.98 10.9ZM51.03 10.91C52.1 9.86 54.48 10.23 55.87 10.19L46.73 20.3C46.86 16.89 49.37 15.04 50.75 12.6C50.97 12.21 50.43 11.49 51.03 10.92L51.03 10.91ZM60.7 5.37C61.09 7.32 57.67 5.55 56.55 5.42C52.4 4.93 48.36 5.25 44.32 6.33C49.46 0.8 54.65 3.41 60.7 5.38L60.7 5.37ZM38.75 23.64C39.18 21.9 40.64 18.67 41.9 17.41C38.56 28.53 37.33 40.37 32.36 50.98C31.87 52 31.4 53.48 30.36 54.03L29.43 51.37C33.28 49.84 34.28 44.9 35.04 41.14C36.23 35.24 37.28 29.47 38.75 23.66L38.75 23.64ZM30.98 37.07C31.14 36.56 31.08 35.61 31.79 35.73C31.71 40.32 30.74 44.86 29.37 49.21L28.54 45.72C29.45 42.88 30.02 39.89 30.98 37.07Z" fill="#000000" fill-opacity="1.000000" fill-rule="nonzero"/>
	<path id="Vector" d="M65.51 74.26C62.31 74.68 58.85 75.98 55.62 76.18C53.45 76.32 48.14 75.14 46.96 76.18C45.85 77.16 42.18 89.06 41.16 91.59C34.68 107.69 20.63 137.05 22.22 153.93C22.71 159.15 26.96 166.3 32 168.22C36.73 170.02 50.52 171.49 55.57 171.03C59.27 170.69 63.17 168.93 66.74 168.67C67.92 168.58 69.12 169.25 69.97 169.08C70.51 168.97 78.49 163.63 79.23 162.9C87.77 154.52 83.45 146.82 81.15 137.37C79.91 132.24 78.84 127.07 77.53 121.96C75.72 121.98 74.48 123.13 72.54 122.9C68.62 122.44 64.81 113.99 62.53 110.72C60.67 108.08 48.9 93.05 48.66 91.81C48.57 91.27 48.64 90.7 48.64 90.15C50.72 89.83 52.79 91.13 54.21 92.54C58.43 96.75 64.24 105.56 67.83 110.71C69.33 112.86 70.79 115.12 71.84 117.54L75.89 116.67L67.65 90.65L65.51 74.25L65.51 74.26Z" fill="#A8E42E" fill-opacity="1.000000" fill-rule="nonzero"/>
	<path id="Vector" d="M99.24 84.86C98.75 85.43 101.31 98.75 102.13 99.55C104.22 101.59 110.98 101.43 113.59 100.18L116.09 83.9C110.95 85.83 104.69 85.85 99.24 84.86Z" fill="#FFFFFF" fill-opacity="1.000000" fill-rule="nonzero"/>
	<path id="Vector" d="M21.65 205.45C24.89 208.2 28.87 208.58 32.9 209.19C34.37 207.33 35.56 204.94 35.08 202.49C30.97 200.04 26.77 202.42 22.48 202.39L21.64 205.44L21.65 205.45Z" fill="#FFFFFF" fill-opacity="1.000000" fill-rule="nonzero"/>
	<path id="Vector" d="M107.49 43.84C107.37 37.77 111.41 36.66 116.57 36.69C118.68 43.73 113.88 47.57 107.49 43.84Z" fill="#A8E42E" fill-opacity="1.000000" fill-rule="nonzero"/>
	<path id="Vector" d="M102.39 56.42L95.37 55C96.26 58.44 97.38 63.52 101.87 63.22C106.63 62.9 104.15 58.89 102.38 56.42L102.39 56.42Z" fill="#A8E42E" fill-opacity="1.000000" fill-rule="nonzero"/>
	<path id="Vector" d="M113.71 81.75C114.74 81.42 116 80.01 116.57 79.08L109.83 78.11C109.27 78.62 111.98 80.53 109.48 81.39C109.03 81.54 108.41 81.65 107.99 81.39C107.8 81.28 107.22 79.62 106.67 79.1C104.49 77.04 100.39 78.42 97.8 79.07C97.3 79.71 101.09 81.46 101.74 81.63C104.41 82.31 111.18 82.54 113.72 81.74L113.71 81.75Z" fill="#FFFFFF" fill-opacity="1.000000" fill-rule="nonzero"/>
	<path id="Vector" d="M97.31 103.65C101.18 105.11 102.84 111.61 97.27 111.15C96.21 110.39 97 105.12 97.31 103.65Z" fill="#FFFFFF" fill-opacity="1.000000" fill-rule="nonzero"/>
	<path id="Vector" d="M102.13 103.17L103.85 106.09C104.51 106.27 107.68 104.23 106.94 103.65L102.13 103.17Z" fill="#FFFFFF" fill-opacity="1.000000" fill-rule="nonzero"/>
	<path id="Vector" d="M52.09 44.82C50.55 45.33 52.09 48.95 52.5 50.05C55.33 57.56 60.49 62.89 68.31 57.2C69.51 56.33 75.57 50.8 75.65 49.82C75.85 47.84 73.66 46.61 71.84 47.24C71.1 47.49 70.91 48.59 70.32 49.09C68.92 50.26 63.11 55.16 61.75 54.81C57.96 52.94 57.34 43.1 52.09 44.82Z" fill="#000000" fill-opacity="1.000000" fill-rule="nonzero"/>
	<path id="Vector" d="M62.88 37.31C63.26 36.19 63.32 31.05 63.09 29.83C62.75 28.01 60.54 27.7 59.07 28.2C57.34 28.79 57.38 36.82 58.42 38.11C59.65 39.64 62.26 39.19 62.88 37.32L62.88 37.31Z" fill="#000000" fill-opacity="1.000000" fill-rule="nonzero"/>
	<path id="Vector" d="M72.04 30.03C66.92 25.49 66.88 37.32 67.96 40.12C73.34 42.25 73.83 31.62 72.04 30.03Z" fill="#000000" fill-opacity="1.000000" fill-rule="nonzero"/>
	<path id="Vector" d="M147.17 162.9C156.64 163.75 173.43 162.61 182.75 160.92C192.46 159.16 195.52 156.38 192.81 146.16C191.65 141.79 188.95 137.62 187.38 133.29C182.98 121.16 179.04 107.74 175.22 95.35C172.92 87.89 171.18 80.23 168.56 72.86C166.85 72.44 165.37 73.81 163.9 74.13C160.17 74.96 156.03 74.67 152.23 74.74L148.38 97.86C150.42 96.55 151.73 94.19 153.44 92.56C154.64 91.42 161.44 85.45 162.37 85.09C163.74 84.55 166.37 86.61 166.23 87.96C163.25 91.58 159.37 94.62 156.07 98.09C153.36 100.94 148.11 106.29 145.97 109.18C143.56 112.44 139.1 132.15 138.02 137.36C135.96 147.2 133.1 161.63 147.17 162.89L147.17 162.9Z" fill="#A8E42E" fill-opacity="1.000000" fill-rule="nonzero"/>
	<path id="Vector" d="M172.51 194.52C171.27 196.54 170.53 199.38 173.65 199.56C175.41 199.66 180.26 199.13 182.11 198.83C184.03 198.52 187.5 197.56 185.33 195.31C185.14 195.11 180.72 192.98 180.29 192.89C178.19 192.46 173.78 192.45 172.51 194.52Z" fill="#FFFFFF" fill-opacity="1.000000" fill-rule="nonzero"/>
	<path id="Vector" d="M165 46.38C161.21 44.59 161.64 47.82 160.6 49.08C160.31 49.43 159.32 49.51 158.82 49.94C156.64 51.82 154.3 53.78 151.19 53.93C148.23 54.07 145.1 47.53 140.84 48.81C137.92 49.68 141.06 52.47 142.17 53.55C146.17 57.44 148.74 59.43 154.58 58.23C160.53 57 165.2 52.75 165 46.37L165 46.38Z" fill="#000000" fill-opacity="1.000000" fill-rule="nonzero"/>
	<path id="Vector" d="M157.24 40.68C158.11 38.79 159.13 32.67 157.72 31.28C156.53 30.12 153.24 29.95 152.63 31.98C151.72 34.97 152.06 43.65 157.24 40.68Z" fill="#000000" fill-opacity="1.000000" fill-rule="nonzero"/>
	<path id="Vector" d="M146.46 41.23C148.13 40.66 149.28 29.13 143.25 30.75C141.14 31.32 141.8 37.88 142.55 39.47C143.17 40.79 145.06 41.71 146.46 41.23Z" fill="#000000" fill-opacity="1.000000" fill-rule="nonzero"/>
</svg>
