<svg xmlns="http://www.w3.org/2000/svg" width="399.854" height="792.021" fill="none" viewBox="0 0 399.854 792.021"><path fill="#A8E42E" d="M48.3 761.05c7.04-1.8 14.48-3.15 20.7-7.14 1.28-.82 1.54-3 0-3.75-3.45-1.68-7.27-1.74-11.02-1.49-1.81.12-3.61.31-5.41.39-2.04.08-4.07.03-6.11.08-4.42.08-8.82-.06-13.24-.09s-8.88.36-13.31.73c-4.93.41-9.86.81-14.81.67-2.79-.08-2.79 4.25 0 4.33 8.56.25 17.05-1.15 25.6-1.37 4.34-.11 8.69.18 13.04.11 3.93-.06 7.88 0 11.81-.32 3.61-.29 7.87-.94 11.27.72v-3.75c-5.9 3.78-12.99 5-19.67 6.71-2.7.69-1.56 4.88 1.15 4.18v-.01ZM127.85 785.1c4.49 1.58 9.58 1.19 14.25 1.04 2.47-.08 4.92-.01 7.39-.05 3.04-.04 6.06-.26 9.08-.49 12.24-.91 24.52-.74 36.78-1.18 6.86-.25 13.71-.6 20.58-.6 2.8 0 2.8-4.34 0-4.34-6 0-11.99.22-17.99.5-6 .27-12.35.33-18.53.43-6.18.1-12.25.23-18.37.68-2.88.2-5.76.45-8.63.58-2.69.12-5.38.03-8.06.08-5.01.08-10.52.86-15.35-.84-1.1-.39-2.37.45-2.67 1.52-.32 1.2.41 2.28 1.52 2.67ZM279.85 779.73c15.26 0 30.5.42 45.76.23 15.23-.19 30.39-1.45 45.59-2.43 8.53-.55 17.07-.97 25.63-.98 2.79 0 2.79-4.34 0-4.34-15.22.01-30.37 1.34-45.53 2.35-15.21 1.02-30.42 1.18-45.66 1.05-8.6-.08-17.2-.22-25.79-.22-2.79 0-2.79 4.33 0 4.33v.01Z"/><path fill="#A8E42E" d="M268.07 780.18c.23.03.95.15.1 0 .3.06.6.09.9.14a104.332 104.332 0 0 1 8.98 1.91c2.38.62 4.75 1.32 7.05 2.21.83.32 1.51.61 2.62 1.19.4.22.8.45 1.19.7.19.12.37.25.56.38.1.07.3.27-.1-.07.1.08.22.17.31.26.16.14.31.29.46.44.06.05.11.13.16.18.26.24-.16-.41-.06-.07.03.13.19.36.26.47-.26-.39-.06-.29-.04.05-.03-.43 0-.39-.04-.04.03-.31.08-.38-.04.02-.07.22.32-.45.07-.17-.07.07-.1.17-.15.25-.35.54.21-.21-.18.24-1.88 2.05 1.17 5.12 3.06 3.07 1.56-1.7 2.09-3.93.86-5.99-1.11-1.84-3.19-3.04-5.09-3.94-4.8-2.28-10.07-3.58-15.25-4.63-1.85-.38-3.74-.76-5.63-.94-1.17-.11-2.17 1.07-2.17 2.17 0 1.26 1 2.05 2.17 2.17ZM135.2 504.38c.04 8.56.95 16.81 3.36 25.04 2.41 8.22 2.06 16.29 4.3 24.31 1.56 5.56 4.02 10.79 6.72 15.88 1.8 3.4 4.13 9.47 7.88 11.17 4.25 1.95 9.32 1.22 11.85-3.11 2.18-3.73 1.17-9.91-3.11-11.86 3.36 1.52 3.16 3.79 1.77 1.25-.36-.67-.76-1.31-1.13-1.97-1-1.76-1.95-3.56-2.89-5.35-2.28-4.34-4.06-8.75-5.12-13.58-1.51-6.87-1.35-13.79-3.35-20.63-2.1-7.15-2.94-13.71-2.96-21.17-.05-11.16-17.38-11.18-17.34 0l.02.02Z"/><path fill="#000" d="M386.95 772.09c-30.81 2.52-62.33.94-93.28 1.95-13.11.42-26.23 1.78-39.31 2.46-3.95.21-8.07-.55-11.91.47l1.29 2.35c14.36.54 29.67.3 42.81 6.76.65.32 1.35-.31 1.07 1.09-14.28.12-28.29-.38-42.52-.01-6.47.16-13.45.03-19.9.5-.72.05-1.41-.37-1.2.72.63 1.21.77 1.57 2.15 1.74 6.11.76 12.87-.4 18.96-.53 7.82-.17 15.59.05 23.31.04 7.3 0 14.59-.04 21.88-.03 1.72-.32 1.31-1.38.66-2.6-1.52-2.88-10.1-5.77-13.32-6.6l-12.35-2.46c8.84-.41 17.65-.68 26.49-.96 26.68-.84 54.09.09 80.64-1.45 9.18-.54 18.41-1.69 27.43-3.43l-.49-1.94c-3.94 1.14-8.28 1.6-12.39 1.94l-.02-.01ZM96.48 763.33c-6.31-5.93-32.44-2.34-41.28-2.4-.57 0-1.83.34-1.71-.49 5.52-1.89 12.44-3.29 17.58-5.99 5.32-2.78 2.74-5.88-1.95-7-9.9-2.4-20.9-.77-30.92-.62-8.71.13-18.09-.41-26.68.53-3.82.41-7.62 1.58-11.46 1.9-.09 1.14-.31 2.82 1.19 2.91 5.3-.9 10.64-2.17 16.02-2.46 13.33-.74 37.37-1.94 49.92.15.54.09 4.88.68 3.78 1.81-6.12 1.93-12.06 4.57-18.24 6.3-1.77.5-9.18 1.63-9.95 2.21-.97.73-.58 2.88.5 3.41 1.13.56 8.59.32 10.47.26 11.71-.34 23.12-2.01 34.87-.42 3.06.42 6.1 1.07 9.07 1.86.15-.89-.63-1.42-1.2-1.95l-.01-.01Z"/><path fill="#000" d="M240.37 783.89c-1.28-1.38-11.33-2.76-13.72-3.04-29.5-3.5-58.45-2.53-87.93-.49-4.14.28-10.13-.26-14.08.5-.82.16-1.2.62-1.7 1.21 3.73 1.75 8.28 1.34 12.4 1.23 9.34-.25 18.79-1.62 28.12-1.96 19.54-.72 40.29-.05 59.78 1.94 5.84.6 11.9 1.18 17.48 2.92.63-.4 0-1.91-.36-2.31h.01Z"/><path fill="#FFF" d="M247.78 747.79c2 .55 1.9-1.52 3.9-.98-.43-1.35-.25-3.83-1.81-4.29-2.67-.8-4.32 3.19-6.93 1.86-1.41 1.45 6.15 9.7 4.85 3.4l-.01.01ZM251.18 688.47l-1.93-3.88c-.18 1.57.47 3.18 1.93 3.88Z"/><path fill="#000" d="M125.49 757.1c3.56-8.81 3.21-19.03 4.48-28.4.66-3.17-.45-8.6 2.8-10.46 25.91-.69 11.53.65 17.86 28.91-.14 9.51 12.7 14.58 18.01 5.98 2.81-5.21-1.47-11.15-7.61-10.19-1.99-.29-5.89 3.88-6.1.58-.18-6.6-2.07-19.22-1.42-24.82 3.47-1.74 7.22-2.39 11.12-4.64 2.86-1.78 8.76-2.75 9.69-6.01-3.25-10.78-6.08-21.97-8.93-32.93-2.58-6.65-6.16-14.63-1.18-21.09 2.35-1.87 9.53 4.07 10.21-5.03-1.22-.99-2.94 2.8-4.62 2.36-3.78-1.14-3.02-7.29-1.33-10.2 1.74-7.78 5.2-2.22 6.89-5.06-8.95-4.87-.59-14.86-.22-22.27 2.17-12.47 1.77-23.22 13.73-28.81 7.73 2.93 3.61 18.83 5.91 25.95 2.84 11.36 2.16 19.79-2.77 30.27-1.67 5.56-3.84 7.89-7.58 11.27-.81 1.96 3.44 2.42 4.97 1.69 5.08-2.66 7.14-11.93 9.37-16.36 1.69 5.49-8.59 25.04-13.81 27.41-1.69 1.18-1.41 2.53.43 2.58 8.66-1.13 11.85-11.63 15.52-18.39 1.64-2.42 1.89 1.49.91 3.68-.75 1.98-2.27 3.71-3.35 5.41-1.39 1.69-1.17 5.77 1.45 4.28 1.62-1.08 2.74-4.26 3.98-5.28 1.92-1.36 2.59 1.99 3.86 3.98 2 3.33 4.68 5.78 3.3 9.67-2.61 10.67-6.62 20.99-7.87 31.92-1.84 10.22 12.74 10.25 12.3 15.51-.26 5.16.07 15.47-.56 20.93-.79 2.9-5.42 3.01-7.91 4.05-3.75 1.57-5.98 5.31-2.7 7.84 21.8 16.43 12.56-21.8 14.83-32.39 1.62-3.49 6.08-1.5 9.2-1.55 3.08.82 8.65-1.13 10.38 1.45 2.91 9.49-1.23 20.01 1.98 29.41 1.95 5.71 10.88 6.89 14.56 2.37 2.33-3.47.36-9.44-3.83-10.54-2.2-1.15-5.66 1.29-7.22.21-1.76-4.62-.4-10.44-1.04-15.37-.02-2.89-1-6.27.3-9 2.39-3.37 7.78-3.24 10.37-6.51 3.08-4.07.62-10.08 4.98-13.78.69-4-6.12-8.69-2.81-13.96 19.87-25.96 1.95-10.43-11.51-25.79 1.07-.85 2.57 2.1 3.79 2.45 2.55 2.64 17.65-.62 14.84-3.37-15.83-2.08-5.36-23.26-10.31-33.49-3.51-9.84-13.62-19.73-24.73-19.23-10.75 5.35-9.65-1.81-19.4 1.97-6.14.6-9.91 13.44-10.61 6.26-.75-5.88-.68-11.97-.76-17.9.42-3.73 5.03-2.33 7.62-2.97 3.28-.53 6.38-1.93 6.9-4.97.9-5.81 17.19-1.95 21.95-9.06 6.56-22.03 4.79-46.25 8.56-68.9 5.65-8.95 5.8-5.44 5.37-17.17 1.05-11.82.64-13.25-7-22.68-21.26-13.16-56.64 1.41-54.31-10.74-2.62-14.67 5.48-28.52 8-42.64 2.8-15.59 4.15-34.24-3.17-48.95-6.08-10.01 14.68 11.04 33.44-14.38 3.7-7.45 1.52-16.3 6.6-23.16 1.44-2.07 3.63-7.15-.73-6.06-2.97 1.76-5.2 5.24-8.68 6.4-12.25 3.28-28.56-2.06-37.16 10.44-.75.82-1.44 1.03-2.1.42-6.43-9.74-4.1-23.13.27-33.37 5.86-19.35 12.73-38.68 11.32-59.19-3.49-16.24-21.91-29.5-15.7-47.52 1.93-4.13 2.11-14.7 8.13-6.66 4.46 8.99 62.2.47 43.33-7.4-3.59-1.49-6.4-4.37-9.95-6.13-4.41-2.06-5.32-6.91-10.07-8.69-13.57-7.85-16.82 1.7-17.01-9.59-.28-.72-.11-.67.81-1.45 4.37-12.56 7.14-26.55 6.76-40.06-.1-15.08-1.41-30.37-.54-45.42 1.14-4.93-3.53-17.75 5.46-11.17 36.84 16.54 29.1-1.93 53.31-13.89-.93-1.57-5.57-2.49-7.6-2.43-16.57 2.94-24.82-19.08-45.23-8.92-1.04.43-1.33-1.11-.49-1.5 4.46-1.25 7.31-8.4 5.81-12.63.07-7.54 3.76-3.91 1.45-13.26-.19-2.3.26-4.99-.3-7.38-.5-1.97-3.7-2.29-3.96.02 2.96 21.5-14.19 39.66-15.12 61.35-1.55 12.25 1.16 24.25.66 36.52-.86 3.77-7.54-5.89-11.36-5.13-4.79-.71-9.5.74-14.32.11-6.57-.85-12.72-5.81-18.88-7.7-5.08.07-5.38 3.42-1.55 6.35 13.52 10.51 16.89 51.34 42.28 38.67 2.69-.88 4.02-.11 3.5 2.97-1.93 24.36-16.9 44.99-22.29 68.38-3.33 18.35 18.17 29.87 16.32 52.56.22 1.71-.88 15.13-2.9 7.87-6.12-25.86-22.24-11.3-37.82-18.47-2.01-2.39-6.93-5.05-8.21-.79 25.76 13.25 14.37 51.15 39.63 45.37 4.75-.55-.37 8.07-.62 10.45-15.4 30.93 7.83 53.5 11.93 83.07 1.06 6.48-5.31 0-7.02-1.77-9.12-6.88-19.48 5.21-29.71 2.29-4.38-.32-10.13-8.36-13.37-2.66-.47 4.25 9.92 8.57 12.15 12.87 7.61 9.88 17.4 30.03 32.71 22.01.88-.45 2.42-.98 2.5.26-20.09 65.72 16.94 37.94-53.04 51.68-10.17 5.16-12.29 6.57-10.36 17.94.7 6.03-2.14 16.78 5.42 19.07 7.46 20.96 8.6 46.77 14.83 69.14 2.75 8.8 16.6 3.64 21.49 10.24 1.84 4.69 9.94 4.72 9.41 10.01-.8 3.73-3.41 29.24-5.99 25.37-2.95-8.51-7.51-26.92-19.84-20.24-2.15 1.06-4.01-.04-5.69-1.44-9.6-7.99-19.9-.83-24.37 8.3-3.66 6.95-3.51 13.35-5.09 20.38-2.6 9.45-7.9 19.1-13.78 26.81.14 1.82 2.94-.12 4.47-.34 2.08-.59 4.2.06 6.09-.73 4.55-2.17 9.15-4.44 11.76-9.14.45-.55 1.23-1.8 1.37-.7-.01 1.1-1.46 5.28 1.18 4.06 3.5-4.16 2.26-5.3 6.97-1.26 1.06.76 1.14 1.47.17 2.17-4.25 3.7-17.7 14.34-23.85 20.01.16 4.69 5.15 8.53 6.68 13.31 3 4.7-5.83 9.25-1.25 13.79 1.12 1.13 3.75.3 4.04 2.12-3.15 14.29.13 12.63 9.64 21.26.41 6.89-2.81 13.92-3.56 20.73-.74 3.68.82 9.4-2.67 11.49-23.77-8.59-7.11 18.21 4.52 6.83l.01.05Zm31.19-8.69c2.51 1.04 3.21-3.73 5.85-2.94 1.61.98-.06 5.37-1.97 5.83-1.03.31-2.05-.36-2.85.59-1.85 1.63-1.45-2.86-1.04-3.49l.01.01Zm57.17 1.1c-9.55 2.57-9.81-4.06-.34-4.11 1.61-.37.38 3.14.34 4.11Zm29.19-4.94c2.15.25 4.26-2.28 6.38-2.15 2.77.79 3.07 4.66-.22 5.22-1.44.26-1.03 1.83-1.89 2.45-.95.51-5.65-3.93-4.27-5.52Zm4.97-94.98c.07.65 1.45 2.77.07 2.43-.59-.33-.87-2.09-.07-2.43Zm-42.09-16.51c-1.87-.86.58-6.77.07.01h-.07v-.01Zm2.69 23.26c-3.32-8.69-4.9-12.01 4.74-5.05 1.19.78 1.51.79 1.32 1.8-1.49 6.7-.97 15.5-6.05 3.25h-.01Zm39.92 50.42c-9.98 7.76-28.77 10.67-38.2 1.58-1.09-8.01 1.3-15.82 2.86-23.65.92-9.43 5.08-18.01 6.24-27.59.46-2.57 1.32-3.63 4.17-3.9 2.87.07 7.07-2.54 8.69.04 1.76 12.04 22.71 44.31 16.24 53.52Zm-10.91-58.17c2.1-.3 1.23.63 1.2 1.9-.44-.23-1.54-1.23-1.2-1.9Zm11.6 36c.43.73 1.64 3.16 1.93 3.87-1.32-.5-2.15-2.46-1.93-3.87Zm-6.82-37.01c.04.66 1.62 4.94-.09 3.85.09-.94-1.56-4.11.09-3.85Zm-.86 12.24c-.02-.71 1.5.38 3.42 1.2 4.11 2.62 14.76 5.59 14.92 8.09-2.05 3.03-5.33 7.72-7.97 9.92-7.19-2.75-8.19-12.64-10.37-19.21Zm-8.79-51.61c-.93-.39-3.03-1.38-3.88-1.91 1.62-.82 3.04.41 3.88 1.91Zm-18.17 2.33c1.82-1.72 4.02-1.15 6.36-1.39 3.07-.61 4.48-1.21 7.13.78 1.39.91 3 .67 4.77 1.45 11.56 8.08 11.83 37.31-5.98 37.58-7.94.48-20.55-2.66-19.05-12.78 1.07-8.62-1.05-19.64 6.78-25.65l-.01.01Zm-6.45-1.84c-.98 5.09-5.63 15.07-7.37 20.32-1.79-6.55.77-16.92 7.37-20.32Zm1.76-583.41c-.26.76-1.14 2.68-1.44 3.39.12-.84-.16-3.64 1.44-3.39Zm-8.2 20.43c12.62-17.48 28.07-2.07 41.36 5.2 1.37.81.79 2.11.06 3.12-6.41 13.75-20.17 11.5-32.08 6.14-4.52-2.87-9.57-8.99-9.34-14.47v.01Zm-40.97 59.24c-.32-.8-3.72-4.73-2.06-4.96.52 1.08 3.66 4.74 2.06 4.96Zm31.93 21.98c-4.31 3.95-10.34 5.85-14.65.88-8.96-5.68-13.38-16.13-16.33-25.96-5.4-8.77 4.32-2.55 8.75-2.55 16.78-3.71 23.96 2.65 23.93 19.83.61 3.19 1.17 5.46-1.69 7.81l-.01-.01Zm-1.24 35.52c-.45.44-.44 1.42-.56 1.99-1.44 1.79-.95-2.93.56-1.99Zm-3.26 11.01c11.53-12.99 25.44 4.28 33.52 12.76 2.58 2.41 0 2.66-2.23 2.81-7.06.09-13.67 3.72-20.61 2.44-9.49-2.13-15.09-8.47-10.67-18.01h-.01Zm-14.59 113.89c-10.89-2.86-9.77-17.52-13.5-26.27-.86-3.52-6.38-8.67-.37-10.37 14.62-5.23 23.64 11.34 23.32 24.51-.22 8.99.75 11.31-9.45 12.12v.01Zm46.91 64.88c-1.52-.24.71-2.54.7-3.1 1.73-.24-.48 2.37-.65 3.1h-.05Zm-31.37-7.65c2.97-8.55 9.9-8.75 17.21-10.74 4.33-2.84 9.94-1.71 14.94-1.14 1.26.35 1.13 1.65.88 2.76-.93 8.21-4.96 15.33-11.62 20.42-10.78 5.72-27.71 6.93-21.41-11.3Zm-27.5 55.73c-.29-.79-2.46-2.44-.93-2.83.4.31 1.44 2.07 1.62 2.31-.15.24-.45.39-.7.52h.01Zm19.33 14.11c-12.54-3.23-16.64-16.53-23.43-25.89-.64-1.98 2.94-1.44 4.71-2.01 7.01-1.89 10.22-4.98 17.47-.76 10.03 3.69 14.47 27.88 1.24 28.66h.01Zm6.21 16.38c.96.26.72 1.54.85 2.34-1.46.7-.87-1.5-.92-2.34h.07Zm-6.62 156.06c-6.29-5.31-2.98-4.29 2.89-3.86 2.61-.45-1.96 3.81-2.89 3.86Zm16.15-1.46c-1.19.3-3.43-.9-3.23-2.22.46-.53 2.68-.16 3.23-.2.25.45.25 2 0 2.42Zm9.39.74c-1.27.99-7.83 2.11-7.48.24 2.21-3.22 13.95-4.29 7.48-.24Zm-72.77-109.43c3.3-1.55 7.29-2.57 10.41-1.22.48-.18.56-1.28 1.71-1.39 2.18.01 3.53 1.56 5.19-.51 1.99-1.33 5.24-.92 7.57-.27 6.38-2.28 13.87-3.73 21.05-3.69 6.6-.65 6.63 10.8 14.31 7.71.71-.07 3.05-.9 1.79-1.56-.98-.47-2.54.7-3.41.08 2.56-3.04-1.7-5.01-.09-7.04 15.26-3.31 32.59-3.76 47.59 1.39 15.44 11.96-50.79 11.57-55.9 10.8-16.09-1.78-35.59.18-50.21-4.29l-.01-.01Zm1.85 24.26c-6.31-3.29-.35-10.83-1.98-16.12-.37-1.98.69-2.29 2.77-2.14 33.67 2.25 68.68 7.42 101.79-1.59 6.82-2.56 1.31 14.59 1.24 17.98-12.87 16.38-83.22 5.69-103.82 1.86v.01Zm25.27 76.23c-2.33-.53-7.64-.51-8.29-2.74-.45-5.17-4.2-9.52-4.64-14.86-2.23-8.12-4.67-16.26-4.66-24.71-2.12-8.48-5.67-17.76-5.24-26.61.01-1.52.78-1.68 2.34-1.53 27.93 4.46 57.29 5.72 85.37 2.2 13.34-2.52 11.05-2.6 10.23 10.26-1.71 16.54-4.92 32.87-6.78 49.38 2.32 16.94-57.01 9.37-68.33 8.62v-.01Zm8.25 5.87c2.55.57 6.81 1.79 7.07 4.71-2.41.72-7.55-1.84-7.07-4.71Zm-59.83 66.51c-.31-.71 1.79-2.8 2.42-2.89.35.82-1.66 3.53-2.42 2.89Zm56.85-12.17c-.07.62-.37 2.95-.5 3.37-2.03.46-.46-3.12.5-3.37Zm-1.63-12.1c1.01 1.14 1.67 4.39-.73 4.31.02-1.02.47-3.34.69-4.35l.04.04ZM161 642.83c.65 1.12 1.43 4.62 1.75 5.63-3.78 1.37-4.47-3.63-1.75-5.63Zm-2.48 14.07c-.41-1.05-1.25-5.97-.95-5.81.83.92 3.28 1.23 2.57 2.87-.61 1.12-.33 3.12-1.62 2.93v.01Zm-.57-53.11c-1.15-.17-5.44-2.01-6.28-2.3 2.15-1.84 5.41-.25 6.28 2.3Zm-42.44 43.33c-3.18 1.51.64-4.93.84-6.11.54-1.19 1.76-.92 3.08-1.46 2.22-.13 4.81-8.79 5.41-7.28-1.63 5.35-4.73 11.97-9.33 14.85Zm2.19-10.09c1.88-4.29 2.91-9.96 5.77-13.54-.25 2.61-3.31 13.23-5.74 13.58l-.04-.05.01.01Zm6.92-29.05c-1.68 3.43-3.42 9.46-5.17 13.17 1.77-11.67 6.97-28.55 21.92-21.91 1.26.35 3.09 1.56 1.35 1.54-6.7-2.79-14.44 1.16-18.1 7.2Zm2.67 14.77c-.02-.94.69-4.67 1.89-4.33-.12.99-1.43 3.34-1.87 4.39l-.02-.06Zm5.01 17.59c-6.94-7.83-.25-18.25 2.14-26.68 2.34-5.68 4.73-10.66 11.26-8.96 2.92-.16 6.38-.36 9.23.86 8.26 3.28 5.35 14.12 4.26 20.92-.38 3.82 2.54 8.92.52 12.69-6.69 9.07-19.92 9.47-27.4 1.17h-.01Zm-15.64 51.48c.04-1.89 1.19-5.23 3.37-5.25.56 1.11-2.47 5.16-3.33 5.3l-.04-.04v-.01Zm5.32-7.84c-1.42-2.08-10.67-13.17-8.52-15.25 3.01-2.34 17.3-13.47 18.96-14.72-2.24 7.8-7.06 22.42-10.45 29.97h.01Zm3.96 26.81c-3.9-6.18-1.31-13.52 1.86-19.44 1.01-4.22 1.7-9.86 2.81-14.08 1.39-5.12 3.38-11.05 5.42-15.67 3.28-4.4 3.96-5.2 4.86-10.55 1.36-1.67 4.03-.76 5.92-1.14 2.38-.03 4.43-1.08 5.82-.6 2.28 8.57 14.73 52.91 15.29 58.07-1.73 1.83-4.59 3.55-6.98 4.59-11.53 1.33-24.27 5.16-35-1.18Zm-6.76 45.74c-.19-.72-.45-1.3-1.3-.97-2.95.05-6.13-4.06-1.84-4.8 1.32.42 4.84 1.63 4.4 3.48-.08.51-.52 3.09-1.26 2.29Z"/><path fill="#FFF" d="M168.61 582.97c.17 3.36 4.36 5.18 7.28 4.86-1.2-3.31-4.35-3.78-7.28-4.86Z"/><path fill="#A8E42E" d="M233.21 63.46c6.85-2.45 6.66-7.16 11.18-11.9-12.5-3.76-18.91-17.86-33.87-12.75-1.55.52-8.21 5.22-8.4 6.69-.74 5.69 5.29 9.67 7.37 14.28 9.3 1.56 13.27 7.41 23.72 3.67v.01ZM182.72 280.77c-.06-2.04-.28-1.32-.06-3.89 1.23-14.22-9-33.95-25.72-24.76-.62.38-.43.67-.29 1.21.38 1.52 2.3 4.09 2.97 5.81 2.72 6.88 3.53 14.19 5.83 20.92.51 1.51 1.35 3.34 3.15 2.44-1.56 3 2.67 4.82 5.1 4.9 1.13.03 7.28-1.55 7.9-2.11.34-.31 1.14-3.92 1.11-4.54l.01.02ZM186.8 181.87c.7 3.25 4.09 6.21 6.95 7.64 8.39 4.2 10.81 1.72 18.95.26 3.36-.6 6.91-.88 10.31-1.11.22-.93-.34-.94-.82-1.37-4.87-4.44-7.06-7.52-11.31-12.01-4.22-4.46-11.59-7.97-17.7-5.53-.77.31-4.58 2.88-4.82 3.46-.58 1.39.08 2.37-.07 3.06-.36 1.55-1.93 3.56-1.48 5.6h-.01Z"/><path fill="#FFF" d="m208.45 28.7 1.44-3.4c-1.61-.32-1.28 2.52-1.44 3.4ZM187.07 430.79v2.43h.97c-.39-.87.22-2.16-.97-2.43Z"/><path fill="#A8E42E" d="M210.84 355.64c1.37-.93 7.32-7.94 8.08-9.42 1.95-3.82 2.27-9.51 3.61-13.64-4.81.5-10.4-1.78-14.91.39-.93.45-1.59 1.53-2.54 1.83-1.96.63-4.66.03-7.03.75-3.44 1.04-7.89 5.9-8.76 9.14-.36 1.38-1.2 7.81-1.17 9.05.27 9.56 17.79 5.27 22.72 1.9Z"/><path fill="#FFF" d="m221.22 349.04-1.41 2.83.72.35 1.4-2.82-.71-.36ZM191.44 162.42c-1.45-.36-1.37 1.52-1.45 2.42 1.53.35.41-1.69 1.45-2.42Z"/><path fill="#A8E42E" d="M187.33 395.28c-1.25-4.99-5.12-8.12-9.65-10.28-6.59-3.14-9.28.55-15.26 1.92-1.6.36-3.78.19-5.47.6 2.71 3.24 4.97 6.92 7.19 10.54.91 1.48 1.18 3.3 2.03 4.64.54.85 6.73 7.48 7.55 8.14 2.06 1.67 3.59 2.37 6.25 2.39l.31 1.48c9.78-.52 8.77-12.52 7.05-19.43Z"/><path fill="#FFF" d="m160.75 397.45-.71.47 1.56 2.36.72-.48-1.57-2.35Z"/><path fill="#A8E42E" d="M193.89 120.81c-.55-4.97.35-11.23-2.73-15.74-1.06-1.56-4.48-5.35-6.13-6.01-5.72-2.28-9.2.86-14.22.65-1.99-.08-9.98-3.14-10.95-2.44.78 1.76 2.19 3.98 2.83 5.7.49 1.31.58 3.75 1.18 5.22.56 1.35 2.61 3.83 3.19 5.48.4 1.13-.01 2.46.09 2.54.15.11.97-.25 1.49.31.81.88.49 2.54.75 3.12.74 1.61 8.28 7.71 10.21 9.14.83.6 2.69 2.17 3.56 2.3.2.03 3.65-.89 3.9-1 .28-.12 4.92-3.08 5.2-3.31.29-.24 2.56-3.16 2.57-3.48.01-.75-.84-1.56-.94-2.48Z"/><path fill="#FFF" d="m158.75 100-.73.42 2.6 4.54.73-.41-2.6-4.55ZM146.99 502.75c24.88 3.13 53.1 6.73 78.07 2.77 4.4-.69 8.7-1.96 12.92-3.35 2.14-7.18 2.67-14.33 3.01-21.79-9.01 3.4-18.82 4.61-28.42 5.34-20.89 1.59-41.83-.03-62.63-1.45-2.48-.18-16.39-1.96-17.27-.97 2.92 4.87-1.08 9.96-.36 14.69.44 2.91 1.35 1.63 3.25 2.61.81.42.99 1.43 2.22 1.65 2.46.47 6.53.16 9.22.5h-.01Z"/><path fill="#FFF" d="M136.29 477.45c1.29-.25 1.42-1.54 2.68-1.45l-1.94 1.47c.74 1.6 3.03.79 4.56 1.02 15.43 2.41 30.36.7 45.17 2.9 7.33 1.08 9.68-.34 16.56-.54 6.76-.2 9.62.01 16.59-.89 6.4-.84 14.09-1.05 20.1-3.71 2.43-1.06 1.25-2.74.12-4.49-2.09-3.26-2.63-1.97-5.49-2.77-10.26-2.88-21.39-2.82-31.71-2.03-4.12.31-8.36 1.37-12.47 1.76-.92.81 4.76 5.03 2.45 6.6-.77.53-2.4-.32-2.45.69.8-.11 1.95.63 2.6.53.28-.04 2.93-4.33 3.23.93l-2.68-.97c-.77 2.16-3.1 1.68-4.96 1.07-2.76-.91-3.74-5.34-5.43-7.56l-.77-.35c-7.16-.28-14.08 1.09-21.14 1.99l-.32 2.45c-2.06.52-2.6-1.31-3.84-1.5-1.76-.27-5.09.64-7.02.51l.98 1.69-1.23.77c-1.89.17-1.84-1.64-2.27-1.9-.65-.39-3.48.41-3.79 1.13l1.93 1.22-3.36-.54c.68-3.06-3.77-.07-5.26.41-1.11.35-2.8.27-4.01.61-1.29 1.24 2.67 1.05 3.15.96l.02-.01Zm95.71-6.18c3.95 1.9 1.27 4.51-1.2 1.09l1.2-1.09Zm-9.71-1.09c.75.55.71.72.62 1.57-.5 4.9-6.52.5-.62-1.57Zm-13.11 3.39 2.18 1.23-.72 1.19-1.97-.93.51-1.48v-.01Zm-8.23-5.82c1.71.17 3.46.83 4.56 2.17-1.69 1.59-4.18.81-5.33-.99l.76-1.18h.01Zm-26.69 5.88c2.89-.9 3.1 4-.79 1.4-.13-.62.19-1.21.79-1.4ZM200.48 584.98c-.49.3-.58.98-.93 1.26-.44.35-1.46-.27-1.3.61 2.99.79 5.01.75 7.73-.76.57-.32 2.25-1.25 1.97-2.14-3.07-.9-4.81-.54-7.48 1.04l.01-.01ZM178.42 582.6c-.79-.02-.98-.23-1.55.61l3.63 3.67c.87-.09 4.2-3.42 3.65-3.91-1.9.34-3.98-.3-5.72-.37h-.01ZM193.38 583.69c.94 1.14 1.78 1.99 3.4 1.71v-2.44c-.52.19-3.93-.59-3.4.73Z"/><path fill="#000" d="M205.52 469.93c-1.11-1.34-2.85-2.01-4.56-2.17l-.76 1.18c1.15 1.8 3.64 2.57 5.33.99h-.01ZM222.29 470.18c.75.55.71.72.62 1.57-.5 4.9-6.52.5-.62-1.57ZM230.8 472.36l1.2-1.09c3.95 1.9 1.27 4.51-1.2 1.09ZM174.26 473.63c-.59.19-.92.77-.79 1.4 3.88 2.6 3.68-2.3.79-1.4ZM211.35 474.8l-2.17-1.23-.52 1.48 1.97.94.72-1.19Z"/><path fill="#A8E42E" d="M238.64 669.67c-2.4-5.79-6.26-10.97-6.39-17.67l-11.91 1.95c-1.72 5.86-2.27 12.2-3.95 18.03-.28.97-.87 3.38-1.24 4.02-.37.66-1.33.71-1.36 1.09-.19 1.72.36 3.61-.14 6.14-1.45 7.32-2.92 10.83-3.23 18.61-.22 5.82-2.25 6.79 4.39 9.67 7.95 3.47 20.05 2.43 27.82-1.22.7-.33 5.77-3.21 6.01-3.46.56-.59 1.55-5.85 1.53-6.88-.06-3.05-2.92-7.51-4.07-10.52-2.48-6.57-4.76-13.26-7.45-19.76h-.01Z"/><path fill="#FFF" d="M211.34 644.97c5.18 4.11 17.73 5.6 23.08 1.69 7.63-5.58 7.21-19.43 4.14-27.48-.54-1.43-2.83-5.69-3.74-6.57-1.2-1.16-5.35-3.04-6.7-1.44l-.8-2.37c-2.98-.82-5.14-.03-7.57 1.29-2.43-1.91-2.97-1.15-5.24.61-8.48 6.6-4.84 18.86-6.96 28.29.6 2.35 1.88 4.47 3.78 5.98h.01Zm14.61-25.52c3.55-2.47 3.64 8.69 3.38 10.19-2.97.15-4.5-9.4-3.38-10.19Zm-8.78 1.19c.14-1.95 2.92-1.15 3.34.09.36 1.08.02 3.38.11 4.77.07 1.12 1.35 1.6-.04 3.66-.78.58-2.63-1.94-2.81-2.78-.13-.59-.63-5.26-.6-5.74Zm-1.95 14.56c3.08-2.21 3.45 7.32 7.48 6.93 5.68-.56 4.91-9.29 9.37-9.45 6.15-.22-2.97 11.02-5.49 12.45-2.82 1.57-7-.07-9.24-2.04-1.39-1.23-3.8-6.7-2.12-7.89ZM206.55 748.9l1.22 1.2 6.05-.58.45-4.16c-2.93.57-7.16-.36-7.72 3.54ZM206 633.04v-2.67l-.47-.72c.16 1.24-1.16 2.85.47 3.39Z"/><path fill="#000" d="M217.36 643.09c2.22 1.98 6.42 3.61 9.24 2.04 2.52-1.42 11.64-12.67 5.49-12.45-4.46.16-3.69 8.88-9.38 9.45-4.02.39-4.4-9.14-7.47-6.93-1.67 1.19.74 6.66 2.13 7.89h-.01ZM229.33 629.64c.26-1.5.17-12.65-3.38-10.19-1.12.79.41 10.34 3.38 10.19ZM220.58 629.15c1.39-2.06.1-2.54.04-3.66-.1-1.39.25-3.69-.11-4.77-.41-1.23-3.2-2.04-3.34-.09-.03.48.47 5.15.6 5.75.18.83 2.03 3.35 2.81 2.77Z"/><path fill="#A8E42E" d="M150.94 712.84c3.21-.4 6.22.32 9.52-.68 1.26-.39 7.36-4.12 7.6-5.06l-15.47-58c-4.32 1.17-7.67 1.42-12.15.96-.05 2.27.25 5.62-.82 7.68-.34.65-2.02.9-2.56 1.92-2.1 3.94-4.79 12.17-6.1 16.65-1.52 5.23-2.21 13.16-3.71 17.68-.24.7-1.25.78-1.61 1.31-.73 1.07-1.84 7.01-1.74 8.47.15 2.16 2.8 5.06.5 5.85.45.65 1.02.89 1.68 1.23 1.48.76 7.69 2.92 9.36 3.27 5.7 1.2 10.01-.61 15.5-1.29v.01Z"/><path fill="#FFF" d="M158.22 751.16c1.26-.11 2.44.93 3.92-1.1.65-.89 2.01-4.73.01-4.63-2.46.12-3.29 3.08-4.07 3.3l-1.62-.45v3.89c1.32.63 1.49-.98 1.75-1l.01-.01ZM116.31 750.81c-.95-.08-2.06.88-2.57 1.65-.2 1.13 3.81 4.28 5.09 2.63l.23 1.44c.96 1.24 1.5-3.16 1.41-3.33-.12-.2-3.73-2.36-4.16-2.39ZM116.64 691.87c1.15-.34 4.05-4.59 3.39-5.34-2.34.37-3.25 3.34-3.39 5.34Z"/><path fill="#000" d="m155.32 631.34-1.59-2.08c-3.37.19-2.17 1.78-2.82 3.81-.31.94-2.62 3.27-3.51 3.79-3.61 2.13-4.77.66-6.69-2.4-1.24-1.99-2.26-7.56-4.83-6.73-.79.35-.79.77-.71 1.54.05.4 1.39 4.65 1.63 5.23 4.87 12.3 15.2 6.53 18.53-3.16h-.01ZM150.35 623.79c2.38-1.36.39-8.78-.9-9.74-.59-.43-1-.56-1.73-.45-1.01 1.91-.46 11.16 2.63 10.2v-.01ZM142.85 624.29c.33-1.44-.46-2.87-.48-4.17-.05-2.54 1.93-5.76-2.43-5.56-.5 4.11-3.36 9.39 2.91 9.72v.01ZM185.61 430.96c0 .23-.03.47-.05.71l.04-.35c-.16 1.22-.6 2.39-.85 3.6-.14.67.19 1.44.91 1.6.65.15 1.45-.2 1.6-.91.32-1.55.91-3.05.96-4.65.01-.69-.62-1.34-1.3-1.31-.69.04-1.29.58-1.3 1.31h-.01ZM163.05 401.01c0-1.16-.4-2.27-1.09-3.21-.34-.45-.7-.88-1.07-1.3-.15-.17-.3-.35-.45-.52-.08-.1-.15-.19-.23-.28.3.35 0-.02-.07-.1-.19-.29-.43-.51-.77-.6-.32-.09-.73-.04-1.01.13-.55.35-.88 1.19-.47 1.78.31.45.66.87 1.02 1.28.15.17.31.34.46.51.06.08.13.17.2.25.07.07.32.42.05.06.13.17.26.33.37.52.06.09.12.2.17.3.03.04.05.1.07.14.02.03.11.24.01.02-.1-.23-.01-.03 0 .02.03.06.04.12.06.18.04.11.06.21.09.32 0 .02.02.2.03.2-.01 0-.03-.33-.01-.13 0 .14.01.28.01.43 0 .68.6 1.33 1.3 1.3.7-.03 1.3-.57 1.3-1.3h.03ZM220.57 348.94c-.05.21-.12.42-.21.61l.13-.31c-.45 1.03-1.24 1.84-1.83 2.79-.36.58-.13 1.45.47 1.77.64.34 1.4.15 1.78-.46.36-.58.79-1.1 1.18-1.65.44-.63.8-1.32 1-2.07.08-.33.04-.7-.14-1-.15-.27-.46-.53-.77-.6-.68-.16-1.43.2-1.61.91v.01ZM191.21 165.75c3.03-5.06 3.48-11.18 4.44-16.87.11-.69-.19-1.41-.91-1.61-.63-.17-1.49.21-1.61.92-.92 5.43-1.27 11.41-4.18 16.25-.86 1.44 1.39 2.75 2.25 1.31h.01ZM162.19 104.78c-.6-1.24-1.42-2.37-2.4-3.34-.9-.89-1.89-1.7-2.79-2.59-.49-.49-1.36-.52-1.84 0s-.51 1.32 0 1.84c.89.88 1.85 1.66 2.73 2.54.2.2.4.4.59.61.1.11.19.22.29.33.05.06.1.12.14.19.11.12-.16-.22-.03-.03.41.56.76 1.15 1.06 1.78.29.62 1.22.82 1.77.46.64-.4.78-1.11.47-1.77l.01-.02Z"/><path fill="#000" d="M156.77 99.05c.31.48.58.98.79 1.51l-.13-.32c.26.62.46 1.25.57 1.91.06.3.35.63.6.78.28.17.7.24 1.01.13.31-.1.61-.29.78-.6l.13-.31c.06-.23.06-.46 0-.69-.11-.62-.29-1.22-.52-1.8-.28-.67-.58-1.31-.97-1.92-.18-.28-.45-.5-.78-.59-.32-.09-.73-.05-1.01.13-.57.36-.86 1.17-.47 1.77ZM208.28 24.45c.05.61.05 1.23.01 1.83-.01.18-.03.35-.05.52-.03.26.02-.14 0 .02-.02.09-.03.17-.04.26-.06.33-.13.67-.21.99-.09.32-.18.65-.3.96-.02.07-.05.13-.08.2-.12.31.08-.15 0 .03-.07.15-.14.31-.23.46-.15.27-.31.53-.49.79.09-.11.09-.13 0 0-.06.07-.11.13-.16.18-.1.11-.22.22-.34.32-.51.45-.49 1.39 0 1.84.55.5 1.29.47 1.84 0 1.16-1.03 1.85-2.53 2.24-3.99.39-1.47.53-2.95.4-4.42-.06-.67-.55-1.33-1.3-1.3-.65.03-1.36.58-1.3 1.3l.01.01ZM206.44 582.49c-2.47 1.65-5.46 1.63-8.32 1.64-1.68 0-1.68 2.6 0 2.6 2.84 0 5.68-.09 8.51-.41l-.92-2.22c-.65.58-2.25.86-3.24.98-1.07.13-2.58.31-3.51-.35l.47 1.78c1.05-1.58 3.77-1.88 5.43-2.45 1.65-.57.95-2.88-.7-2.5-3.7.84-7.51 1.18-11.31.95l.35 2.56c.74-.31 2.86-1.01 3.47-.13l1.12-1.96c-.77 0-1.54.04-2.31.12-.92.09-1.71 1.06-1.13 1.96.19.29.39.57.62.84l1.58-2.05c-2.45-1.76-5.67-2.11-8.6-2.12-2.93-.01-5.95.42-8.9.79l.66 2.43c.41-.21.81-.45 1.24-.66 1.17-.58.59-2.45-.66-2.43-1.62.03-3.24.01-4.87.03v2.6c1.24-.15 2.18.05 3.26.67 1.02.58 1.99 1.17 3.12 1.51l-.95-1.26c-.03.2-.09.4-.18.58l1.26-.96c-1.63.13-3.24-.36-4.81.31-.46.2-.84.6-1.3.79-.53.22-.95-.02-1.44-.31-1.06-.61-1.87-1.55-2.82-2.3-1.16-.93-2.37-1.41-3.84-1.6-1.33-.17-1.71 1.84-.66 2.43 1.47.82 2.34 2.32 3.71 3.28 1.54 1.06 3.31.98 5.09.92.88-.02 1.43-.8 1.26-1.64-.67-3.21-3.71-3.75-6.09-5.3-1.4-.92-2.7 1.33-1.31 2.24 1.67 1.11 4.42 1.5 4.89 3.75l1.26-1.65c-1.58.05-2.98.22-4.22-.96-1.07-1.02-1.95-2.15-3.27-2.9l-.66 2.43c1.27.17 2.17.95 3.08 1.77 1.02.93 2.07 1.82 3.39 2.31 1.31.48 2.28.21 3.37-.51 1.35-.9 2.83-.33 4.37-.45.62-.06 1.04-.39 1.25-.96.16-.42.22-.81.27-1.26.07-.57-.46-1.1-.95-1.25-1.16-.36-2.1-1.09-3.17-1.62-1.25-.6-2.54-.83-3.91-.66-1.62.19-1.73 2.61 0 2.6 1.62-.01 3.24 0 4.87-.03l-.66-2.43c-.42.21-.82.45-1.24.66-1.1.56-.63 2.59.66 2.43 2.75-.35 5.51-.74 8.28-.78 2.78-.04 5.65.13 7.9 1.76 1.27.92 2.47-.99 1.58-2.05a8.9 8.9 0 0 1-.21-.32l-1.13 1.96c.77-.08 1.54-.11 2.32-.12.91-.01 1.7-1.12 1.12-1.96-1.4-2.02-4.33-1.93-6.39-1.07-1.31.56-1.21 2.47.34 2.56 4.02.24 8.08-.14 12.01-1.04l-.7-2.5c-2.46.85-5.42 1.31-6.97 3.64-.42.62-.08 1.39.46 1.78 1.39.99 3.47.87 5.07.67 1.61-.2 3.55-.56 4.82-1.71.79-.71.21-2.35-.91-2.22-2.83.33-5.67.42-8.52.42v2.6c3.31-.01 6.78-.09 9.63-1.99 1.39-.93.09-3.19-1.31-2.25v-.01ZM155.16 576.84c-1.56-2.68-3.27-5.28-4.71-8.02-1.45-2.74-2.67-5.53-2.81-8.56-.09-1.67-2.69-1.68-2.6 0 .34 6.66 4.64 12.33 7.88 17.89.85 1.45 3.09.14 2.25-1.3l-.01-.01ZM224.33 578.41c1.4-1.1 2.79-2.21 4.07-3.47 1.27-1.26 2.43-2.73 3.4-4.29.35-.58.14-1.45-.47-1.77-.62-.32-1.4-.16-1.78.46-.23.39-.48.78-.74 1.14-.13.18-.26.36-.39.53-.05.08-.15.21-.04.06-.07.09-.15.18-.22.27-.52.64-1.08 1.25-1.67 1.83-1.25 1.22-2.62 2.31-3.99 3.39-.53.43-.47 1.4 0 1.84.58.52 1.27.45 1.84 0l-.01.01ZM162.16 750.74c.55-.29 1.12-.61 1.52-1.08.64-.76.99-1.7.87-2.7l-.08-.57c-.07-.29-.2-.53-.39-.74-.26-.34-.69-.71-1.13-.78-.81-.12-1.44-.15-2.25 0-.5.09-1.01.31-1.44.58-.81.51-1.51 1.25-1.9 2.12-.19.42-.37.85-.45 1.31-.11.66-.12 1.14-.02 1.81a2.957 2.957 0 0 0 2.09 2.32c1.4.41 2.74-.42 3.71-1.35.56-.53.77-1.38.56-2.11-.19-.67-.79-1.38-1.52-1.52-1.2-.21-2.42-.27-3.63-.43l.57.08c-.37-.05-.74-.11-1.1-.2-.76-.17-1.54 0-2.11.55-.56.56-.7 1.33-.55 2.11.22 1.21.94 2.34 1.98 2.99 1.05.64 2.52.68 3.56-.01.47-.32.84-.74 1-1.3.13-.52.07-1.21-.22-1.67-.3-.46-.75-.87-1.29-1-.55-.13-1.19-.1-1.68.22a.94.94 0 0 1-.22.12l.52-.21c-.1.03-.19.06-.29.07l.58-.07c-.12.01-.23.01-.35 0l.57.07c-.1-.01-.2-.04-.29-.07l.52.21c-.14-.06-.27-.13-.38-.22l.45.33c-.13-.1-.24-.21-.34-.34l.34.44c-.13-.16-.22-.35-.31-.54l.22.52c-.09-.22-.15-.45-.19-.68l-2.67 2.67c1.35.31 2.75.35 4.12.54l-.57-.08c.21.02.41.06.61.09l-.96-3.62c-.12.12-.26.24-.4.35l.44-.33c-.17.13-.36.26-.56.34l.52-.21c-.12.05-.24.08-.36.1l.57-.08h-.2l.58.08a.776.776 0 0 1-.18-.05l.52.21c-.04-.01-.08-.04-.13-.07l.44.34c-.04-.04-.08-.08-.12-.13l.34.44a.72.72 0 0 1-.12-.21l.22.52c-.06-.12-.08-.24-.1-.36l.08.57c-.03-.2-.02-.4 0-.59l-.08.57c.04-.29.12-.55.23-.82l-.22.52c.1-.25.24-.48.41-.7l-.34.45c.15-.2.33-.39.53-.54l-.44.34c.17-.13.36-.25.57-.34l-.52.21c.21-.09.45-.15.68-.19l-.57.08c.29-.03.57-.03.85 0l-.57-.08s.07.01.11.02l-1.59-2.09c.02.19.03.38 0 .58l.08-.57c-.02.11-.04.23-.09.34l.21-.52c-.03.08-.07.15-.14.23l.34-.44c-.09.11-.2.22-.31.3l.44-.34c-.24.19-.51.33-.78.46-1 .53-1.38 2.02-.78 2.97.66 1.02 1.89 1.34 2.97.78h.01ZM121.12 753.46c-.83-.8-1.66-1.59-2.61-2.24-.53-.37-1.13-.64-1.74-.84-.38-.13-.77-.18-1.17-.22-.25-.03-.5-.03-.75-.01-.56.06-1.13.19-1.53.63-.41.45-.59.94-.64 1.54-.07 1.04.25 2.12 1.01 2.87.64.62 1.45.91 2.26 1.22.5.19 1.23.04 1.67-.21.45-.26.88-.78 1-1.3.13-.55.1-1.18-.22-1.67l-.33-.44c-.27-.27-.59-.45-.96-.56l-.54-.21.52.21c-.23-.09-.45-.2-.64-.34l.44.33c-.08-.06-.15-.13-.22-.2l.34.44c-.06-.09-.11-.18-.16-.27l.22.52c-.05-.13-.08-.25-.1-.39l.07.57c-.02-.19-.01-.38 0-.57l-2.16 2.17c.25-.03.5-.03.75.01l-.57-.08c.29.04.57.13.85.24l-.52-.22c.48.21.93.49 1.34.81l-.44-.34c.64.5 1.21 1.07 1.79 1.63.39.39.97.64 1.53.64.53 0 1.17-.24 1.53-.64.37-.4.66-.95.64-1.53-.03-.58-.22-1.12-.64-1.54l-.02-.01ZM214.63 750.31c.15-.35.32-.69.38-1.06.1-.61.11-1 0-1.61-.06-.32-.21-.65-.37-.94-.07-.15-.19-.28-.29-.41-.11-.13-.21-.28-.33-.4-.9-.88-2.17-1.31-3.42-1.33-.36 0-.73.05-1.09.11-.17.03-.35.07-.52.13-.73.27-1.38.64-1.89 1.25-.4.48-.65.86-.85 1.45-.03.08-.05.16-.07.25-.04.27-.1.54-.07.81.02.26.04.52.12.77.08.24.18.5.32.73.18.28.41.58.67.8.65.53 1.37.92 2.18 1.1.42.08.85.14 1.27.16.43.02.88-.05 1.3-.12.51-.09 1.05-.57 1.3-1 .26-.47.39-1.15.21-1.67-.17-.52-.49-1.03-.99-1.3l-.52-.21a2.08 2.08 0 0 0-1.16 0c-.04 0-.08.02-.13.02l.57-.08c-.32.04-.65.03-.97 0l.57.08c-.32-.05-.64-.13-.95-.26l.52.22c-.2-.09-.39-.19-.56-.32l.44.34c-.11-.09-.22-.19-.31-.31l.34.45c-.05-.07-.1-.15-.14-.24l.22.52a.52.52 0 0 1-.07-.25l.07.57v-.23l-.07.57c.01-.09.04-.19.07-.28l-.21.52c.06-.14.13-.26.21-.39l-.33.45c.13-.18.3-.34.47-.49l-.44.34c.14-.1.29-.19.44-.26l-.52.22c.21-.09.44-.14.66-.18l-.57.08c.27-.03.55-.03.81 0l-.57-.08c.28.04.56.12.82.22l-.52-.22c.19.09.37.19.54.32l-.44-.34c.12.09.23.21.33.33l-.34-.45c.07.1.13.2.18.31l-.21-.52c.04.11.08.22.09.34l-.08-.57c.02.14.02.28 0 .42l.08-.57c-.02.15-.07.31-.13.46l.22-.53-.04.08a1.8 1.8 0 0 0-.26.81c-.06.29-.05.57.04.87.14.5.53 1.05 1 1.29.5.27 1.11.4 1.67.22.5-.17 1.06-.5 1.29-1l.03.01ZM248.7 750.96c1.71-.53 3.18-1.7 3.72-3.45.24-.74.25-1.64 0-2.38-.12-.37-.28-.76-.52-1.09-.38-.53-.7-.84-1.23-1.23-.37-.26-.8-.44-1.22-.6-.31-.12-.64-.2-.97-.25-.94-.15-1.87-.24-2.8.03-.93.27-1.65.8-2.14 1.59-.37.59-.56 1.38-.48 2.08.1.86.35 1.67.85 2.38.58.82 1.25 1.46 2.09 2.02.45.3 1.15.36 1.67.21.52-.14 1.05-.53 1.29-.99.27-.51.4-1.11.22-1.68-.18-.56-.5-.97-1-1.29-.12-.09-.25-.17-.37-.26l.44.34c-.32-.25-.6-.53-.85-.85l.34.44c-.18-.24-.34-.51-.47-.79l.22.52c-.08-.2-.14-.41-.17-.62l.08.58c-.02-.16-.03-.31 0-.47l-.08.57c.02-.11.04-.22.08-.33l-.21.52c.04-.1.09-.2.16-.28l-.33.44c.06-.08.13-.16.21-.22l-.44.34c.11-.09.23-.16.36-.21l-.52.22a3 3 0 0 1 .57-.15l-.58.08c.38-.04.74-.03 1.11.02l-.57-.08c.41.06.82.15 1.2.3l-.52-.21c.25.1.47.23.69.39l-.44-.33c.15.12.28.25.4.39l-.34-.44c.1.14.19.29.26.45l-.22-.52c.06.16.11.32.13.49l-.07-.57c.01.16.01.33 0 .5l.07-.57c-.02.2-.07.39-.15.58l.21-.52c-.08.2-.2.38-.32.55l.33-.44c-.15.2-.33.37-.53.53l.45-.34c-.25.19-.53.36-.83.48l.52-.22c-.15.06-.3.12-.46.17-.52.16-1.01.51-1.29.99-.28.49-.39 1.16-.21 1.68.17.52.49 1.03.99 1.29.51.26 1.11.39 1.67.22v-.01ZM247.95 686.77c.2.22.39.44.57.67l-.34-.44c.52.67.97 1.39 1.3 2.18l-.21-.52c.23.57.41 1.16.49 1.76l-.08-.57c0 .05.02.1.02.16-.01.29.05.58.19.83.09.27.24.5.45.69.38.38 1 .66 1.54.64.53-.03 1.14-.21 1.53-.64.37-.4.7-.97.63-1.53-.07-.63-.15-1.24-.35-1.85-.2-.61-.45-1.2-.74-1.75-.5-.98-1.18-1.89-1.92-2.7-.75-.81-2.3-.84-3.07 0-.82.89-.82 2.17 0 3.07h-.01Z"/><path fill="#000" d="M249.43 693.17c-.85 2.41-.85 5.01-.85 7.54 0 2.52.02 4.75-.97 6.92-.48 1.07-.3 2.33.78 2.97.93.54 2.48.29 2.97-.79 1.21-2.66 1.53-5.43 1.55-8.34.02-2.59-.12-4.82.7-7.14.39-1.11-.44-2.38-1.52-2.68-1.19-.33-2.27.41-2.67 1.52h.01ZM210.93 674.35c.12 1.83-.27 3.63-.33 5.45-.05 1.14 1.02 2.22 2.16 2.17 1.21-.06 2.13-.96 2.17-2.17.07-1.82.45-3.62.34-5.45-.04-.57-.22-1.12-.64-1.53-.37-.38-.99-.66-1.53-.64-.54.03-1.14.21-1.53.64-.39.42-.67.96-.64 1.53ZM121.46 710.15c.44.69.9 1.37 1.36 2.04.13.25.32.46.55.61.21.19.45.32.74.39.28.09.57.1.86.03.29-.01.56-.09.81-.26l.44-.34c.27-.26.45-.59.56-.95l.07-.57c0-.39-.1-.76-.29-1.09-.46-.68-.92-1.36-1.36-2.04-.14-.25-.32-.46-.56-.61-.2-.19-.45-.32-.73-.39-.29-.09-.57-.1-.87-.03-.28.01-.55.09-.8.26l-.45.33c-.27.27-.45.59-.55.96l-.08.57c0 .39.1.75.3 1.09Z"/></svg>