<svg xmlns="http://www.w3.org/2000/svg" width="135" height="39" fill="none" viewBox="0 0 135 39"><defs><clipPath id="a"><rect width="134" height="38" fill="#fff" fill-opacity="0" rx="0" transform="translate(.5 .5)"/></clipPath></defs><rect width="134" height="38" fill="none" rx="0" transform="translate(.5 .5)"/><g fill="#A9E52F" clip-path="url(#a)"><path d="M61.21 38.99h28.87v-8.91h-17.4v-6.24h13.25v-8.81H72.68V8.97h17.4V0H61.21v38.99ZM11.46 0H0v39l11.46-11.44V0ZM11.46 27.56 22.2 38.37c.39.4.92.62 1.47.62h15.39l-19.41-19.5-8.19 8.07Z"/><path d="m20.26 14.92-.61 4.57 4.57-.6c7.41-1 13.25-6.86 14.24-14.33L39.07 0l-4.56.6c-7.42.99-13.25 6.85-14.25 14.32Z"/><path fill-rule="evenodd" d="M44.41 0h11.47v38.98H44.41V0Z"/><path d="M123.55 16.46v22.53H135V5.11l-11.45 11.35Z"/><path d="M95.43.01v38.97l11.41-.09V16.24l6.97 6.98c.81.81 2.12.82 2.93 0l6.81-6.76L107.57.6c-.39-.39-.92-.6-1.46-.6H95.43v.01Z"/></g></svg>