<svg xmlns="http://www.w3.org/2000/svg" width="639.908" height="524" fill="none" viewBox="0 0 639.908 524"><defs><clipPath id="a"><rect width="284" height="281" fill="#fff" fill-opacity="0" rx="0" transform="translate(122.5 120.5)"/></clipPath></defs><path fill="#004953" d="M528.15 0h81.75c16.57 0 30 13.43 30 30v464c0 16.56-13.43 30-30 30H0L528.15 0Z"/><rect width="284" height="281" rx="0" transform="translate(122.5 120.5)"/><g fill="#A9E52F" clip-path="url(#a)"><path d="M205.62 120H122v282l83.62-82.64V120Z"/><path d="m205.62 319.36 78.32 78.19c2.85 2.85 6.7 4.45 10.74 4.45H407L264.62 260.66l-59.02 58.67.02.03Zm63.44-91.75-4.56 33.05 33.31-4.28c54.11-6.97 96.81-49.25 104.25-103.2l4.57-33.05-33.32 4.29c-54.11 6.97-96.81 49.25-104.25 103.19Z"/></g></svg>