<svg xmlns="http://www.w3.org/2000/svg" width="77.736" height="78.888" fill="none" viewBox="0 0 77.736 78.888"><path fill="#000" d="M59.76 25.98c9.87 2.24 19.8 4.5 17.68-9.2C75.35 3.35 49.81.87 39 .23 24.54-.62 8.21-.06 4.68 16.99c-.34 1.69.73 3.28.5 4.55-1.12 6.2-7.35 9.21-4.39 16.9.56 1.48 3.05 6.68 3.85 8.15 1.18 2.13 4.91 3.84 4.94 4.21.26 3.46-6.71 14.46-1.82 20.18 2.66 2.68 31.8 6.77 37.27 7.23 5.08.43 15.97 1.66 20.05-.93 3.05-1.93 3.6-7.27 3.5-10.57-.22-7.35-4.35-27.04-6.33-34.72-2.05-7.95-5.64-4.75-6.67-5.83-.76-.8 1.53-9.47-8.41-6.98l-1.77 4.93-6.24.15-2.58-6.6h-7.13l-1.89 5.16c-1.11.84-3.86-1.91-6.92 2.04-2.24 2.91-9.17 24.24-10.61 24.34-2.26-1.22-4.63-3.04-4.51-5.97 4.03.49 7.27-1.78 5.57-6.06-1.11-1.34-2.43-.93-3.86-.75-3.33.42-1.72 3.31-4.69 2.81-1.33-3.54-1.31-6.44 0-9.99.8-.57 11.86 8.25 8.04-2.55l-6.05-.46c1.62-7.52 10.69-2.27 14.72-3.73 4.84-1.75 2.34-6.26 3.72-8.32 1.24-1.87 16.94-.28 20.06.07 3.45.39 15.6 1.2 16.35 4.68.41 1.87-1.86 4.86.4 7.07l-.02-.02Zm.19 50.18c-7.41 1.24-38.33-3.23-46.24-5.67-4.65-1.44-4.86-2.04-5.2-7.27l57 5c.67 4.45-1.11 7.19-5.56 7.94ZM23 26.21l6.54-.43 1.93-6.13 3.88.72.25 5.75 11.85 1.04c-.04-9.43 6.33-7.32 5.06 1.05l6.82 1.18c.64 11 5.11 22.89 5.97 33.63.08 1.14.42 1.92-.75 2.75L9.51 60.21l13.49-34Zm-3.64-5.42-12.11-1.6.34-2.54 12.11 1.6-.34 2.54ZM48 12.23c-5.32-.68-17.15-2.24-21.87-1.97-6.49.38-5.22 5.09-7.25 5.83-3.01 1.09-7.29-.65-10.37-.88C12.42-1.49 37.97 2.45 50.86 4.36c10.96 1.62 23.57 3.47 24.65 16.86h-14c1.5-8.5-7.42-8.21-13.51-8.99Z"/><path fill="#FFF" d="M64.55 65.77c1.16-.83.82-1.61.75-2.75-.84-10.74-5.33-22.63-5.97-33.63l-6.82-1.18c1.28-8.37-5.09-10.48-5.06-1.05L35.6 26.12l-.25-5.75-3.88-.72-1.93 6.13-6.54.43-13.49 34 55.04 5.56Zm-29.3-34.31c27.67-4.74 24.07 33.71-1.18 26.69-14.48-4.03-12.44-24.36 1.18-26.69Z"/><path fill="#FFF" d="M61.51 21.22h14C74.42 7.83 61.82 5.98 50.86 4.36 37.97 2.45 12.42-1.49 8.51 15.21c3.08.24 7.36 1.97 10.37.88 2.03-.73.77-5.45 7.25-5.83 4.72-.27 16.55 1.29 21.87 1.97 6.09.78 15.02.49 13.51 8.99ZM13.72 70.49c7.9 2.44 38.83 6.91 46.24 5.67 4.45-.75 6.23-3.49 5.55-7.94l-56.99-5c.34 5.23.55 5.83 5.2 7.27ZM7.58 16.65l-.33 2.53 12.11 1.61.34-2.54-12.12-1.6Z"/><path fill="#000" d="M35.25 31.46c27.67-4.74 24.07 33.71-1.18 26.69-14.48-4.02-12.44-24.36 1.18-26.69Zm2.77.77-.07 5.02c3.84 2.66 7.01.05 4.56-4.02 13.28.35 13.71 20.87 1.06 23.54-20.45 4.32-25.19-20.63-5.55-24.54Z"/><path fill="#FFF" d="M43.57 56.77c12.65-2.68 12.22-23.19-1.06-23.54 2.45 4.07-.71 6.68-4.56 4.02l.07-5.02c-19.64 3.91-14.9 28.86 5.55 24.54Zm-4.34-15.66c2.07 0 3.75 1.68 3.75 3.75 0 2.07-1.68 3.75-3.75 3.75-2.08 0-3.75-1.68-3.75-3.75 0-2.07 1.67-3.75 3.75-3.75Z"/><path fill="#000" d="M39.23 48.62c2.07 0 3.75-1.68 3.75-3.75 0-2.07-1.68-3.75-3.75-3.75-2.08 0-3.75 1.68-3.75 3.75 0 2.07 1.67 3.75 3.75 3.75Z"/></svg>