<svg xmlns="http://www.w3.org/2000/svg" id="Layer_2" data-name="Layer 2" viewBox="0 0 235.84 297.69"><defs><style>.cls-1{fill:#fff}.cls-2{fill:#a8e42e}</style></defs><g id="Layer_2-2" data-name="Layer 2"><path d="M229.75 29.5c-4.01-3.29-12.26-5.14-17.37-6.35-12.3-2.91-25.17-4.86-37.59-7.5-21.62-4.6-43.19-9.32-64.85-13.72C89.51-2.22 74.1-1.13 65.87 20.31 52.73 54.55 45.23 92.29 34.8 127.53c-4.02 13.58-8.95 27.09-12.67 40.73-4.74 17.4-8.61 35.1-13.12 52.55-2.3 8.91-6.18 17.3-8.51 26.32-1.31 5.06-.09 7.31 2.97 11.25 17.26 22.21 41.78 16.2 65.63 23.23 6.25 1.84 11.94 4.46 18.42 6.11 15.22 3.86 31.45 6.88 47.04 8.65 4.91.56 12.11 2.74 16.52-.06 4-2.53 9.63-12.11 12.09-16.43 5.64-9.88 6.92-17.94 9.83-28.64 4.32-15.92 7.13-30.22 10.54-46.18 2.54-11.88 7.31-21.5 11.35-32.75 4.94-13.75 8.99-27.83 13.75-41.63 8.1-23.48 17.64-46.75 24.52-70.66 2.73-9.5 5.49-23.2-3.43-30.51Zm-1.94 29.11c-6.81 23.11-15.82 45.71-23.79 68.41-5.15 14.67-9.42 29.65-14.75 44.28-3.89 10.67-8.49 20.32-10.93 31.51-3.27 14.97-5.49 29.52-9.67 44.39-4.09 14.57-8.81 31.13-19.2 42.64-1.37 1.52-2.22 3.09-4.61 3.21-17.98-2.13-35.82-5.13-53.46-9.2-9.85-2.27-18.94-6.52-28.84-8.63-20.23-4.3-43.64-1.38-56.43-21.24-1.96-3.05.77-9.27 1.57-12.57.51-2.09.5-2.42 1.33-4.7 8.62-23.66 13.23-48.55 20.08-72.78 3.37-11.92 7.74-23.6 11.28-35.48C50.88 93.24 58.32 55.87 71.53 21.62 78.24 4.22 89.34 2.3 106.66 5.55c30.15 5.66 59.98 12.79 90.01 19.06 7.92 1.65 21.08 3.04 28.04 6.77 9.01 4.84 5.41 19.42 3.11 27.21Z"/><path d="M224.69 31.4c-6.96-3.74-20.12-5.12-28.04-6.77-30.03-6.27-59.86-13.39-90.01-19.06-17.32-3.25-28.42-1.33-35.13 16.07C58.3 55.88 50.86 93.25 40.37 128.47c-3.54 11.88-7.91 23.56-11.28 35.48-6.86 24.23-11.46 49.12-20.08 72.78-.83 2.28-.82 2.61-1.33 4.7-.8 3.3-3.53 9.53-1.57 12.57 12.78 19.86 36.2 16.94 56.43 21.24 9.9 2.1 18.98 6.36 28.84 8.63 17.65 4.06 35.48 7.07 53.46 9.2 2.39-.12 3.24-1.69 4.61-3.21 10.39-11.51 15.11-28.08 19.2-42.64 4.18-14.88 6.39-29.42 9.67-44.39 2.45-11.19 7.05-20.85 10.93-31.51 5.33-14.63 9.61-29.61 14.75-44.28 7.96-22.7 16.97-45.3 23.79-68.41 2.3-7.79 5.9-22.37-3.11-27.21Zm-8.31 48.61c-6.82 16.47-11.53 33.94-17.16 50.82-6.06 18.17-15.27 35.29-21.46 53.49-5.04 14.85-7.68 28.85-11.54 43.85-1.82 7.06-4.16 14.05-6.11 21.08-2.58 9.3-4.28 20.16-9.17 28.63-1.15 1.99-1.94 1.66-3.58 2.73-.44.29-.52.86-.76 1.05-4.31 3.45-18.32.28-23.65-.52-1.92-.29-4.21-.15-6.17-.46-4.04-.66-7.85-2.41-11.79-3.46-23.4-6.26-48.47-10.19-71.27-17.91-21.4-7.24-21.52-22.62-14.33-41.72 1.14-3.04 3.19-6.05 4.21-9.06 4.18-12.42 7.38-25.29 11.29-37.79 2.47-7.91 5.65-15.63 7.88-23.63 1.98-7.12 2.97-14.48 4.9-21.63 3.15-11.63 7.25-22.96 10.03-34.74 1.92-8.12 2.83-16.29 4.56-24.29.89-4.13 2.63-7.8 3.74-11.85.46-.83 1.2-1.12 2.13-1.02-.81-3.52 1.75-6.48 2.91-9.53 3.35-8.82 6.14-22.55 13.84-28.61 4.24-3.34 11.26-4.88 16.57-5.31 9.11-.73 19.24 3.89 28.18 4.96 18.34 2.21 33.95 6.99 51.54 12.11 9.67 2.82 20.15 5.07 29.39 9.06 8.53 3.69 12.54 6.42 13.95 16.22 1.6 11.1-4.25 18.15-8.13 27.53Z" class="cls-1"/><path d="M210.32 41.14c-9.51-4.24-20.17-6.42-30.15-9.3-18-5.2-33.35-9.84-52.12-12.2-6.72-.84-15.26-4.67-21.97-5.03-3.69-.2-13.72 1.58-16.79 3.59-2.31 1.51-4.94 4.98-6.16 7.43-3.51 7-5.81 14.85-8.89 21.96-1.95 4.52-2.14 7.66-3.55 11.7-.37 1.05-1.19 1.74-1.58 2.73-2.21 5.56-2.29 11.71-3.39 17.5-2.92 15.31-8.14 30.1-12.35 45.03-2.17 7.71-3.27 15.75-5.37 23.48-3.61 13.26-8.93 27.08-13.12 40.28-2.35 7.39-4.26 15.37-6.85 22.66-1.06 2.96-2.82 5.5-3.92 8.35-3.2 8.33-6.42 23.88.91 30.78 4.73 4.45 17.89 8 24.4 9.75 18.93 5.09 38.21 8.67 57.16 13.79 3.23.87 7.78 2.94 10.85 3.41 2 .31 4.35.14 6.5.46 5.79.86 11.62 2.77 17.59 1.91 1.14-.16 2.8-1.23 3.46-2.17 1.31-1.88 4.02-8.97 4.84-11.41 2.19-6.55 3.4-13.9 5.25-20.62 1.67-6.06 3.92-12.01 5.44-18.1 3.55-14.2 6-27.35 10.62-41.45 7.06-21.55 17.52-41.49 24.37-63.18 4.66-14.73 9.45-30.76 15.34-45.02 4.13-10 11.55-19.57 6.61-31.19-1.17-2.76-4.48-3.95-7.13-5.13Zm-100.21-2.39c1.45-.07 5.67.11 7.02.44 1.75.43 6.91 3.79 5.64 6.01-3.17 2.49-4.9-1.06-6.82-1.84-1.42-.57-3.87-.41-5.46-.84-2.99-.8-4.37-3.58-.37-3.78Zm-6.44 10.08c1.36-.38 2.76-.68 4.16-.81 3.49-.33 6.85-.18 10.19.88 1.51.48 7.26 2.76 6.74 4.75-2.1 3.6-6.16-.21-9.05-1.11-2.18-.67-5.67-.61-7.95-.29-3.06.43-7.08 3.11-9.11-.91-.08-.89 4.1-2.26 5.02-2.52ZM93.63 63.4c.19-.86 6.66-2.64 7.85-2.83 5.56-.9 14.9.14 19.78 3.01 1.42.83 4.74 2.86 3.11 4.81-.21.25-1.08.7-1.41.75-2.95.44-4.35-2.17-6.84-3.07-2.86-1.03-8.68-1.77-11.69-1.56-1.84.13-11.73 3.23-10.8-1.11Zm-15.41 79.07c-3.99-18.95-3.57-38.91 7.66-55.38 4.63-6.8 9.22-10.85 17.12-13.05.6-.17.95-.75 1.77-.89 1.18-.19 6.65 1.12 8.01 1.57 3 1.01 6.52 4.15 9.46 5.13 2.09.69 3.67-.19 3.87 3.13.35 5.79-.7 13.33-1.3 19.19-.14 1.34.46 3.06-.19 4.11-.77 1.24-4.44 2.67-5.95 2.71-.9.02-1.62-.33-2.55-.29-.71.04-6.1 1.46-6.54 1.77-.27.19-3.93 4.77-4.14 5.14-6.44 11.35 1.88 34.79 9.22 44.63 1.46 1.96 4 4.92 5.67 6.76.41.46 2.38 2.52 2.72 2.6 2.78-.29 5.41-.63 7.95-1.88 1.79-.88 3.56-3.33 4.98-3.64 1-.22 5.03-.09 5.64.68.46.58 1.12 4.46 1.51 5.62.43 1.29.96 2.91 1.5 4.14 1.27 2.88 4.83 7.22 5.56 9.72.05.17.16 3.2.13 3.46-.09 1.01-3.54 5.26-4.52 6.1-3.35 2.88-5.96 3.24-10.29 3.58-36 2.9-50.76-23.82-57.3-54.92Zm65.13 80.72c-.31-1.94 5.66-4.31 7.27-2.74.84 4.06-4.81 5.41-7.27 2.74Zm8.92-10.33c-.27 1.01-4.8 3.66-5.93 4.05-3.08 1.07-8.47 2.11-10.59-.99 1.8-2.54 5.13-1.88 7.88-2.72 1.77-.54 4.14-2.39 5.62-2.68 1.59-.31 3.51.55 3.02 2.34Zm1.35-10.56c-5.55 4.37-13.92 7.69-21.04 7.17-2.69-.2-9.64-1.82-4.56-4.59 5.45.39 9.31.66 14.44-1.48 2.69-1.12 8.28-5.49 10.1-5.81 3.81-.67 3.7 2.63 1.06 4.71Z" class="cls-1"/><path d="M135.52 197.39c4.33-.35 6.93-.7 10.29-3.58.98-.84 4.43-5.09 4.52-6.1.02-.26-.09-3.29-.13-3.46-.73-2.5-4.3-6.84-5.56-9.72-.54-1.22-1.07-2.84-1.5-4.14-.39-1.16-1.05-5.04-1.51-5.62-.61-.77-4.65-.9-5.64-.68-1.42.31-3.19 2.77-4.98 3.64-2.54 1.24-5.17 1.58-7.95 1.88-.34-.08-2.31-2.14-2.72-2.6-1.67-1.84-4.21-4.8-5.67-6.76-7.34-9.85-15.66-33.28-9.22-44.63.21-.37 3.87-4.95 4.14-5.14.45-.32 5.83-1.74 6.54-1.77.93-.05 1.64.31 2.55.29 1.51-.04 5.18-1.47 5.95-2.71.65-1.05.06-2.77.19-4.11.59-5.86 1.64-13.4 1.3-19.19-.2-3.32-1.78-2.44-3.87-3.13-2.94-.97-6.46-4.12-9.46-5.13-1.36-.45-6.83-1.76-8.01-1.57-.82.13-1.18.72-1.77.89-7.9 2.21-12.49 6.26-17.12 13.05-11.22 16.48-11.65 36.43-7.66 55.38 6.55 31.1 21.3 57.82 57.3 54.92Zm-18-6.02c-14.64-5.2-23.82-19.62-28.61-33.73-7.56-22.25-11.5-46.12 1.62-67.22 2.03-3.26 8.47-10.86 11.88-12.33 6.21-2.67 13.49 3.82 18.7 6.36.49 1.41-.81 2.2-.96 3.43l-.32 16.43c-1.94.17-4.24-.24-6.13 0-1.27.16-7.03 1.9-7.87 2.65-.72.64-1.21 2.05-1.91 2.82-1.61 1.78-2.41 1.59-3.7 4.26-3.17 6.5-3.66 10.39-2.92 17.63 1.25 12.22 7.76 26.16 15.58 35.49 2.98 3.55 8.39 11.03 13.56 7.62 2.65-1.75 3.63-1.67 6.39-2.89 1.25-.55 2.87-1.49 3.9-2.4.36-.36.57-.16.82.18.5.66 1.6 5.01 2.21 6.41 1.46 3.36 3.78 7.03 5.91 10-1.97 1.85-3.69 6.04-6.52 6.73-2.17.53-3.94.05-5.88.06-5.67.02-10.26.46-15.75-1.49ZM104.43 64.51c3.02-.22 8.83.52 11.69 1.56 2.49.9 3.89 3.51 6.84 3.07.34-.05 1.2-.5 1.41-.75 1.63-1.96-1.69-3.98-3.11-4.81-4.88-2.87-14.22-3.91-19.78-3.01-1.19.19-7.67 1.97-7.85 2.83-.94 4.34 8.96 1.24 10.8 1.11ZM152.56 197.59c-1.82.32-7.41 4.69-10.1 5.81-5.13 2.14-8.98 1.86-14.44 1.48-5.08 2.76 1.87 4.39 4.56 4.59 7.12.52 15.49-2.79 21.04-7.17 2.64-2.08 2.75-5.38-1.06-4.71Z"/><path d="M26.62 207.39c-3.96 10.82-10.1 24.08-5.9 35.69 4.25 11.77 16.47 13.75 27.08 16.65 15.38 4.21 30.29 9.54 45.98 12.65 7.79 1.54 15.66 2.41 23.38 4.29s15.04 3.75 22.85 3.83c10.3.1 10.31-15.9 0-16-6.68-.07-13.01-1.9-19.46-3.46s-13.14-2.32-19.73-3.55c-13.99-2.6-27.69-6.53-41.24-10.83-4.76-1.51-9.49-2.79-14.32-4.02-2.7-.69-7.03-1.39-8.88-3.76-2.28-2.92-.53-8.43.3-11.57 1.41-5.35 3.48-10.49 5.37-15.68 3.54-9.69-11.91-13.86-15.43-4.25Z" class="cls-2"/><path d="M149.25 210.52c-1.48.29-3.85 2.14-5.62 2.68-2.75.84-6.08.18-7.88 2.72 2.12 3.09 7.52 2.06 10.59.99 1.12-.39 5.65-3.03 5.93-4.05.48-1.79-1.44-2.66-3.02-2.34ZM110.48 42.53c1.59.43 4.05.26 5.46.84 1.92.78 3.66 4.33 6.82 1.84 1.27-2.22-3.89-5.58-5.64-6.01-1.35-.33-5.56-.51-7.02-.44-4 .2-2.62 2.98.37 3.78ZM143.35 223.19c2.46 2.67 8.11 1.32 7.27-2.74-1.6-1.57-7.58.81-7.27 2.74Z"/><path d="M139.16 192.8c2.83-.69 4.56-4.88 6.52-6.73-2.13-2.96-4.44-6.64-5.91-10-.61-1.41-1.71-5.75-2.21-6.41-.26-.34-.47-.54-.82-.18-1.04.91-2.65 1.85-3.9 2.4-2.76 1.22-3.74 1.14-6.39 2.89-5.17 3.42-10.58-4.07-13.56-7.62-7.82-9.33-14.33-23.27-15.58-35.49-.74-7.24-.24-11.13 2.92-17.63 1.3-2.66 2.09-2.48 3.7-4.26.7-.78 1.19-2.18 1.91-2.82.84-.75 6.6-2.49 7.87-2.65 1.89-.24 4.19.17 6.13 0l.32-16.43c.16-1.23 1.45-2.02.96-3.43-5.22-2.54-12.5-9.04-18.7-6.36-3.4 1.47-9.85 9.07-11.88 12.33-13.12 21.11-9.18 44.97-1.62 67.22 4.79 14.11 13.97 28.53 28.61 33.73 5.5 1.95 10.08 1.51 15.75 1.49 1.94 0 3.71.48 5.88-.06ZM103.13 55.25c.58-.17 1.16-.29 1.75-.39.01 0 .63-.09.26-.04.14-.02.27-.03.41-.05.35-.04.71-.07 1.07-.09 1.57-.11 3.14-.09 4.71.04 1.4.12 2.69.32 4.17.72.34.09.67.2 1 .31.16.05.32.11.47.17.33.12-.03-.02.15.06.28.13.55.26.82.41.13.07.25.15.37.23.08.05.49.35.14.07.85.66 2 .83 2.83 0 .69-.69.86-2.16 0-2.83-2.7-2.1-6.15-2.79-9.48-3.11s-6.62-.26-9.72.63c-2.47.71-1.42 4.57 1.06 3.86Z" class="cls-2"/><path d="M210.55 36.26c-9.24-4-19.72-6.25-29.39-9.06-17.59-5.12-33.2-9.9-51.54-12.11-8.94-1.08-19.07-5.7-28.18-4.96-5.31.43-12.33 1.97-16.57 5.31-7.7 6.06-10.49 19.79-13.84 28.61-1.15 3.04-3.71 6.01-2.91 9.53-.93-.1-1.67.19-2.13 1.02-1.1 4.05-2.85 7.72-3.74 11.85-1.73 8.01-2.64 16.17-4.56 24.29-2.78 11.78-6.88 23.11-10.03 34.74-1.94 7.15-2.92 14.51-4.9 21.63-2.23 8-5.4 15.72-7.88 23.63-3.91 12.51-7.1 25.38-11.29 37.79-1.01 3.01-3.06 6.02-4.21 9.06-7.19 19.1-7.08 34.48 14.33 41.72 22.8 7.72 47.87 11.65 71.27 17.91 3.93 1.05 7.75 2.81 11.79 3.46 1.95.32 4.25.17 6.17.46 5.33.81 19.33 3.98 23.65.52.24-.19.32-.77.76-1.05 1.64-1.07 2.44-.74 3.58-2.73 4.89-8.48 6.59-19.33 9.17-28.63 1.95-7.03 4.3-14.02 6.11-21.08 3.86-15 6.5-29 11.54-43.85 6.18-18.2 15.39-35.32 21.46-53.49 5.63-16.88 10.34-34.35 17.16-50.82 3.89-9.38 9.73-16.43 8.13-27.53-1.41-9.8-5.42-12.53-13.95-16.22Zm.29 41.2c-5.89 14.26-10.68 30.28-15.34 45.02-6.86 21.69-17.31 41.63-24.37 63.18-4.62 14.1-7.06 27.25-10.62 41.45-1.53 6.1-3.78 12.04-5.44 18.1-1.85 6.73-3.05 14.07-5.25 20.62-.82 2.44-3.53 9.53-4.84 11.41-.66.95-2.32 2.01-3.46 2.17-5.96.86-11.79-1.06-17.59-1.91-2.15-.32-4.5-.15-6.5-.46-3.06-.47-7.62-2.54-10.85-3.41-18.95-5.12-38.23-8.7-57.16-13.79-6.51-1.75-19.67-5.3-24.4-9.75-7.34-6.9-4.11-22.45-.91-30.78 1.1-2.85 2.86-5.39 3.92-8.35 2.6-7.29 4.51-15.27 6.85-22.66 4.19-13.2 9.51-27.01 13.12-40.28 2.1-7.73 3.2-15.77 5.37-23.48 4.21-14.93 9.42-29.72 12.35-45.03 1.11-5.79 1.18-11.94 3.39-17.5.39-.99 1.22-1.68 1.58-2.73 1.42-4.05 1.6-7.19 3.55-11.7 3.08-7.1 5.37-14.96 8.89-21.96 1.23-2.45 3.86-5.92 6.16-7.43 3.06-2 13.1-3.79 16.79-3.59 6.71.37 15.25 4.19 21.97 5.03 18.76 2.36 34.12 7 52.12 12.2 9.98 2.88 20.65 5.06 30.15 9.3 2.65 1.18 5.96 2.37 7.13 5.13 4.94 11.62-2.48 21.19-6.61 31.19Z"/><path d="M107.76 52.26c2.28-.32 5.77-.39 7.95.29 2.9.9 6.95 4.71 9.05 1.11.52-1.99-5.23-4.27-6.74-4.75-3.34-1.07-6.69-1.21-10.19-.88-1.4.13-2.8.43-4.16.81-.92.26-5.1 1.62-5.02 2.52 2.03 4.02 6.04 1.35 9.11.91Z"/></g></svg>