<?xml version="1.0" encoding="UTF-8"?>
<!DOCTYPE svg PUBLIC "-//W3C//DTD SVG 1.1//EN" "http://www.w3.org/Graphics/SVG/1.1/DTD/svg11.dtd">
<svg xmlns="http://www.w3.org/2000/svg" xmlns:xlink="http://www.w3.org/1999/xlink">
	<defs>
    <clipPath id="a">
      <rect width="145.41" height="93.398" fill="#fff" fill-opacity="0" rx="0" transform="rotate(-12.777 147.08 14.207)"/>
    </clipPath>
  
    <clipPath id="a">
      <rect width="145.41" height="93.398" fill="#fff" fill-opacity="0" rx="0" transform="scale(-1 1) rotate(-18.956 59.12 532.083)"/>
    </clipPath>
  </defs>
<symbol id="arrow-down-bold" viewBox="0 0 15.942 16.947">
  <path fill-rule="evenodd" d="M9.48 1.5v14.66h-3V1.5c0-.84.66-1.5 1.5-1.5s1.5.66 1.5 1.5Z"/>
  <path fill-rule="evenodd" d="m15.34 11.7-6.45 4.93-1.82-2.39 6.45-4.92 1.82 2.38Zm-1.82-2.36v-.02a1.48 1.48 0 0 1 2.1.28c.51.66.39 1.59-.28 2.1h-.03l-1.79-2.36ZM8.9 16.6l-.01.03c-.66.51-1.59.38-2.1-.28-.51-.67-.39-1.6.28-2.11l.03.01 1.8 2.35Z"/>
  <path fill-rule="evenodd" d="M7.08 16.61.6 11.74l1.8-2.4 6.48 4.87-1.8 2.4Zm1.78-2.4h.02c.68.5.81 1.43.3 2.1-.5.67-1.43.8-2.1.3v-.03l1.78-2.37ZM.63 11.73l-.03.01c-.67-.51-.8-1.43-.3-2.1.51-.68 1.43-.81 2.1-.3l.01.03-1.78 2.36Z"/>
</symbol>
<symbol id="arrow-down-circle" viewBox="0 0 53.196 53.196"><g fill="none">
  <circle cx="26.598" cy="26.598" r="26.598" fill="currentColor"/>
  <path fill="#fff" d="M28.11 17.77v16.74h-3V17.77c0-.84.66-1.5 1.5-1.5s1.5.66 1.5 1.5Z"/>
  <path fill="#fff" d="m35.69 30.37-8.17 6.24-1.82-2.38 8.16-6.24 1.83 2.38Zm-1.83-2.36v-.02c.67-.51 1.6-.39 2.11.28.51.66.38 1.59-.28 2.1h-.03l-1.8-2.36Zm-6.33 8.57-.01.03c-.66.51-1.59.39-2.1-.28a1.48 1.48 0 0 1 .28-2.1h.03l1.8 2.35Z"/>
  <path fill="#fff" d="m25.71 36.58-8.21-6.16 1.81-2.4 8.2 6.16-1.8 2.4Zm1.77-2.39.03-.01c.67.51.81 1.43.3 2.1-.5.67-1.43.81-2.1.3v-.03l1.77-2.36Zm-9.95-3.78-.03.01c-.67-.51-.8-1.43-.29-2.11.5-.67 1.42-.8 2.1-.29v.02l-1.78 2.37Z"/>
</g></symbol>
<symbol id="arrow-down" viewBox="0 0 33.065 35.41">
  <path fill="currentColor" fill-rule="evenodd" d="M18.07 1.5v32.1h-3V1.5c0-.84.66-1.5 1.5-1.5s1.5.66 1.5 1.5Z"/>
  <path fill="currentColor" fill-rule="evenodd" d="M32.47 23.64 17.48 35.09l-1.82-2.38 14.98-11.46 1.83 2.39Zm-1.83-2.36v-.03a1.5 1.5 0 0 1 2.11.28c.51.67.38 1.6-.28 2.11l-.03-.01-1.8-2.35ZM17.48 35.06v.03c-.67.51-1.59.39-2.1-.28a1.48 1.48 0 0 1 .28-2.1h.02l1.8 2.35Z"/>
  <path fill="currentColor" fill-rule="evenodd" d="M15.67 35.03.6 23.71l1.8-2.4 15.07 11.32-1.8 2.4Zm1.77-2.39.03-.01c.67.51.8 1.43.3 2.1-.51.67-1.43.81-2.1.3l-.01-.03 1.78-2.36ZM.63 23.71H.6c-.67-.5-.8-1.43-.3-2.1.51-.67 1.43-.8 2.1-.3l.01.03-1.78 2.37Z"/>
</symbol>
<symbol id="arrow-left" viewBox="0 0 35.411 33.065">
  <path fill-rule="evenodd" d="M33.91 18.07H1.8v-3h32.11c.84 0 1.5.66 1.5 1.5s-.66 1.5-1.5 1.5Z"/>
  <path fill-rule="evenodd" d="M11.77 32.47.31 17.48l2.38-1.82 11.46 14.98-2.38 1.83Zm2.35-1.83h.03c.51.67.39 1.6-.28 2.11-.67.51-1.59.38-2.1-.28v-.03l2.35-1.8ZM.34 17.48H.31a1.48 1.48 0 0 1 .28-2.1 1.48 1.48 0 0 1 2.1.28v.02l-2.35 1.8Z"/>
  <path fill-rule="evenodd" d="M.37 15.67 11.69.6l2.4 1.8L2.77 17.47l-2.4-1.8Zm2.39 1.77.01.03c-.51.67-1.43.8-2.1.3-.67-.51-.8-1.43-.3-2.1l.03-.01 2.36 1.78ZM11.69.63V.6c.5-.67 1.43-.8 2.1-.3.67.51.8 1.43.3 2.1l-.03.01L11.69.63Z"/>
</symbol>
<symbol id="arrow-right-bold" viewBox="0 0 15.368 14.476">
  <path fill-rule="evenodd" d="M1.5 5.72h12.17v3H1.5c-.84 0-1.5-.66-1.5-1.5s.66-1.5 1.5-1.5Z"/>
  <path fill-rule="evenodd" d="m10.68.59 4.37 5.72-2.38 1.82-4.38-5.72L10.68.59ZM8.32 2.42l-.03-.01c-.51-.67-.38-1.59.29-2.1a1.48 1.48 0 0 1 2.1.28l-.01.03-2.35 1.8Zm6.7 3.88.03.01c.51.66.39 1.59-.28 2.1s-1.59.39-2.1-.28V8.1l2.35-1.8Z"/>
  <path fill-rule="evenodd" d="m15.03 8.12-4.32 5.75-2.4-1.81 4.32-5.74 2.4 1.8Zm-2.39-1.77-.01-.03c.51-.67 1.43-.81 2.1-.3.67.5.8 1.43.3 2.1H15l-2.36-1.77Zm-1.93 7.49v.03c-.5.67-1.43.8-2.1.29-.67-.5-.8-1.42-.3-2.1h.03l2.37 1.78Z"/>
</symbol>
<symbol id="arrow-right" viewBox="0 0 35.411 33.065">
  <path fill-rule="evenodd" d="M1.5 14.99h32.1v3H1.5c-.85 0-1.5-.66-1.5-1.5s.65-1.5 1.5-1.5Z"/>
  <path fill-rule="evenodd" d="m23.64.59 11.45 14.99-2.38 1.82L21.25 2.41 23.64.59Zm-2.36 1.83-.03-.01c-.51-.67-.38-1.59.28-2.1.67-.51 1.6-.39 2.11.28l-.01.03-2.35 1.8Zm13.78 13.15.03.01c.51.66.39 1.59-.28 2.1s-1.59.39-2.1-.28v-.03l2.35-1.8Z"/>
  <path fill-rule="evenodd" d="M35.03 17.39 23.71 32.46l-2.4-1.81 11.32-15.06 2.4 1.8Zm-2.39-1.77-.01-.03c.51-.67 1.43-.81 2.1-.3.67.5.81 1.43.3 2.1H35l-2.36-1.77Zm-8.93 16.81v.03c-.5.67-1.43.8-2.1.29-.67-.5-.8-1.42-.3-2.1h.03l2.37 1.78Z"/>
</symbol>
<symbol id="arrow-up-bold" viewBox="0 0 15.942 16.948">
  <path fill-rule="evenodd" d="M6.45 15.44V.78h3v14.66c0 .84-.66 1.5-1.5 1.5s-1.5-.66-1.5-1.5Z"/>
  <path fill-rule="evenodd" d="M.59 5.24 7.04.31l1.82 2.38-6.45 4.93L.59 5.24Zm1.83 2.35-.01.03c-.67.51-1.59.39-2.1-.28a1.48 1.48 0 0 1 .28-2.1h.03l1.8 2.35ZM7.03.34l.01-.03a1.48 1.48 0 0 1 2.1.28c.51.67.39 1.59-.28 2.1h-.03L7.03.34Z"/>
  <path fill-rule="evenodd" d="m8.85.33 6.48 4.87-1.8 2.4-6.48-4.87 1.8-2.4Zm-1.77 2.4h-.03c-.67-.51-.8-1.43-.3-2.1.5-.67 1.43-.8 2.1-.3v.03L7.08 2.73ZM15.3 5.2h.03c.67.51.8 1.43.3 2.1-.5.67-1.43.8-2.1.3v-.03L15.3 5.2Z"/>
</symbol>
<symbol id="arrow-up" viewBox="0 0 33.065 35.41"><g fill="none">
  <path fill="currentColor" fill-rule="evenodd" d="M14.99 33.91V1.8h3v32.11c0 .84-.66 1.5-1.5 1.5s-1.5-.66-1.5-1.5Z"/>
  <path fill="currentColor" fill-rule="evenodd" d="M.59 11.77 15.58.31l1.82 2.38L2.41 14.15.59 11.77Zm1.83 2.35-.01.03c-.67.51-1.59.39-2.1-.28a1.48 1.48 0 0 1 .28-2.1h.03l1.8 2.35ZM15.57.34l.01-.03a1.48 1.48 0 0 1 2.1.28c.51.67.39 1.59-.28 2.1h-.03L15.57.34Z"/>
  <path fill="currentColor" fill-rule="evenodd" d="m17.39.37 15.07 11.32-1.81 2.4L15.59 2.77l1.8-2.4Zm-1.77 2.39-.03.01c-.67-.51-.81-1.43-.3-2.1.5-.67 1.43-.8 2.1-.3V.4l-1.77 2.36Zm16.81 8.93h.03c.67.5.8 1.43.29 2.1-.5.67-1.42.8-2.1.3v-.03l1.78-2.37Z"/>
</g></symbol>
<symbol id="inst" viewBox="0 0 47.007 47.007">
  <path fill="#FF9841" fill-rule="evenodd" d="M47 23.5C47 36.48 36.48 47 23.5 47S0 36.48 0 23.5 10.52 0 23.5 0 47 10.52 47 23.5Z"/>
  <path d="M23.5 14.42c2.95 0 3.3.01 4.47.07 1.08.05 1.67.23 2.06.38.51.2.88.44 1.27.83.39.38.63.75.83 1.27.15.39.33.98.38 2.06.05 1.16.07 1.51.07 4.47 0 2.95-.02 3.3-.07 4.47-.05 1.08-.23 1.67-.38 2.06-.21.51-.44.88-.83 1.27a3.3 3.3 0 0 1-1.27.83c-.39.15-.98.33-2.06.38-1.17.05-1.52.07-4.47.07-2.96 0-3.31-.02-4.47-.07-1.08-.05-1.67-.23-2.06-.38-.51-.21-.88-.44-1.27-.83a3.3 3.3 0 0 1-.83-1.27c-.15-.39-.33-.98-.38-2.06-.06-1.17-.07-1.52-.07-4.47 0-2.96.01-3.31.07-4.47.05-1.08.23-1.67.38-2.06.2-.51.44-.88.83-1.27a3.3 3.3 0 0 1 1.27-.83c.39-.15.98-.33 2.06-.38 1.16-.06 1.51-.07 4.47-.07Zm0-1.99c-3.01 0-3.38.01-4.57.06-1.18.05-1.98.24-2.68.52-.73.28-1.35.66-1.97 1.27a5.41 5.41 0 0 0-1.27 1.97c-.28.7-.47 1.5-.52 2.68-.05 1.19-.06 1.56-.06 4.57 0 3.01.01 3.38.06 4.56.05 1.18.24 1.99.52 2.69.28.73.66 1.35 1.27 1.96.62.62 1.23 1 1.97 1.28.7.28 1.5.46 2.68.51 1.19.05 1.56.07 4.57.07 3.01 0 3.38-.02 4.56-.07 1.18-.05 1.99-.23 2.69-.51.73-.28 1.35-.66 1.96-1.28.62-.61 1-1.23 1.28-1.96.28-.7.46-1.51.51-2.69.05-1.18.07-1.55.07-4.56s-.02-3.38-.07-4.57c-.05-1.18-.23-1.98-.51-2.68-.28-.73-.66-1.35-1.28-1.97-.61-.61-1.23-.99-1.96-1.27-.7-.28-1.51-.47-2.69-.52-1.18-.05-1.55-.06-4.56-.06Z"/>
  <path d="M23.5 17.81c-3.14 0-5.69 2.54-5.69 5.69 0 3.14 2.54 5.69 5.69 5.69 3.14 0 5.69-2.55 5.69-5.69 0-3.15-2.55-5.69-5.69-5.69Zm0 9.38c-2.04 0-3.69-1.66-3.69-3.69 0-2.04 1.65-3.69 3.69-3.69 2.03 0 3.69 1.65 3.69 3.69a3.7 3.7 0 0 1-3.69 3.69Zm7.24-9.6c0 .73-.6 1.32-1.33 1.32-.73 0-1.33-.59-1.33-1.32a1.33 1.33 0 1 1 2.66 0Z"/>
</symbol>
<symbol id="linkedin" viewBox="0 0 47.007 47.007">
  <path fill="#FF9841" fill-rule="evenodd" d="M47 23.5C47 36.48 36.48 47 23.5 47S0 36.48 0 23.5 10.52 0 23.5 0 47 10.52 47 23.5Z"/>
  <path d="M34.22 25.82v7.93h-4.6v-7.4c0-1.87-.67-3.13-2.33-3.13-1.27 0-2.03.85-2.36 1.68-.13.29-.16.7-.16 1.12v7.72h-4.6s.07-12.53 0-13.83h4.6v1.97s-.02.02-.03.04h.03v-.04c.61-.95 1.71-2.29 4.15-2.29 3.03 0 5.29 1.98 5.29 6.23h.01ZM15.37 13.25c-1.57 0-2.6 1.03-2.6 2.39 0 1.35 1 2.39 2.54 2.39h.03c1.6 0 2.6-1.07 2.6-2.39-.03-1.36-1-2.39-2.57-2.39Zm-2.33 20.5h4.6V19.91h-4.6v13.84Z"/>
</symbol>
<symbol id="tabs-circle-1" viewBox="0 0 70.28 70.28">
  <circle cx="35.14" cy="35.14" r="35.14" fill="currentColor" class="icon__circle"/>
  <path fill="#fff" d="M31.97 21.24h-8.18v27.8l8.18-8.15V21.24Z" class="icon__letter"/>
  <path fill="#fff" d="m31.97 40.89 7.65 7.71c.28.28.65.43 1.05.43h10.97L37.8 35.14l-5.84 5.75h.01Zm6.27-9.01-.43 3.26 3.25-.44c5.28-.7 9.45-4.88 10.15-10.2l.44-3.26-3.25.43c-5.29.71-9.45 4.89-10.16 10.21Z" class="icon__letter"/>
</symbol>
<symbol id="tabs-circle-2" viewBox="0 0 70.28 70.28"><g fill="none">
  <circle cx="35.14" cy="35.14" r="35.14" fill="currentColor" class="icon__circle"/>
  <path fill="#fff" fill-rule="evenodd" d="M31.05 21.25h8.17v27.78h-8.17V21.25Z" class="icon__letter"/>
</g></symbol>
<symbol id="tabs-circle-3" viewBox="0 0 70.28 70.28"><g fill="none">
  <circle cx="35.14" cy="35.14" r="35.14" fill="currentColor" class="icon__circle"/>
  <path fill="#fff" d="M24.85 49.03h20.57v-6.34h-12.4v-4.45h9.44v-6.28h-9.44v-4.33h12.4v-6.39H24.85v27.79Z" class="icon__letter"/>
</g></symbol>
<symbol id="tabs-circle-4" viewBox="0 0 70.28 70.28"><g fill="none">
  <circle cx="35.14" cy="35.14" r="35.14" fill="currentColor" class="icon__circle"/>
  <path fill="#fff" d="M41.08 32.98v16.06h8.16V24.89l-8.16 8.09ZM21.03 21.25v27.78l8.14-.07V32.82l4.97 4.98c.57.57 1.51.58 2.08 0l4.86-4.82-11.39-11.31c-.28-.27-.65-.43-1.04-.43h-7.62v.01Z" class="icon__letter"/>
</g></symbol>
<symbol id="wave-long-left" viewBox="0 0 308.992 57.586">
  <path d="M2.58 22.99C8.79 16.88 15.83 11.65 23.8 8.06c6.89-3.1 14.39-4.79 21.93-5.04 15.99-.51 31.51 5.17 45.34 12.77 3.58 1.96 7.1 3.9 10.97 5.22a43.97 43.97 0 0 0 10.52 2.19c6.78.58 13.6-.52 20.12-2.37 13.65-3.86 26.34-10.64 40.32-13.44 6.46-1.3 13.17-1.74 19.69-.64 5.95 1 11.8 2.93 17.19 5.65 8.52 4.3 19.66 12.66 16.78 23.66-1.6 6.13-6.87 11.44-12.08 14.74-4.33 2.74-9.95 4.67-15.1 3.48-5.52-1.28-7.97-6.18-8.13-11.53-.17-6.07 3.13-11.15 7.91-14.66 5.02-3.68 10.98-5.92 16.93-7.58 3.41-.95 6.9-1.81 10.42-2.2 4.64-.52 9.31-.39 13.96-.09 9.39.6 18.73 1.6 28.06-.28 9.33-1.88 17.28-5.38 26.11-7.38 4.21-.96 8.48-1.5 12.8-1.26 1.93.11 1.92-2.89 0-3-9.41-.52-18.49 2.56-27.34 5.35-4.48 1.42-8.99 2.8-13.62 3.64-4.63.84-9.74.93-14.62.7-9.85-.45-19.69-1.92-29.49-.06-6.43 1.22-12.88 3.16-18.77 6.03-5.51 2.69-11 6.64-13.63 12.37-2.63 5.73-2.53 13.12 1.25 18.14 3.43 4.55 9.19 5.68 14.56 4.86 6.54-1 12.25-4.74 16.82-9.38 4.28-4.35 7.81-10.08 7.36-16.4-.39-5.52-3.52-10.32-7.44-14.04-4.56-4.33-10.16-7.46-15.95-9.84-5.79-2.38-11.74-3.92-17.88-4.4-15.09-1.19-29.43 4.67-43.23 9.95-6.69 2.56-13.48 5.05-20.56 6.33-7.08 1.28-14.28 1.06-21.14-1.1-4.02-1.26-7.61-3.24-11.29-5.26-3.68-2.02-7.76-4.04-11.78-5.76C73.12 4.16 65.12 1.7 56.84.6c-7.74-1.03-15.62-.79-23.23.99-8.13 1.89-15.79 5.53-22.59 10.35-3.77 2.67-7.28 5.68-10.58 8.92-1.38 1.36.74 3.48 2.12 2.12l.02.01Z"/>
</symbol>
<symbol id="wave-long-right" viewBox="0 0 294.849 56.934">
  <path d="M2.83 52.68C7.39 45.4 13.5 39.19 20.84 34.7c6.94-4.24 14.78-6.9 22.83-7.99 16.16-2.19 33.08 1.71 46.87 10.34 8.81 5.52 17.64 10.99 27.35 14.84 8.54 3.39 17.63 5.28 26.84 5.01 5.04-.14 10.07-.89 14.97-2.06 3.72-.89 7.52-1.92 11.05-3.41 3.04-1.29 5.97-2.87 8.87-4.44 9.57-5.19 18.93-10.88 27.78-17.24 4.34-3.12 8.63-6.41 12.46-10.15 2.67-2.61 5.51-5.64 6.7-9.26C229.63.9 214.93-.55 209 .14c-5.93.69-11.18 3.9-14.07 9.18-2.71 4.96-3.18 10.98-1.76 16.4 1.54 5.87 5.37 11.03 10.66 14.03 3.33 1.88 7.09 2.89 10.89 3.13 5.33.34 10.59-.99 15.7-2.35 5.11-1.36 10.02-2.77 15.23-2.52 3.75.18 7.5.72 11.2 1.36 8.91 1.53 17.83 3.75 26.22 7.15 3.36 1.36 6.68 2.98 9.61 5.14 1.56 1.14 3.06-1.46 1.51-2.59-6.5-4.78-14.74-7.36-22.43-9.46-7.69-2.1-16.16-3.82-24.38-4.48-4.85-.39-9.52.37-14.21 1.57-4.99 1.27-9.97 2.91-15.15 3.19-6.96.38-14-2.01-18.38-7.63-6.23-7.99-6.01-21.87 3.57-27.25 4.76-2.67 10.87-2.44 16-1.02.97.27 1.65.51 2.33.86.32.16.62.35.92.54.21.13.29.22.18.12.14.12.29.24.42.38.1.1.2.21.3.32.23.26-.13-.24.08.11.07.12.14.24.21.35.04.06.07.13.1.2.13.25-.11-.32-.01-.03.09.25.15.5.2.77.04.23-.01-.34 0 .05v.55c0 .13-.02.25-.03.38.05-.48-.02.08-.04.18-.08.32-.17.64-.27.95-.05.16-.11.31-.18.46.15-.36-.06.14-.11.22-.18.37-.37.73-.58 1.08-.97 1.66-1.9 2.75-3.21 4.17-3.3 3.57-7.12 6.67-11 9.58-8.74 6.54-18.08 12.31-27.61 17.63-3.26 1.82-6.56 3.62-9.94 5.21-.5.23-1 .46-1.5.68.49-.21-.12.05-.26.1-.8.31-1.61.57-2.42.84-4.99 1.66-10.13 2.97-15.35 3.68-9.02 1.21-18.11.42-26.8-2.26-9.34-2.87-18-7.61-26.31-12.69-3.97-2.43-7.81-5.06-11.97-7.16a75.499 75.499 0 0 0-11.14-4.56c-7.65-2.45-15.73-3.68-23.77-3.55-16.16.26-32.08 6.28-43.42 18-2.95 3.05-5.55 6.43-7.8 10.03-1.03 1.64 1.57 3.15 2.59 1.51l.01-.01Z"/>
</symbol>
<symbol id="wave-name-left" viewBox="0 0 163.661 124.439">
  
  <rect width="145.41" height="93.398" fill="none" rx="0" transform="rotate(-12.777 147.08 14.207)"/>
  <g clip-path="url(#a)">
    <path d="M.51 34.28c1.55 10.93 10.19 19.2 19.23 24.66 10.42 6.3 22.49 10.02 34.54 11.43 9.87 1.15 21.73 1.13 30.07-5.07 7.09-5.28 11.47-14.69 11.24-23.47-.11-3.91-1.11-7.94-3.79-10.9-2.84-3.14-7.04-4.18-11.14-3.78-10.04.95-18.88 7.95-21.59 17.66-2.72 9.72-.34 20.15 3.78 28.99 4.11 8.83 10.39 16.11 19.24 20.48 11.25 5.56 24.27 7.4 36.72 6.69 12.45-.7 25.44-3.94 35.74-11.35a41.34 41.34 0 0 0 6.33-5.56c1.79-1.94-1.01-4.96-2.8-3-7.67 8.32-18.68 12.67-29.63 14.67-11.63 2.11-24 1.73-35.36-1.59-9-2.63-17.07-7.13-22.44-14.95-4.97-7.25-8.38-16.14-8.58-24.97-.2-8.83 3.21-16.67 11.23-20.67 3.59-1.78 8.23-3.24 12.2-1.95 2.81.91 4.59 3.3 5.38 6.08 2.02 7.16-.86 15.68-5.61 21.17-5.98 6.89-15.25 8.11-23.91 7.89-11.12-.27-22.32-3-32.42-7.59-9.01-4.09-18.35-10.3-22.61-19.54-.92-1.99-1.49-4.08-1.8-6.24-.37-2.62-4.38-1.69-4.02.91Z"/>
  </g>
</symbol>
<symbol id="wave-name-right" viewBox="0 0 169.133 136.837">
  
  <rect width="145.41" height="93.398" fill="none" rx="0" transform="scale(-1 1) rotate(-18.956 59.12 532.083)"/>
  <g clip-path="url(#a)">
    <path d="M168.41 49.39c-2.72 10.7-12.19 17.99-21.77 22.45-11.03 5.14-23.44 7.54-35.57 7.65-9.94.08-21.72-1.22-29.35-8.29-6.48-6-9.83-15.83-8.65-24.54.53-3.87 1.96-7.77 4.94-10.42 3.16-2.82 7.45-3.4 11.49-2.56 9.88 2.03 17.91 9.93 19.56 19.88 1.65 9.96-1.84 20.07-6.88 28.41s-12.06 14.91-21.33 18.3c-11.78 4.31-24.93 4.74-37.23 2.7-12.3-2.04-24.86-6.66-34.31-15.13-2.1-1.88-4.02-3.95-5.7-6.22-1.57-2.12 1.54-4.82 3.12-2.68 6.72 9.1 17.2 14.61 27.87 17.77 11.34 3.36 23.68 4.31 35.33 2.23 9.22-1.64 17.74-5.25 23.91-12.45 5.72-6.67 10.07-15.14 11.22-23.9 1.15-8.76-1.39-16.92-8.94-21.76-3.37-2.15-7.83-4.11-11.91-3.25-2.9.6-4.93 2.79-6.01 5.47-2.77 6.9-.84 15.68 3.3 21.65 5.2 7.49 14.29 9.7 22.92 10.42 11.08.92 22.51-.59 33.05-4.06 9.4-3.09 19.35-8.26 24.59-17 1.12-1.87 1.91-3.89 2.45-6.01.65-2.55 4.54-1.2 3.9 1.34Z"/>
  </g>
</symbol>
</svg>